M48
; DRILL file {KiCad (6.0.4)} date Fri Nov  4 05:35:51 2022
; FORMAT={-:-/ absolute / metric / decimal}
; #@! TF.CreationDate,2022-11-04T05:35:51-04:00
; #@! TF.GenerationSoftware,Kicad,Pcbnew,(6.0.4)
; #@! TF.FileFunction,Plated,1,4,PTH
FMAT,2
METRIC
; #@! TA.AperFunction,Plated,PTH,ComponentDrill
T1C0.300
; #@! TA.AperFunction,Plated,PTH,ViaDrill
T2C0.400
; #@! TA.AperFunction,Plated,PTH,ComponentDrill
T3C0.800
; #@! TA.AperFunction,Plated,PTH,ComponentDrill
T4C1.000
; #@! TA.AperFunction,Plated,PTH,ComponentDrill
T5C1.020
; #@! TA.AperFunction,Plated,PTH,ComponentDrill
T6C1.600
%
G90
G05
T1
X132.5Y-76.5
X132.5Y-77.3
X132.5Y-78.1
X133.3Y-76.5
X133.3Y-77.3
X133.3Y-78.1
X134.1Y-76.5
X134.1Y-77.3
X134.1Y-78.1
T2
X96.48Y-76.73
X96.51Y-96.93
X96.59Y-86.74
X96.62Y-107.41
X97.17Y-49.76
X97.26Y-69.35
X99.02Y-56.61
X101.27Y-82.6
X101.5Y-90.43
X101.58Y-100.38
X101.69Y-112.14
X101.77Y-72.46
X105.22Y-49.39
X106.88Y-86.67
X106.88Y-98.88
X107.17Y-56.77
X107.34Y-109.37
X112.6Y-70.95
X113.21Y-49.19
X113.45Y-91.51
X113.68Y-103.72
X114.25Y-114.21
X116.74Y-57.33
X120.6Y-66.58
X123.15Y-76.75
X123.25Y-85.54
X123.69Y-92.77
X123.98Y-71.65
X124.6Y-82.75
X125.81Y-48.73
X127.15Y-76.75
X127.23Y-96.23
X127.75Y-81.55
X127.79Y-108.59
X128.15Y-87.7
X131.6Y-80.8
X132.218Y-81.586
X132.785Y-82.409
X133.783Y-82.456
X133.95Y-116.95
X134.3Y-81.55
X134.35Y-72.2
X134.95Y-73.1
X135.4Y-74.05
X137.0Y-76.25
X138.1Y-74.4
X141.82Y-91.38
X142.46Y-71.5
X142.6Y-79.55
X142.6Y-83.2
X143.08Y-93.4
X143.23Y-90.05
X145.7Y-73.14
X145.81Y-109.03
X146.85Y-85.2
X148.85Y-117.03
X149.23Y-90.03
X149.82Y-93.43
X150.75Y-91.33
X151.68Y-105.33
X152.46Y-63.34
X153.78Y-56.43
X154.59Y-94.02
X154.65Y-88.73
X154.89Y-72.01
X156.63Y-76.62
X156.78Y-90.32
X157.15Y-86.1
X157.59Y-98.42
X158.46Y-59.04
X158.83Y-69.19
X159.05Y-77.45
X160.5Y-76.15
X160.67Y-96.96
X161.49Y-83.28
X162.05Y-77.45
X162.35Y-104.6
X163.99Y-56.05
X164.02Y-108.95
X165.56Y-87.05
X166.64Y-69.22
X166.87Y-77.9
X167.36Y-100.59
X169.72Y-116.77
X170.86Y-91.35
X172.29Y-48.67
X173.01Y-69.84
X173.32Y-56.55
X173.78Y-84.66
X174.39Y-65.15
X174.93Y-91.81
X175.55Y-95.8
X175.93Y-77.52
X176.29Y-101.33
T3
X168.48Y-83.23
X168.48Y-84.83
X168.48Y-86.43
X169.73Y-84.03
X169.73Y-85.63
T4
X104.035Y-79.6
X106.575Y-79.6
X122.425Y-102.5
X124.965Y-102.5
X127.505Y-102.5
X129.77Y-61.325
X129.77Y-63.865
X130.045Y-102.5
X132.31Y-61.325
X132.31Y-63.865
X132.585Y-102.5
X134.85Y-61.325
X134.85Y-63.865
X135.125Y-102.5
X137.39Y-61.325
X137.39Y-63.865
X137.665Y-102.5
X140.205Y-102.5
X142.745Y-102.5
X145.05Y-75.91
X145.05Y-78.45
X145.285Y-102.5
X147.825Y-102.5
X150.365Y-102.5
X152.905Y-102.5
X155.445Y-102.5
X157.985Y-102.5
T5
X126.49Y-51.08
X126.49Y-53.62
X126.49Y-112.04
X126.49Y-114.58
X129.03Y-51.08
X129.03Y-53.62
X129.03Y-112.04
X129.03Y-114.58
X131.57Y-51.08
X131.57Y-53.62
X131.57Y-112.04
X131.57Y-114.58
X134.11Y-51.08
X134.11Y-53.62
X134.11Y-112.04
X134.11Y-114.58
X136.65Y-51.08
X136.65Y-53.62
X136.65Y-112.04
X136.65Y-114.58
X139.19Y-51.08
X139.19Y-53.62
X139.19Y-112.04
X139.19Y-114.58
X141.73Y-51.08
X141.73Y-53.62
X141.73Y-112.04
X141.73Y-114.58
X144.27Y-51.08
X144.27Y-53.62
X144.27Y-112.04
X144.27Y-114.58
X146.81Y-51.08
X146.81Y-53.62
X146.81Y-112.04
X146.81Y-114.58
X149.35Y-51.08
X149.35Y-53.62
X149.35Y-112.04
X149.35Y-114.58
X151.89Y-51.08
X151.89Y-53.62
X151.89Y-112.04
X151.89Y-114.58
X154.43Y-51.08
X154.43Y-53.62
X154.43Y-112.04
X154.43Y-114.58
X156.97Y-51.08
X156.97Y-53.62
X156.97Y-112.04
X156.97Y-114.58
X159.51Y-51.08
X159.51Y-53.62
X159.51Y-112.04
X159.51Y-114.58
X162.05Y-51.08
X162.05Y-53.62
X162.05Y-112.04
X162.05Y-114.58
X164.59Y-51.08
X164.59Y-53.62
X164.59Y-112.04
X164.59Y-114.58
X167.13Y-51.08
X167.13Y-53.62
X167.13Y-112.04
X167.13Y-114.58
X169.67Y-51.08
X169.67Y-53.62
X169.67Y-112.04
X169.67Y-114.58
X172.21Y-51.08
X172.21Y-53.62
X172.21Y-112.04
X172.21Y-114.58
T6
X103.96Y-61.36
X103.96Y-66.44
X106.5Y-63.9
X109.04Y-61.36
X109.04Y-66.44
T3
G00X172.88Y-81.18
M15
G01X174.58Y-81.18
M16
G05
G00X172.88Y-88.48
M15
G01X174.58Y-88.48
M16
G05
T0
M30
