%TF.GenerationSoftware,KiCad,Pcbnew,(6.0.4)*%
%TF.CreationDate,2022-11-04T05:35:43-04:00*%
%TF.ProjectId,SI4743 Breakout,53493437-3433-4204-9272-65616b6f7574,rev?*%
%TF.SameCoordinates,Original*%
%TF.FileFunction,Soldermask,Top*%
%TF.FilePolarity,Negative*%
%FSLAX46Y46*%
G04 Gerber Fmt 4.6, Leading zero omitted, Abs format (unit mm)*
G04 Created by KiCad (PCBNEW (6.0.4)) date 2022-11-04 05:35:43*
%MOMM*%
%LPD*%
G01*
G04 APERTURE LIST*
G04 Aperture macros list*
%AMRoundRect*
0 Rectangle with rounded corners*
0 $1 Rounding radius*
0 $2 $3 $4 $5 $6 $7 $8 $9 X,Y pos of 4 corners*
0 Add a 4 corners polygon primitive as box body*
4,1,4,$2,$3,$4,$5,$6,$7,$8,$9,$2,$3,0*
0 Add four circle primitives for the rounded corners*
1,1,$1+$1,$2,$3*
1,1,$1+$1,$4,$5*
1,1,$1+$1,$6,$7*
1,1,$1+$1,$8,$9*
0 Add four rect primitives between the rounded corners*
20,1,$1+$1,$2,$3,$4,$5,0*
20,1,$1+$1,$4,$5,$6,$7,0*
20,1,$1+$1,$6,$7,$8,$9,0*
20,1,$1+$1,$8,$9,$2,$3,0*%
%AMFreePoly0*
4,1,6,1.000000,0.000000,0.500000,-0.750000,-0.500000,-0.750000,-0.500000,0.750000,0.500000,0.750000,1.000000,0.000000,1.000000,0.000000,$1*%
%AMFreePoly1*
4,1,6,0.500000,-0.750000,-0.650000,-0.750000,-0.150000,0.000000,-0.650000,0.750000,0.500000,0.750000,0.500000,-0.750000,0.500000,-0.750000,$1*%
G04 Aperture macros list end*
%ADD10FreePoly0,90.000000*%
%ADD11FreePoly1,90.000000*%
%ADD12RoundRect,0.150000X-0.587500X-0.150000X0.587500X-0.150000X0.587500X0.150000X-0.587500X0.150000X0*%
%ADD13RoundRect,0.250000X-0.450000X0.350000X-0.450000X-0.350000X0.450000X-0.350000X0.450000X0.350000X0*%
%ADD14RoundRect,0.250000X0.475000X-0.337500X0.475000X0.337500X-0.475000X0.337500X-0.475000X-0.337500X0*%
%ADD15C,3.000000*%
%ADD16R,1.530000X1.530000*%
%ADD17C,1.530000*%
%ADD18R,1.700000X1.700000*%
%ADD19O,1.700000X1.700000*%
%ADD20C,1.200000*%
%ADD21R,2.700000X1.300000*%
%ADD22R,2.000000X1.500000*%
%ADD23R,2.000000X3.800000*%
%ADD24RoundRect,0.250000X-0.337500X-0.475000X0.337500X-0.475000X0.337500X0.475000X-0.337500X0.475000X0*%
%ADD25RoundRect,0.250000X0.337500X0.475000X-0.337500X0.475000X-0.337500X-0.475000X0.337500X-0.475000X0*%
%ADD26RoundRect,0.250000X-0.475000X0.337500X-0.475000X-0.337500X0.475000X-0.337500X0.475000X0.337500X0*%
%ADD27RoundRect,0.250000X-0.350000X-0.450000X0.350000X-0.450000X0.350000X0.450000X-0.350000X0.450000X0*%
%ADD28RoundRect,0.250000X0.275000X0.350000X-0.275000X0.350000X-0.275000X-0.350000X0.275000X-0.350000X0*%
%ADD29RoundRect,0.250000X-0.275000X-0.350000X0.275000X-0.350000X0.275000X0.350000X-0.275000X0.350000X0*%
%ADD30RoundRect,0.062500X-0.350000X-0.062500X0.350000X-0.062500X0.350000X0.062500X-0.350000X0.062500X0*%
%ADD31RoundRect,0.062500X-0.062500X-0.350000X0.062500X-0.350000X0.062500X0.350000X-0.062500X0.350000X0*%
%ADD32R,2.200000X2.200000*%
%ADD33C,2.400000*%
%ADD34RoundRect,0.375000X-0.625000X0.375000X-0.625000X-0.375000X0.625000X-0.375000X0.625000X0.375000X0*%
G04 APERTURE END LIST*
D10*
%TO.C,JP1*%
X106680000Y-75110000D03*
D11*
X106680000Y-73660000D03*
%TD*%
D12*
%TO.C,D1*%
X124612500Y-74850000D03*
X124612500Y-76750000D03*
X126487500Y-75800000D03*
%TD*%
%TO.C,D2*%
X124612500Y-79550000D03*
X124612500Y-81450000D03*
X126487500Y-80500000D03*
%TD*%
D13*
%TO.C,R3*%
X163850000Y-72770000D03*
X163850000Y-74770000D03*
%TD*%
D14*
%TO.C,C1*%
X160500000Y-79537500D03*
X160500000Y-77462500D03*
%TD*%
D15*
%TO.C,J7*%
X123950000Y-58700000D03*
X174750000Y-73940000D03*
X122680000Y-106960000D03*
D16*
X126490000Y-114580000D03*
D17*
X126490000Y-112040000D03*
X129030000Y-114580000D03*
X129030000Y-112040000D03*
X131570000Y-114580000D03*
X131570000Y-112040000D03*
X134110000Y-114580000D03*
X134110000Y-112040000D03*
X136650000Y-114580000D03*
X136650000Y-112040000D03*
X139190000Y-114580000D03*
X139190000Y-112040000D03*
X141730000Y-114580000D03*
X141730000Y-112040000D03*
X144270000Y-114580000D03*
X144270000Y-112040000D03*
X146810000Y-114580000D03*
X146810000Y-112040000D03*
X149350000Y-114580000D03*
X149350000Y-112040000D03*
X151890000Y-114580000D03*
X151890000Y-112040000D03*
X154430000Y-114580000D03*
X154430000Y-112040000D03*
X156970000Y-114580000D03*
X156970000Y-112040000D03*
X159510000Y-114580000D03*
X159510000Y-112040000D03*
X162050000Y-114580000D03*
X162050000Y-112040000D03*
X164590000Y-114580000D03*
X164590000Y-112040000D03*
X167130000Y-114580000D03*
X167130000Y-112040000D03*
X169670000Y-114580000D03*
X169670000Y-112040000D03*
X172210000Y-114580000D03*
X172210000Y-112040000D03*
D16*
X126490000Y-53620000D03*
D17*
X126490000Y-51080000D03*
X129030000Y-53620000D03*
X129030000Y-51080000D03*
X131570000Y-53620000D03*
X131570000Y-51080000D03*
X134110000Y-53620000D03*
X134110000Y-51080000D03*
X136650000Y-53620000D03*
X136650000Y-51080000D03*
X139190000Y-53620000D03*
X139190000Y-51080000D03*
X141730000Y-53620000D03*
X141730000Y-51080000D03*
X144270000Y-53620000D03*
X144270000Y-51080000D03*
X146810000Y-53620000D03*
X146810000Y-51080000D03*
X149350000Y-53620000D03*
X149350000Y-51080000D03*
X151890000Y-53620000D03*
X151890000Y-51080000D03*
X154430000Y-53620000D03*
X154430000Y-51080000D03*
X156970000Y-53620000D03*
X156970000Y-51080000D03*
X159510000Y-53620000D03*
X159510000Y-51080000D03*
X162050000Y-53620000D03*
X162050000Y-51080000D03*
X164590000Y-53620000D03*
X164590000Y-51080000D03*
X167130000Y-53620000D03*
X167130000Y-51080000D03*
X169670000Y-53620000D03*
X169670000Y-51080000D03*
X172210000Y-53620000D03*
X172210000Y-51080000D03*
%TD*%
D18*
%TO.C,J2*%
X106575000Y-79600000D03*
D19*
X104035000Y-79600000D03*
%TD*%
D20*
%TO.C,J1*%
X168480000Y-86430000D03*
X169730000Y-85630000D03*
X168480000Y-84830000D03*
X169730000Y-84030000D03*
X168480000Y-83230000D03*
D21*
X173730000Y-88480000D03*
X173730000Y-81180000D03*
%TD*%
D22*
%TO.C,U1*%
X157150000Y-84100000D03*
D23*
X150850000Y-81800000D03*
D22*
X157150000Y-81800000D03*
X157150000Y-79500000D03*
%TD*%
D24*
%TO.C,C7*%
X138412500Y-83150000D03*
X140487500Y-83150000D03*
%TD*%
D25*
%TO.C,C2*%
X116075000Y-66000000D03*
X114000000Y-66000000D03*
%TD*%
D18*
%TO.C,J4*%
X122425000Y-102500000D03*
D19*
X124965000Y-102500000D03*
X127505000Y-102500000D03*
X130045000Y-102500000D03*
X132585000Y-102500000D03*
X135125000Y-102500000D03*
X137665000Y-102500000D03*
X140205000Y-102500000D03*
X142745000Y-102500000D03*
X145285000Y-102500000D03*
X147825000Y-102500000D03*
X150365000Y-102500000D03*
X152905000Y-102500000D03*
X155445000Y-102500000D03*
X157985000Y-102500000D03*
%TD*%
D18*
%TO.C,J5*%
X129770000Y-63865000D03*
D19*
X129770000Y-61325000D03*
X132310000Y-63865000D03*
X132310000Y-61325000D03*
X134850000Y-63865000D03*
X134850000Y-61325000D03*
X137390000Y-63865000D03*
X137390000Y-61325000D03*
%TD*%
D26*
%TO.C,C9*%
X141800000Y-87912500D03*
X141800000Y-89987500D03*
%TD*%
D27*
%TO.C,R2*%
X121010000Y-51420000D03*
X123010000Y-51420000D03*
%TD*%
D28*
%TO.C,L3*%
X116187500Y-71000000D03*
X113887500Y-71000000D03*
%TD*%
D29*
%TO.C,L2*%
X113887500Y-69000000D03*
X116187500Y-69000000D03*
%TD*%
D24*
%TO.C,C5*%
X120262500Y-79600000D03*
X122337500Y-79600000D03*
%TD*%
D30*
%TO.C,U2*%
X131362500Y-76050000D03*
X131362500Y-76550000D03*
X131362500Y-77050000D03*
X131362500Y-77550000D03*
X131362500Y-78050000D03*
X131362500Y-78550000D03*
D31*
X132050000Y-79237500D03*
X132550000Y-79237500D03*
X133050000Y-79237500D03*
X133550000Y-79237500D03*
X134050000Y-79237500D03*
X134550000Y-79237500D03*
D30*
X135237500Y-78550000D03*
X135237500Y-78050000D03*
X135237500Y-77550000D03*
X135237500Y-77050000D03*
X135237500Y-76550000D03*
X135237500Y-76050000D03*
D31*
X134550000Y-75362500D03*
X134050000Y-75362500D03*
X133550000Y-75362500D03*
X133050000Y-75362500D03*
X132550000Y-75362500D03*
X132050000Y-75362500D03*
D32*
X133300000Y-77300000D03*
%TD*%
D33*
%TO.C,J3*%
X106500000Y-63900000D03*
X103960000Y-66440000D03*
X109040000Y-61360000D03*
X109040000Y-66440000D03*
X103960000Y-61360000D03*
%TD*%
D24*
%TO.C,C6*%
X138412500Y-79550000D03*
X140487500Y-79550000D03*
%TD*%
D27*
%TO.C,R1*%
X121060000Y-54210000D03*
X123060000Y-54210000D03*
%TD*%
D24*
%TO.C,C3*%
X115562500Y-79600000D03*
X117637500Y-79600000D03*
%TD*%
D13*
%TO.C,R4*%
X171170000Y-72770000D03*
X171170000Y-74770000D03*
%TD*%
D26*
%TO.C,C8*%
X150730000Y-87902500D03*
X150730000Y-89977500D03*
%TD*%
D28*
%TO.C,L4*%
X116187500Y-73000000D03*
X113887500Y-73000000D03*
%TD*%
D26*
%TO.C,C4*%
X146900000Y-81762500D03*
X146900000Y-83837500D03*
%TD*%
D34*
%TO.C,Y1*%
X144800000Y-87910000D03*
X144800000Y-93410000D03*
X148000000Y-93410000D03*
X148000000Y-87910000D03*
%TD*%
D18*
%TO.C,J6*%
X145050000Y-78450000D03*
D19*
X145050000Y-75910000D03*
%TD*%
G36*
X150892121Y-59620002D02*
G01*
X150938614Y-59673658D01*
X150950000Y-59726000D01*
X150950000Y-67484000D01*
X150929998Y-67552121D01*
X150876342Y-67598614D01*
X150824000Y-67610000D01*
X143085843Y-67610000D01*
X143017722Y-67589998D01*
X142971229Y-67536342D01*
X142959843Y-67484157D01*
X142950157Y-59726157D01*
X142970074Y-59658012D01*
X143023672Y-59611452D01*
X143076157Y-59600000D01*
X150824000Y-59600000D01*
X150892121Y-59620002D01*
G37*
M02*
