%TF.GenerationSoftware,KiCad,Pcbnew,(6.0.4)*%
%TF.CreationDate,2022-11-04T05:35:43-04:00*%
%TF.ProjectId,SI4743 Breakout,53493437-3433-4204-9272-65616b6f7574,rev?*%
%TF.SameCoordinates,Original*%
%TF.FileFunction,Copper,L4,Bot*%
%TF.FilePolarity,Positive*%
%FSLAX46Y46*%
G04 Gerber Fmt 4.6, Leading zero omitted, Abs format (unit mm)*
G04 Created by KiCad (PCBNEW (6.0.4)) date 2022-11-04 05:35:43*
%MOMM*%
%LPD*%
G01*
G04 APERTURE LIST*
%TA.AperFunction,ComponentPad*%
%ADD10R,1.530000X1.530000*%
%TD*%
%TA.AperFunction,ComponentPad*%
%ADD11C,1.530000*%
%TD*%
%TA.AperFunction,ComponentPad*%
%ADD12R,1.700000X1.700000*%
%TD*%
%TA.AperFunction,ComponentPad*%
%ADD13O,1.700000X1.700000*%
%TD*%
%TA.AperFunction,ComponentPad*%
%ADD14C,1.200000*%
%TD*%
%TA.AperFunction,ComponentPad*%
%ADD15R,2.700000X1.300000*%
%TD*%
%TA.AperFunction,ComponentPad*%
%ADD16C,0.500000*%
%TD*%
%TA.AperFunction,SMDPad,CuDef*%
%ADD17R,2.200000X2.200000*%
%TD*%
%TA.AperFunction,ComponentPad*%
%ADD18C,2.400000*%
%TD*%
%TA.AperFunction,ViaPad*%
%ADD19C,0.800000*%
%TD*%
%TA.AperFunction,Conductor*%
%ADD20C,0.200000*%
%TD*%
G04 APERTURE END LIST*
D10*
%TO.P,J7,1,PC10*%
%TO.N,unconnected-(J7-Pad1)*%
X126490000Y-114580000D03*
D11*
%TO.P,J7,2,PC11*%
%TO.N,unconnected-(J7-Pad2)*%
X126490000Y-112040000D03*
%TO.P,J7,3,PC12*%
%TO.N,unconnected-(J7-Pad3)*%
X129030000Y-114580000D03*
%TO.P,J7,4,PD2*%
%TO.N,unconnected-(J7-Pad4)*%
X129030000Y-112040000D03*
%TO.P,J7,5,VDD*%
%TO.N,unconnected-(J7-Pad5)*%
X131570000Y-114580000D03*
%TO.P,J7,6,E5V*%
%TO.N,unconnected-(J7-Pad6)*%
X131570000Y-112040000D03*
%TO.P,J7,7,BOOT0*%
%TO.N,unconnected-(J7-Pad7)*%
X134110000Y-114580000D03*
%TO.P,J7,8,GND*%
%TO.N,unconnected-(J7-Pad8)*%
X134110000Y-112040000D03*
%TO.P,J7,9,NC*%
%TO.N,unconnected-(J7-Pad9)*%
X136650000Y-114580000D03*
%TO.P,J7,10,NC*%
%TO.N,unconnected-(J7-Pad10)*%
X136650000Y-112040000D03*
%TO.P,J7,11,NC*%
%TO.N,unconnected-(J7-Pad11)*%
X139190000Y-114580000D03*
%TO.P,J7,12,IOREF*%
%TO.N,unconnected-(J7-Pad12)*%
X139190000Y-112040000D03*
%TO.P,J7,13,PA13*%
%TO.N,unconnected-(J7-Pad13)*%
X141730000Y-114580000D03*
%TO.P,J7,14,RESET*%
%TO.N,unconnected-(J7-Pad14)*%
X141730000Y-112040000D03*
%TO.P,J7,15,PA14*%
%TO.N,unconnected-(J7-Pad15)*%
X144270000Y-114580000D03*
%TO.P,J7,16,+3.3V*%
%TO.N,unconnected-(J7-Pad16)*%
X144270000Y-112040000D03*
%TO.P,J7,17,PA15*%
%TO.N,unconnected-(J7-Pad17)*%
X146810000Y-114580000D03*
%TO.P,J7,18,+5V*%
%TO.N,unconnected-(J7-Pad18)*%
X146810000Y-112040000D03*
%TO.P,J7,19,GND*%
%TO.N,unconnected-(J7-Pad19)*%
X149350000Y-114580000D03*
%TO.P,J7,20,GND*%
%TO.N,unconnected-(J7-Pad20)*%
X149350000Y-112040000D03*
%TO.P,J7,21,PB7*%
%TO.N,unconnected-(J7-Pad21)*%
X151890000Y-114580000D03*
%TO.P,J7,22,GND*%
%TO.N,unconnected-(J7-Pad22)*%
X151890000Y-112040000D03*
%TO.P,J7,23,PC13*%
%TO.N,unconnected-(J7-Pad23)*%
X154430000Y-114580000D03*
%TO.P,J7,24,VIN*%
%TO.N,unconnected-(J7-Pad24)*%
X154430000Y-112040000D03*
%TO.P,J7,25,PC14*%
%TO.N,unconnected-(J7-Pad25)*%
X156970000Y-114580000D03*
%TO.P,J7,26,NC*%
%TO.N,unconnected-(J7-Pad26)*%
X156970000Y-112040000D03*
%TO.P,J7,27,PC15*%
%TO.N,unconnected-(J7-Pad27)*%
X159510000Y-114580000D03*
%TO.P,J7,28,PA0*%
%TO.N,unconnected-(J7-Pad28)*%
X159510000Y-112040000D03*
%TO.P,J7,29,PH0*%
%TO.N,unconnected-(J7-Pad29)*%
X162050000Y-114580000D03*
%TO.P,J7,30,PA1*%
%TO.N,unconnected-(J7-Pad30)*%
X162050000Y-112040000D03*
%TO.P,J7,31,PH1*%
%TO.N,unconnected-(J7-Pad31)*%
X164590000Y-114580000D03*
%TO.P,J7,32,PA4*%
%TO.N,unconnected-(J7-Pad32)*%
X164590000Y-112040000D03*
%TO.P,J7,33,VBAT*%
%TO.N,unconnected-(J7-Pad33)*%
X167130000Y-114580000D03*
%TO.P,J7,34,PB0*%
%TO.N,unconnected-(J7-Pad34)*%
X167130000Y-112040000D03*
%TO.P,J7,35,PC2*%
%TO.N,PC2*%
X169670000Y-114580000D03*
%TO.P,J7,36,PC1*%
%TO.N,PC1*%
X169670000Y-112040000D03*
%TO.P,J7,37,PC3*%
%TO.N,PC3*%
X172210000Y-114580000D03*
%TO.P,J7,38,PC0*%
%TO.N,PC0*%
X172210000Y-112040000D03*
D10*
%TO.P,J7,39,PC9*%
%TO.N,unconnected-(J7-Pad39)*%
X126490000Y-53620000D03*
D11*
%TO.P,J7,40,PC8*%
%TO.N,unconnected-(J7-Pad40)*%
X126490000Y-51080000D03*
%TO.P,J7,41,PB8*%
%TO.N,SCL*%
X129030000Y-53620000D03*
%TO.P,J7,42,PC6*%
%TO.N,PC6*%
X129030000Y-51080000D03*
%TO.P,J7,43,PB9*%
%TO.N,SDA*%
X131570000Y-53620000D03*
%TO.P,J7,44,PC5*%
%TO.N,PC5*%
X131570000Y-51080000D03*
%TO.P,J7,45,AVDD*%
%TO.N,unconnected-(J7-Pad45)*%
X134110000Y-53620000D03*
%TO.P,J7,46,U5V*%
%TO.N,unconnected-(J7-Pad46)*%
X134110000Y-51080000D03*
%TO.P,J7,47,GND*%
%TO.N,unconnected-(J7-Pad47)*%
X136650000Y-53620000D03*
%TO.P,J7,48,NC*%
%TO.N,unconnected-(J7-Pad48)*%
X136650000Y-51080000D03*
%TO.P,J7,49,PA5*%
%TO.N,unconnected-(J7-Pad49)*%
X139190000Y-53620000D03*
%TO.P,J7,50,PA12*%
%TO.N,USB D+*%
X139190000Y-51080000D03*
%TO.P,J7,51,PA6*%
%TO.N,unconnected-(J7-Pad51)*%
X141730000Y-53620000D03*
%TO.P,J7,52,PA11*%
%TO.N,USB D-*%
X141730000Y-51080000D03*
%TO.P,J7,53,PA7*%
%TO.N,unconnected-(J7-Pad53)*%
X144270000Y-53620000D03*
%TO.P,J7,54,PB12*%
%TO.N,unconnected-(J7-Pad54)*%
X144270000Y-51080000D03*
%TO.P,J7,55,PB6*%
%TO.N,unconnected-(J7-Pad55)*%
X146810000Y-53620000D03*
%TO.P,J7,56,NC*%
%TO.N,unconnected-(J7-Pad56)*%
X146810000Y-51080000D03*
%TO.P,J7,57,PC7*%
%TO.N,PC7*%
X149350000Y-53620000D03*
%TO.P,J7,58,GND*%
%TO.N,unconnected-(J7-Pad58)*%
X149350000Y-51080000D03*
%TO.P,J7,59,PA9*%
%TO.N,unconnected-(J7-Pad59)*%
X151890000Y-53620000D03*
%TO.P,J7,60,PB2*%
%TO.N,unconnected-(J7-Pad60)*%
X151890000Y-51080000D03*
%TO.P,J7,61,PA8*%
%TO.N,unconnected-(J7-Pad61)*%
X154430000Y-53620000D03*
%TO.P,J7,62,PB1*%
%TO.N,unconnected-(J7-Pad62)*%
X154430000Y-51080000D03*
%TO.P,J7,63,PB10*%
%TO.N,unconnected-(J7-Pad63)*%
X156970000Y-53620000D03*
%TO.P,J7,64,PB15*%
%TO.N,unconnected-(J7-Pad64)*%
X156970000Y-51080000D03*
%TO.P,J7,65,PB4*%
%TO.N,unconnected-(J7-Pad65)*%
X159510000Y-53620000D03*
%TO.P,J7,66,PB14*%
%TO.N,unconnected-(J7-Pad66)*%
X159510000Y-51080000D03*
%TO.P,J7,67,PB5*%
%TO.N,unconnected-(J7-Pad67)*%
X162050000Y-53620000D03*
%TO.P,J7,68,PB13*%
%TO.N,unconnected-(J7-Pad68)*%
X162050000Y-51080000D03*
%TO.P,J7,69,PB3*%
%TO.N,unconnected-(J7-Pad69)*%
X164590000Y-53620000D03*
%TO.P,J7,70,AGND*%
%TO.N,unconnected-(J7-Pad70)*%
X164590000Y-51080000D03*
%TO.P,J7,71,PA10*%
%TO.N,USB ID*%
X167130000Y-53620000D03*
%TO.P,J7,72,PC4*%
%TO.N,PC4*%
X167130000Y-51080000D03*
%TO.P,J7,73,PA2*%
%TO.N,unconnected-(J7-Pad73)*%
X169670000Y-53620000D03*
%TO.P,J7,74,NC*%
%TO.N,unconnected-(J7-Pad74)*%
X169670000Y-51080000D03*
%TO.P,J7,75,PA3*%
%TO.N,unconnected-(J7-Pad75)*%
X172210000Y-53620000D03*
%TO.P,J7,76,NC*%
%TO.N,unconnected-(J7-Pad76)*%
X172210000Y-51080000D03*
%TD*%
D12*
%TO.P,J2,1,Pin_1*%
%TO.N,Net-(C3-Pad1)*%
X106575000Y-79600000D03*
D13*
%TO.P,J2,2,Pin_2*%
%TO.N,GND*%
X104035000Y-79600000D03*
%TD*%
D14*
%TO.P,J1,1,VBUS*%
%TO.N,Net-(C1-Pad1)*%
X168480000Y-86430000D03*
%TO.P,J1,2,D-*%
%TO.N,Net-(J1-Pad2)*%
X169730000Y-85630000D03*
%TO.P,J1,3,D+*%
%TO.N,Net-(J1-Pad3)*%
X168480000Y-84830000D03*
%TO.P,J1,4,ID*%
%TO.N,USB ID*%
X169730000Y-84030000D03*
%TO.P,J1,5,GND*%
%TO.N,GND*%
X168480000Y-83230000D03*
D15*
%TO.P,J1,6,Shield*%
X173730000Y-88480000D03*
X173730000Y-81180000D03*
%TD*%
D12*
%TO.P,J4,1,Pin_1*%
%TO.N,GND*%
X122425000Y-102500000D03*
D13*
%TO.P,J4,2,Pin_2*%
%TO.N,VDD*%
X124965000Y-102500000D03*
%TO.P,J4,3,Pin_3*%
%TO.N,AGC*%
X127505000Y-102500000D03*
%TO.P,J4,4,Pin_4*%
%TO.N,RST*%
X130045000Y-102500000D03*
%TO.P,J4,5,Pin_5*%
%TO.N,SEN*%
X132585000Y-102500000D03*
%TO.P,J4,6,Pin_6*%
%TO.N,unconnected-(J4-Pad6)*%
X135125000Y-102500000D03*
%TO.P,J4,7,Pin_7*%
%TO.N,unconnected-(J4-Pad7)*%
X137665000Y-102500000D03*
%TO.P,J4,8,Pin_8*%
%TO.N,RCLK*%
X140205000Y-102500000D03*
%TO.P,J4,9,Pin_9*%
%TO.N,unconnected-(J4-Pad9)*%
X142745000Y-102500000D03*
%TO.P,J4,10,Pin_10*%
%TO.N,unconnected-(J4-Pad10)*%
X145285000Y-102500000D03*
%TO.P,J4,11,Pin_11*%
%TO.N,DOUT*%
X147825000Y-102500000D03*
%TO.P,J4,12,Pin_12*%
%TO.N,DFS*%
X150365000Y-102500000D03*
%TO.P,J4,13,Pin_13*%
%TO.N,DCLK*%
X152905000Y-102500000D03*
%TO.P,J4,14,Pin_14*%
%TO.N,INT*%
X155445000Y-102500000D03*
%TO.P,J4,15,Pin_15*%
%TO.N,AGC2*%
X157985000Y-102500000D03*
%TD*%
D12*
%TO.P,J5,1,Pin_1*%
%TO.N,PC0*%
X129770000Y-63865000D03*
D13*
%TO.P,J5,2,Pin_2*%
%TO.N,PC1*%
X129770000Y-61325000D03*
%TO.P,J5,3,Pin_3*%
%TO.N,PC2*%
X132310000Y-63865000D03*
%TO.P,J5,4,Pin_4*%
%TO.N,PC3*%
X132310000Y-61325000D03*
%TO.P,J5,5,Pin_5*%
%TO.N,PC7*%
X134850000Y-63865000D03*
%TO.P,J5,6,Pin_6*%
%TO.N,PC6*%
X134850000Y-61325000D03*
%TO.P,J5,7,Pin_7*%
%TO.N,PC5*%
X137390000Y-63865000D03*
%TO.P,J5,8,Pin_8*%
%TO.N,PC4*%
X137390000Y-61325000D03*
%TD*%
D16*
%TO.P,U2,25,GND*%
%TO.N,GND*%
X133300000Y-77300000D03*
X133300000Y-76500000D03*
X133300000Y-78100000D03*
X134100000Y-76500000D03*
X134100000Y-77300000D03*
D17*
X133300000Y-77300000D03*
D16*
X132500000Y-76500000D03*
X132500000Y-78100000D03*
X134100000Y-78100000D03*
X132500000Y-77300000D03*
%TD*%
D18*
%TO.P,J3,1,In*%
%TO.N,Net-(C2-Pad1)*%
X106500000Y-63900000D03*
%TO.P,J3,2,Ext*%
%TO.N,GND*%
X103960000Y-66440000D03*
X109040000Y-61360000D03*
X109040000Y-66440000D03*
X103960000Y-61360000D03*
%TD*%
D12*
%TO.P,J6,1,Pin_1*%
%TO.N,ROUT*%
X145050000Y-78450000D03*
D13*
%TO.P,J6,2,Pin_2*%
%TO.N,LOUT*%
X145050000Y-75910000D03*
%TD*%
D19*
%TO.N,GND*%
X176290000Y-101330000D03*
X156630000Y-76620000D03*
X161490000Y-83280000D03*
X165560000Y-87050000D03*
X175550000Y-95800000D03*
X174930000Y-91810000D03*
X170860000Y-91350000D03*
X173780000Y-84660000D03*
X175930000Y-77520000D03*
X173010000Y-69840000D03*
X174390000Y-65150000D03*
X173320000Y-56550000D03*
X166870000Y-77900000D03*
X166640000Y-69220000D03*
X133950000Y-116950000D03*
X148850000Y-117030000D03*
X169720000Y-116770000D03*
X164020000Y-108950000D03*
X145810000Y-109030000D03*
X127790000Y-108590000D03*
X151680000Y-105330000D03*
X162350000Y-104600000D03*
X167360000Y-100590000D03*
X157590000Y-98420000D03*
X160670000Y-96960000D03*
X154590000Y-94020000D03*
X156780000Y-90320000D03*
X154650000Y-88730000D03*
X127230000Y-96230000D03*
X123690000Y-92770000D03*
X128150000Y-87700000D03*
X123250000Y-85540000D03*
X145700000Y-73140000D03*
X142460000Y-71500000D03*
X154890000Y-72010000D03*
X158830000Y-69190000D03*
X152460000Y-63340000D03*
X163990000Y-56050000D03*
X158460000Y-59040000D03*
X153780000Y-56430000D03*
X172290000Y-48670000D03*
X125810000Y-48730000D03*
X123980000Y-71650000D03*
X120600000Y-66580000D03*
X114250000Y-114210000D03*
X107340000Y-109370000D03*
X113680000Y-103720000D03*
X106880000Y-98880000D03*
X113450000Y-91510000D03*
X106880000Y-86670000D03*
X101690000Y-112140000D03*
X96620000Y-107410000D03*
X101580000Y-100380000D03*
X96510000Y-96930000D03*
X101500000Y-90430000D03*
X96590000Y-86740000D03*
X101270000Y-82600000D03*
X96480000Y-76730000D03*
X101770000Y-72460000D03*
X97260000Y-69350000D03*
X116740000Y-57330000D03*
X113210000Y-49190000D03*
X107170000Y-56770000D03*
X105220000Y-49390000D03*
X99020000Y-56610000D03*
X97170000Y-49760000D03*
X123150000Y-76750000D03*
X146850000Y-85200000D03*
X143080000Y-93400000D03*
X142600000Y-83200000D03*
X112600000Y-70950000D03*
X143230000Y-90050000D03*
X141820000Y-91380000D03*
X149230000Y-90030000D03*
X127750000Y-81550000D03*
X157150000Y-86100000D03*
X127150000Y-76750000D03*
X149820000Y-93430000D03*
X142600000Y-79550000D03*
X124600000Y-82750000D03*
X150750000Y-91330000D03*
X159050000Y-77450000D03*
X162050000Y-77450000D03*
X160500000Y-76150000D03*
%TO.N,DCLK*%
X135400000Y-74050000D03*
%TO.N,RCLK*%
X134300000Y-81550000D03*
%TO.N,RST*%
X131600000Y-80800000D03*
%TO.N,SEN*%
X132217514Y-81585927D03*
%TO.N,SCL*%
X132785056Y-82408667D03*
%TO.N,SDA*%
X133783419Y-82456376D03*
%TO.N,AGC2*%
X134350000Y-72200000D03*
%TO.N,INT*%
X134950000Y-73100000D03*
%TO.N,DOUT*%
X137000000Y-76250000D03*
%TO.N,DFS*%
X138100000Y-74400000D03*
%TD*%
D20*
%TO.N,DCLK*%
X135400000Y-74050000D02*
X136700000Y-72750000D01*
X139450000Y-74100000D02*
X139450000Y-85750000D01*
X137400000Y-87800000D02*
X137400000Y-93600000D01*
X138100000Y-72750000D02*
X139450000Y-74100000D01*
X148105000Y-97700000D02*
X152905000Y-102500000D01*
X141500000Y-97700000D02*
X148105000Y-97700000D01*
X137400000Y-93600000D02*
X141500000Y-97700000D01*
X139450000Y-85750000D02*
X137400000Y-87800000D01*
X136700000Y-72750000D02*
X138100000Y-72750000D01*
%TO.N,RCLK*%
X134300000Y-96595000D02*
X140205000Y-102500000D01*
X134300000Y-83400000D02*
X134300000Y-96595000D01*
X134300000Y-81550000D02*
X134800000Y-82050000D01*
X134800000Y-82050000D02*
X134800000Y-82900000D01*
X134800000Y-82900000D02*
X134300000Y-83400000D01*
%TO.N,RST*%
X130045000Y-82355000D02*
X130045000Y-102500000D01*
X131600000Y-80800000D02*
X130045000Y-82355000D01*
%TO.N,SEN*%
X131050000Y-82750000D02*
X131050000Y-100965000D01*
X132082104Y-81717896D02*
X131050000Y-82750000D01*
X132085545Y-81717896D02*
X132082104Y-81717896D01*
X132217514Y-81585927D02*
X132085545Y-81717896D01*
X131050000Y-100965000D02*
X132585000Y-102500000D01*
%TO.N,SCL*%
X129469259Y-74309259D02*
X129469259Y-77680000D01*
X129469259Y-77680000D02*
X132917025Y-81127766D01*
X132917025Y-81127766D02*
X132917025Y-82276698D01*
X132917025Y-82276698D02*
X132785056Y-82408667D01*
X127350000Y-72190000D02*
X129469259Y-74309259D01*
X129030000Y-56290000D02*
X127350000Y-57970000D01*
X127350000Y-57970000D02*
X127350000Y-72190000D01*
X129030000Y-53620000D02*
X129030000Y-56290000D01*
%TO.N,SDA*%
X129940000Y-74050000D02*
X127900000Y-72010000D01*
X127900000Y-58710000D02*
X131570000Y-55040000D01*
X133600489Y-82273446D02*
X133600489Y-81220489D01*
X133600489Y-81220489D02*
X129940000Y-77560000D01*
X129940000Y-77560000D02*
X129940000Y-74050000D01*
X127900000Y-72010000D02*
X127900000Y-58710000D01*
X131570000Y-55040000D02*
X131570000Y-53620000D01*
%TO.N,AGC2*%
X139100000Y-71150000D02*
X135350000Y-71150000D01*
X135350000Y-71150000D02*
X134350000Y-72150000D01*
X141800000Y-86150000D02*
X141800000Y-73850000D01*
X139200000Y-93000000D02*
X139200000Y-88750000D01*
X134350000Y-72150000D02*
X134350000Y-72200000D01*
X139200000Y-88750000D02*
X141800000Y-86150000D01*
X151535000Y-96050000D02*
X142250000Y-96050000D01*
X141800000Y-73850000D02*
X139100000Y-71150000D01*
X157985000Y-102500000D02*
X151535000Y-96050000D01*
X142250000Y-96050000D02*
X139200000Y-93000000D01*
%TO.N,INT*%
X134950000Y-73100000D02*
X136100000Y-71950000D01*
X140600000Y-85950000D02*
X138200000Y-88350000D01*
X138200000Y-93300000D02*
X141850000Y-96950000D01*
X141850000Y-96950000D02*
X149895000Y-96950000D01*
X136100000Y-71950000D02*
X138400000Y-71950000D01*
X138200000Y-88350000D02*
X138200000Y-93300000D01*
X149895000Y-96950000D02*
X155445000Y-102500000D01*
X138400000Y-71950000D02*
X140600000Y-74150000D01*
X140600000Y-74150000D02*
X140600000Y-85950000D01*
%TO.N,DOUT*%
X135600000Y-86800000D02*
X135600000Y-94750000D01*
X137000000Y-76250000D02*
X137600000Y-76850000D01*
X137600000Y-84800000D02*
X135600000Y-86800000D01*
X135600000Y-94750000D02*
X140250000Y-99400000D01*
X140250000Y-99400000D02*
X144725000Y-99400000D01*
X144725000Y-99400000D02*
X147825000Y-102500000D01*
X137600000Y-76850000D02*
X137600000Y-84800000D01*
%TO.N,DFS*%
X136400000Y-87300000D02*
X138500000Y-85200000D01*
X138500000Y-85200000D02*
X138500000Y-74800000D01*
X141000000Y-98500000D02*
X136400000Y-93900000D01*
X136400000Y-93900000D02*
X136400000Y-87300000D01*
X150365000Y-102500000D02*
X146365000Y-98500000D01*
X138500000Y-74800000D02*
X138100000Y-74400000D01*
X146365000Y-98500000D02*
X141000000Y-98500000D01*
%TO.N,PC0*%
X129770000Y-66830000D02*
X129770000Y-63865000D01*
X151550000Y-81520000D02*
X151550000Y-75500000D01*
X172210000Y-112040000D02*
X172210000Y-102180000D01*
X172210000Y-102180000D02*
X151550000Y-81520000D01*
X132160000Y-69300000D02*
X129730000Y-66870000D01*
X145350000Y-69300000D02*
X132160000Y-69300000D01*
X129730000Y-66870000D02*
X129770000Y-66830000D01*
X151550000Y-75500000D02*
X145350000Y-69300000D01*
%TO.N,PC1*%
X169670000Y-100470000D02*
X150700000Y-81500000D01*
X131700000Y-69860000D02*
X128490000Y-66650000D01*
X144760000Y-69860000D02*
X131700000Y-69860000D01*
X169670000Y-112040000D02*
X169670000Y-100470000D01*
X150700000Y-75940000D02*
X150770000Y-75870000D01*
X128490000Y-62605000D02*
X129770000Y-61325000D01*
X128490000Y-66650000D02*
X128490000Y-62605000D01*
X150700000Y-81500000D02*
X150700000Y-75940000D01*
X150770000Y-75870000D02*
X144760000Y-69860000D01*
%TO.N,PC2*%
X171010000Y-113240000D02*
X169670000Y-114580000D01*
X132310000Y-65050000D02*
X134520000Y-67260000D01*
X174200000Y-112550000D02*
X173510000Y-113240000D01*
X154060000Y-73680000D02*
X154060000Y-79900000D01*
X174200000Y-100040000D02*
X174200000Y-112550000D01*
X134520000Y-67260000D02*
X147640000Y-67260000D01*
X154060000Y-79900000D02*
X174200000Y-100040000D01*
X147640000Y-67260000D02*
X154060000Y-73680000D01*
X173510000Y-113240000D02*
X171010000Y-113240000D01*
X132310000Y-63865000D02*
X132310000Y-65050000D01*
%TO.N,PC3*%
X154630000Y-79010000D02*
X154630000Y-73000000D01*
X133700000Y-64890000D02*
X133700000Y-62715000D01*
X133700000Y-62715000D02*
X132310000Y-61325000D01*
X174810000Y-116390000D02*
X174810000Y-99190000D01*
X172210000Y-116780000D02*
X172700000Y-117270000D01*
X135350000Y-66540000D02*
X133700000Y-64890000D01*
X148170000Y-66540000D02*
X135350000Y-66540000D01*
X173930000Y-117270000D02*
X174810000Y-116390000D01*
X174810000Y-99190000D02*
X154630000Y-79010000D01*
X172210000Y-114580000D02*
X172210000Y-116780000D01*
X154630000Y-73000000D02*
X148170000Y-66540000D01*
X172700000Y-117270000D02*
X173930000Y-117270000D01*
%TO.N,PC7*%
X149350000Y-53620000D02*
X140470000Y-62500000D01*
X136215000Y-62500000D02*
X134850000Y-63865000D01*
X140470000Y-62500000D02*
X136215000Y-62500000D01*
%TD*%
%TA.AperFunction,Conductor*%
%TO.N,GND*%
G36*
X173720018Y-48090000D02*
G01*
X173734851Y-48092310D01*
X173734855Y-48092310D01*
X173743724Y-48093691D01*
X173757789Y-48091852D01*
X173784003Y-48091176D01*
X173934328Y-48103007D01*
X173953855Y-48106100D01*
X174038929Y-48126524D01*
X174124005Y-48146949D01*
X174142803Y-48153056D01*
X174304472Y-48220022D01*
X174322077Y-48228992D01*
X174471284Y-48320426D01*
X174487273Y-48332043D01*
X174620333Y-48445687D01*
X174634311Y-48459665D01*
X174692386Y-48527661D01*
X174747954Y-48592723D01*
X174759574Y-48608716D01*
X174851008Y-48757923D01*
X174859978Y-48775528D01*
X174865359Y-48788518D01*
X174926942Y-48937192D01*
X174933052Y-48955997D01*
X174973900Y-49126145D01*
X174976993Y-49145672D01*
X174988272Y-49288987D01*
X174987630Y-49305875D01*
X174987800Y-49305877D01*
X174987690Y-49314853D01*
X174986309Y-49323724D01*
X174987473Y-49332626D01*
X174987473Y-49332628D01*
X174990436Y-49355283D01*
X174991500Y-49371621D01*
X174991500Y-69633928D01*
X174990145Y-69646058D01*
X174990627Y-69646097D01*
X174989907Y-69655044D01*
X174987926Y-69663800D01*
X174988482Y-69672760D01*
X174991258Y-69717508D01*
X174991500Y-69725310D01*
X174991500Y-69741513D01*
X174992136Y-69745953D01*
X174992984Y-69751878D01*
X174994013Y-69761928D01*
X174996945Y-69809177D01*
X174999994Y-69817623D01*
X175000593Y-69820514D01*
X175004822Y-69837480D01*
X175005648Y-69840305D01*
X175006920Y-69849187D01*
X175026522Y-69892298D01*
X175030327Y-69901647D01*
X175046404Y-69946181D01*
X175051699Y-69953429D01*
X175053080Y-69956027D01*
X175061915Y-69971145D01*
X175063494Y-69973614D01*
X175067208Y-69981782D01*
X175073064Y-69988578D01*
X175098115Y-70017652D01*
X175104401Y-70025569D01*
X175109548Y-70032615D01*
X175109553Y-70032620D01*
X175112425Y-70036552D01*
X175123400Y-70047527D01*
X175129758Y-70054374D01*
X175162287Y-70092127D01*
X175169822Y-70097011D01*
X175176066Y-70102458D01*
X175187931Y-70112058D01*
X176954595Y-71878722D01*
X176988621Y-71941034D01*
X176991500Y-71967817D01*
X176991500Y-73645499D01*
X176971498Y-73713620D01*
X176917842Y-73760113D01*
X176847568Y-73770217D01*
X176782988Y-73740723D01*
X176744604Y-73680997D01*
X176741414Y-73667379D01*
X176736913Y-73641852D01*
X176703598Y-73452913D01*
X176616797Y-73185765D01*
X176587175Y-73125030D01*
X176519968Y-72987237D01*
X176493660Y-72933298D01*
X176491205Y-72929659D01*
X176491202Y-72929653D01*
X176357361Y-72731226D01*
X176336585Y-72700424D01*
X176148629Y-72491678D01*
X175933450Y-72311121D01*
X175695236Y-72162269D01*
X175438625Y-72048018D01*
X175287176Y-72004591D01*
X175172837Y-71971805D01*
X175172836Y-71971805D01*
X175168610Y-71970593D01*
X175164260Y-71969982D01*
X175164257Y-71969981D01*
X175061310Y-71955513D01*
X174890448Y-71931500D01*
X174679854Y-71931500D01*
X174677668Y-71931653D01*
X174677664Y-71931653D01*
X174474173Y-71945882D01*
X174474168Y-71945883D01*
X174469788Y-71946189D01*
X174195030Y-72004591D01*
X174190901Y-72006094D01*
X174190897Y-72006095D01*
X173935219Y-72099154D01*
X173935215Y-72099156D01*
X173931074Y-72100663D01*
X173683058Y-72232536D01*
X173679499Y-72235122D01*
X173679497Y-72235123D01*
X173475459Y-72383365D01*
X173455808Y-72397642D01*
X173253748Y-72592769D01*
X173080812Y-72814118D01*
X173078616Y-72817922D01*
X173078611Y-72817929D01*
X172980862Y-72987237D01*
X172940364Y-73057381D01*
X172835138Y-73317824D01*
X172834073Y-73322097D01*
X172834072Y-73322099D01*
X172768354Y-73585681D01*
X172767183Y-73590376D01*
X172766724Y-73594744D01*
X172766723Y-73594749D01*
X172739035Y-73858188D01*
X172737822Y-73869733D01*
X172737975Y-73874121D01*
X172737975Y-73874127D01*
X172745510Y-74089886D01*
X172747625Y-74150458D01*
X172748387Y-74154781D01*
X172748388Y-74154788D01*
X172772164Y-74289624D01*
X172796402Y-74427087D01*
X172883203Y-74694235D01*
X172885131Y-74698188D01*
X172885133Y-74698193D01*
X172940313Y-74811328D01*
X173006340Y-74946702D01*
X173008795Y-74950341D01*
X173008798Y-74950347D01*
X173066357Y-75035681D01*
X173163415Y-75179576D01*
X173351371Y-75388322D01*
X173566550Y-75568879D01*
X173804764Y-75717731D01*
X174061375Y-75831982D01*
X174331390Y-75909407D01*
X174335740Y-75910018D01*
X174335743Y-75910019D01*
X174438690Y-75924487D01*
X174609552Y-75948500D01*
X174820146Y-75948500D01*
X174822332Y-75948347D01*
X174822336Y-75948347D01*
X175025827Y-75934118D01*
X175025832Y-75934117D01*
X175030212Y-75933811D01*
X175304970Y-75875409D01*
X175309099Y-75873906D01*
X175309103Y-75873905D01*
X175564781Y-75780846D01*
X175564785Y-75780844D01*
X175568926Y-75779337D01*
X175816942Y-75647464D01*
X175829349Y-75638450D01*
X176040629Y-75484947D01*
X176040632Y-75484944D01*
X176044192Y-75482358D01*
X176064484Y-75462763D01*
X176198317Y-75333521D01*
X176246252Y-75287231D01*
X176419188Y-75065882D01*
X176421384Y-75062078D01*
X176421389Y-75062071D01*
X176557435Y-74826431D01*
X176559636Y-74822619D01*
X176664862Y-74562176D01*
X176665928Y-74557901D01*
X176731753Y-74293893D01*
X176731754Y-74293888D01*
X176732817Y-74289624D01*
X176740190Y-74219473D01*
X176767203Y-74153816D01*
X176825425Y-74113186D01*
X176896370Y-74110483D01*
X176957514Y-74146565D01*
X176989444Y-74209976D01*
X176991500Y-74232643D01*
X176991500Y-104692182D01*
X176971498Y-104760303D01*
X176954595Y-104781277D01*
X176220933Y-105514940D01*
X175633595Y-106102278D01*
X175571283Y-106136303D01*
X175500468Y-106131239D01*
X175443632Y-106088692D01*
X175418821Y-106022172D01*
X175418500Y-106013183D01*
X175418500Y-99238144D01*
X175419578Y-99221698D01*
X175422673Y-99198188D01*
X175423751Y-99190000D01*
X175402838Y-99031149D01*
X175341524Y-98883124D01*
X175268478Y-98787929D01*
X175268474Y-98787925D01*
X175268471Y-98787921D01*
X175249016Y-98762566D01*
X175249013Y-98762563D01*
X175243987Y-98756013D01*
X175237432Y-98750983D01*
X175218621Y-98736548D01*
X175206230Y-98725681D01*
X165655218Y-89174669D01*
X171872001Y-89174669D01*
X171872371Y-89181490D01*
X171877895Y-89232352D01*
X171881521Y-89247604D01*
X171926676Y-89368054D01*
X171935214Y-89383649D01*
X172011715Y-89485724D01*
X172024276Y-89498285D01*
X172126351Y-89574786D01*
X172141946Y-89583324D01*
X172262394Y-89628478D01*
X172277649Y-89632105D01*
X172328514Y-89637631D01*
X172335328Y-89638000D01*
X173457885Y-89638000D01*
X173473124Y-89633525D01*
X173474329Y-89632135D01*
X173476000Y-89624452D01*
X173476000Y-89619884D01*
X173984000Y-89619884D01*
X173988475Y-89635123D01*
X173989865Y-89636328D01*
X173997548Y-89637999D01*
X175124669Y-89637999D01*
X175131490Y-89637629D01*
X175182352Y-89632105D01*
X175197604Y-89628479D01*
X175318054Y-89583324D01*
X175333649Y-89574786D01*
X175435724Y-89498285D01*
X175448285Y-89485724D01*
X175524786Y-89383649D01*
X175533324Y-89368054D01*
X175578478Y-89247606D01*
X175582105Y-89232351D01*
X175587631Y-89181486D01*
X175588000Y-89174672D01*
X175588000Y-88752115D01*
X175583525Y-88736876D01*
X175582135Y-88735671D01*
X175574452Y-88734000D01*
X174002115Y-88734000D01*
X173986876Y-88738475D01*
X173985671Y-88739865D01*
X173984000Y-88747548D01*
X173984000Y-89619884D01*
X173476000Y-89619884D01*
X173476000Y-88752115D01*
X173471525Y-88736876D01*
X173470135Y-88735671D01*
X173462452Y-88734000D01*
X171890116Y-88734000D01*
X171874877Y-88738475D01*
X171873672Y-88739865D01*
X171872001Y-88747548D01*
X171872001Y-89174669D01*
X165655218Y-89174669D01*
X164688434Y-88207885D01*
X171872000Y-88207885D01*
X171876475Y-88223124D01*
X171877865Y-88224329D01*
X171885548Y-88226000D01*
X173457885Y-88226000D01*
X173473124Y-88221525D01*
X173474329Y-88220135D01*
X173476000Y-88212452D01*
X173476000Y-88207885D01*
X173984000Y-88207885D01*
X173988475Y-88223124D01*
X173989865Y-88224329D01*
X173997548Y-88226000D01*
X175569884Y-88226000D01*
X175585123Y-88221525D01*
X175586328Y-88220135D01*
X175587999Y-88212452D01*
X175587999Y-87785331D01*
X175587629Y-87778510D01*
X175582105Y-87727648D01*
X175578479Y-87712396D01*
X175533324Y-87591946D01*
X175524786Y-87576351D01*
X175448285Y-87474276D01*
X175435724Y-87461715D01*
X175333649Y-87385214D01*
X175318054Y-87376676D01*
X175197606Y-87331522D01*
X175182351Y-87327895D01*
X175131486Y-87322369D01*
X175124672Y-87322000D01*
X174002115Y-87322000D01*
X173986876Y-87326475D01*
X173985671Y-87327865D01*
X173984000Y-87335548D01*
X173984000Y-88207885D01*
X173476000Y-88207885D01*
X173476000Y-87340116D01*
X173471525Y-87324877D01*
X173470135Y-87323672D01*
X173462452Y-87322001D01*
X172335331Y-87322001D01*
X172328510Y-87322371D01*
X172277648Y-87327895D01*
X172262396Y-87331521D01*
X172141946Y-87376676D01*
X172126351Y-87385214D01*
X172024276Y-87461715D01*
X172011715Y-87474276D01*
X171935214Y-87576351D01*
X171926676Y-87591946D01*
X171881522Y-87712394D01*
X171877895Y-87727649D01*
X171872369Y-87778514D01*
X171872000Y-87785328D01*
X171872000Y-88207885D01*
X164688434Y-88207885D01*
X162881408Y-86400859D01*
X167367132Y-86400859D01*
X167380457Y-86604151D01*
X167430605Y-86801610D01*
X167515898Y-86986624D01*
X167633479Y-87152997D01*
X167779410Y-87295157D01*
X167784206Y-87298362D01*
X167784209Y-87298364D01*
X167914190Y-87385214D01*
X167948803Y-87408342D01*
X167954106Y-87410620D01*
X167954109Y-87410622D01*
X168130680Y-87486483D01*
X168135987Y-87488763D01*
X168208817Y-87505243D01*
X168329055Y-87532450D01*
X168329060Y-87532451D01*
X168334692Y-87533725D01*
X168340463Y-87533952D01*
X168340465Y-87533952D01*
X168403470Y-87536427D01*
X168538263Y-87541723D01*
X168739883Y-87512490D01*
X168745347Y-87510635D01*
X168745352Y-87510634D01*
X168927327Y-87448862D01*
X168927332Y-87448860D01*
X168932799Y-87447004D01*
X169110551Y-87347458D01*
X169267186Y-87217186D01*
X169397458Y-87060551D01*
X169497004Y-86882799D01*
X169517852Y-86821381D01*
X169558689Y-86763306D01*
X169624442Y-86736528D01*
X169642111Y-86735981D01*
X169672046Y-86737157D01*
X169788263Y-86741723D01*
X169989883Y-86712490D01*
X169995347Y-86710635D01*
X169995352Y-86710634D01*
X170177327Y-86648862D01*
X170177332Y-86648860D01*
X170182799Y-86647004D01*
X170360551Y-86547458D01*
X170517186Y-86417186D01*
X170647458Y-86260551D01*
X170727117Y-86118310D01*
X170744180Y-86087842D01*
X170744181Y-86087840D01*
X170747004Y-86082799D01*
X170748860Y-86077332D01*
X170748862Y-86077327D01*
X170810634Y-85895352D01*
X170810635Y-85895347D01*
X170812490Y-85889883D01*
X170841723Y-85688263D01*
X170843249Y-85630000D01*
X170824608Y-85427126D01*
X170769307Y-85231047D01*
X170757378Y-85206856D01*
X170681756Y-85053510D01*
X170679201Y-85048329D01*
X170641905Y-84998383D01*
X170571039Y-84903483D01*
X170546307Y-84836933D01*
X170561481Y-84767577D01*
X170575123Y-84747525D01*
X170643760Y-84664997D01*
X170647458Y-84660551D01*
X170747004Y-84482799D01*
X170748860Y-84477332D01*
X170748862Y-84477327D01*
X170810634Y-84295352D01*
X170810635Y-84295347D01*
X170812490Y-84289883D01*
X170841723Y-84088263D01*
X170843249Y-84030000D01*
X170824608Y-83827126D01*
X170795198Y-83722849D01*
X170770875Y-83636606D01*
X170770874Y-83636604D01*
X170769307Y-83631047D01*
X170755959Y-83603978D01*
X170681756Y-83453510D01*
X170679201Y-83448329D01*
X170673206Y-83440300D01*
X170560758Y-83289715D01*
X170560758Y-83289714D01*
X170557305Y-83285091D01*
X170459994Y-83195137D01*
X170411943Y-83150719D01*
X170411940Y-83150717D01*
X170407703Y-83146800D01*
X170361675Y-83117759D01*
X170240288Y-83041169D01*
X170240283Y-83041167D01*
X170235404Y-83038088D01*
X170046180Y-82962595D01*
X169846366Y-82922849D01*
X169840592Y-82922773D01*
X169840588Y-82922773D01*
X169642655Y-82920183D01*
X169642672Y-82918865D01*
X169579591Y-82905619D01*
X169529027Y-82855780D01*
X169521544Y-82839750D01*
X169516283Y-82826044D01*
X169432163Y-82655465D01*
X169424869Y-82649990D01*
X169412449Y-82656762D01*
X168839210Y-83230000D01*
X168569095Y-83500116D01*
X168506783Y-83534141D01*
X168435967Y-83529076D01*
X168390905Y-83500115D01*
X168120790Y-83230000D01*
X167548542Y-82657753D01*
X167536162Y-82650993D01*
X167530196Y-82655459D01*
X167454645Y-82799058D01*
X167450242Y-82809691D01*
X167393281Y-82993132D01*
X167390891Y-83004376D01*
X167368313Y-83195137D01*
X167368012Y-83206638D01*
X167380575Y-83398304D01*
X167382376Y-83409674D01*
X167429657Y-83595843D01*
X167433498Y-83606690D01*
X167513915Y-83781128D01*
X167519666Y-83791089D01*
X167630528Y-83947955D01*
X167632634Y-83950421D01*
X167633263Y-83951825D01*
X167633861Y-83952671D01*
X167633695Y-83952789D01*
X167661663Y-84015212D01*
X167651055Y-84085411D01*
X167635771Y-84110253D01*
X167546351Y-84223681D01*
X167451492Y-84403978D01*
X167391078Y-84598543D01*
X167367132Y-84800859D01*
X167380457Y-85004151D01*
X167430605Y-85201610D01*
X167515898Y-85386624D01*
X167632964Y-85552268D01*
X167633479Y-85552997D01*
X167633336Y-85553098D01*
X167661346Y-85615613D01*
X167650738Y-85685813D01*
X167635453Y-85710655D01*
X167546351Y-85823681D01*
X167451492Y-86003978D01*
X167425452Y-86087842D01*
X167393769Y-86189878D01*
X167391078Y-86198543D01*
X167367132Y-86400859D01*
X162881408Y-86400859D01*
X158769224Y-82288675D01*
X167902788Y-82288675D01*
X167906275Y-82297064D01*
X168467189Y-82857979D01*
X168481132Y-82865592D01*
X168482966Y-82865461D01*
X168489580Y-82861210D01*
X169050285Y-82300504D01*
X169057042Y-82288129D01*
X169051012Y-82280073D01*
X168990061Y-82241616D01*
X168979813Y-82236395D01*
X168801401Y-82165216D01*
X168790373Y-82161949D01*
X168601982Y-82124476D01*
X168590535Y-82123273D01*
X168398477Y-82120759D01*
X168386997Y-82121662D01*
X168197697Y-82154190D01*
X168186577Y-82157170D01*
X168006365Y-82223653D01*
X167995991Y-82228601D01*
X167912385Y-82278342D01*
X167902788Y-82288675D01*
X158769224Y-82288675D01*
X158355218Y-81874669D01*
X171872001Y-81874669D01*
X171872371Y-81881490D01*
X171877895Y-81932352D01*
X171881521Y-81947604D01*
X171926676Y-82068054D01*
X171935214Y-82083649D01*
X172011715Y-82185724D01*
X172024276Y-82198285D01*
X172126351Y-82274786D01*
X172141946Y-82283324D01*
X172262394Y-82328478D01*
X172277649Y-82332105D01*
X172328514Y-82337631D01*
X172335328Y-82338000D01*
X173457885Y-82338000D01*
X173473124Y-82333525D01*
X173474329Y-82332135D01*
X173476000Y-82324452D01*
X173476000Y-82319884D01*
X173984000Y-82319884D01*
X173988475Y-82335123D01*
X173989865Y-82336328D01*
X173997548Y-82337999D01*
X175124669Y-82337999D01*
X175131490Y-82337629D01*
X175182352Y-82332105D01*
X175197604Y-82328479D01*
X175318054Y-82283324D01*
X175333649Y-82274786D01*
X175435724Y-82198285D01*
X175448285Y-82185724D01*
X175524786Y-82083649D01*
X175533324Y-82068054D01*
X175578478Y-81947606D01*
X175582105Y-81932351D01*
X175587631Y-81881486D01*
X175588000Y-81874672D01*
X175588000Y-81452115D01*
X175583525Y-81436876D01*
X175582135Y-81435671D01*
X175574452Y-81434000D01*
X174002115Y-81434000D01*
X173986876Y-81438475D01*
X173985671Y-81439865D01*
X173984000Y-81447548D01*
X173984000Y-82319884D01*
X173476000Y-82319884D01*
X173476000Y-81452115D01*
X173471525Y-81436876D01*
X173470135Y-81435671D01*
X173462452Y-81434000D01*
X171890116Y-81434000D01*
X171874877Y-81438475D01*
X171873672Y-81439865D01*
X171872001Y-81447548D01*
X171872001Y-81874669D01*
X158355218Y-81874669D01*
X157388434Y-80907885D01*
X171872000Y-80907885D01*
X171876475Y-80923124D01*
X171877865Y-80924329D01*
X171885548Y-80926000D01*
X173457885Y-80926000D01*
X173473124Y-80921525D01*
X173474329Y-80920135D01*
X173476000Y-80912452D01*
X173476000Y-80907885D01*
X173984000Y-80907885D01*
X173988475Y-80923124D01*
X173989865Y-80924329D01*
X173997548Y-80926000D01*
X175569884Y-80926000D01*
X175585123Y-80921525D01*
X175586328Y-80920135D01*
X175587999Y-80912452D01*
X175587999Y-80485331D01*
X175587629Y-80478510D01*
X175582105Y-80427648D01*
X175578479Y-80412396D01*
X175533324Y-80291946D01*
X175524786Y-80276351D01*
X175448285Y-80174276D01*
X175435724Y-80161715D01*
X175333649Y-80085214D01*
X175318054Y-80076676D01*
X175197606Y-80031522D01*
X175182351Y-80027895D01*
X175131486Y-80022369D01*
X175124672Y-80022000D01*
X174002115Y-80022000D01*
X173986876Y-80026475D01*
X173985671Y-80027865D01*
X173984000Y-80035548D01*
X173984000Y-80907885D01*
X173476000Y-80907885D01*
X173476000Y-80040116D01*
X173471525Y-80024877D01*
X173470135Y-80023672D01*
X173462452Y-80022001D01*
X172335331Y-80022001D01*
X172328510Y-80022371D01*
X172277648Y-80027895D01*
X172262396Y-80031521D01*
X172141946Y-80076676D01*
X172126351Y-80085214D01*
X172024276Y-80161715D01*
X172011715Y-80174276D01*
X171935214Y-80276351D01*
X171926676Y-80291946D01*
X171881522Y-80412394D01*
X171877895Y-80427649D01*
X171872369Y-80478514D01*
X171872000Y-80485328D01*
X171872000Y-80907885D01*
X157388434Y-80907885D01*
X155275405Y-78794856D01*
X155241379Y-78732544D01*
X155238500Y-78705761D01*
X155238500Y-73048144D01*
X155239578Y-73031698D01*
X155242673Y-73008188D01*
X155243751Y-73000000D01*
X155222838Y-72841149D01*
X155161524Y-72693124D01*
X155088478Y-72597929D01*
X155088474Y-72597925D01*
X155072632Y-72577279D01*
X155069016Y-72572566D01*
X155069013Y-72572563D01*
X155063987Y-72566013D01*
X155038619Y-72546547D01*
X155026229Y-72535680D01*
X148634315Y-66143766D01*
X148623448Y-66131375D01*
X148609013Y-66112563D01*
X148603987Y-66106013D01*
X148572075Y-66081526D01*
X148572072Y-66081523D01*
X148476876Y-66008476D01*
X148328851Y-65947162D01*
X148320664Y-65946084D01*
X148320663Y-65946084D01*
X148309458Y-65944609D01*
X148278262Y-65940502D01*
X148209885Y-65931500D01*
X148209882Y-65931500D01*
X148209874Y-65931499D01*
X148178189Y-65927328D01*
X148170000Y-65926250D01*
X148138307Y-65930422D01*
X148121864Y-65931500D01*
X135654239Y-65931500D01*
X135586118Y-65911498D01*
X135565144Y-65894595D01*
X135079019Y-65408470D01*
X135044993Y-65346158D01*
X135050058Y-65275343D01*
X135092605Y-65218507D01*
X135133843Y-65199792D01*
X135133416Y-65198368D01*
X135342429Y-65135661D01*
X135342434Y-65135659D01*
X135347384Y-65134174D01*
X135547994Y-65035896D01*
X135729860Y-64906173D01*
X135888096Y-64748489D01*
X135898163Y-64734480D01*
X136018453Y-64567077D01*
X136019776Y-64568028D01*
X136066645Y-64524857D01*
X136136580Y-64512625D01*
X136202026Y-64540144D01*
X136229875Y-64571994D01*
X136289987Y-64670088D01*
X136436250Y-64838938D01*
X136608126Y-64981632D01*
X136801000Y-65094338D01*
X137009692Y-65174030D01*
X137014760Y-65175061D01*
X137014763Y-65175062D01*
X137122017Y-65196883D01*
X137228597Y-65218567D01*
X137233772Y-65218757D01*
X137233774Y-65218757D01*
X137446673Y-65226564D01*
X137446677Y-65226564D01*
X137451837Y-65226753D01*
X137456957Y-65226097D01*
X137456959Y-65226097D01*
X137668288Y-65199025D01*
X137668289Y-65199025D01*
X137673416Y-65198368D01*
X137678366Y-65196883D01*
X137882429Y-65135661D01*
X137882434Y-65135659D01*
X137887384Y-65134174D01*
X138087994Y-65035896D01*
X138269860Y-64906173D01*
X138428096Y-64748489D01*
X138438163Y-64734480D01*
X138555435Y-64571277D01*
X138558453Y-64567077D01*
X138579320Y-64524857D01*
X138655136Y-64371453D01*
X138655137Y-64371451D01*
X138657430Y-64366811D01*
X138722370Y-64153069D01*
X138751529Y-63931590D01*
X138753156Y-63865000D01*
X138734852Y-63642361D01*
X138680431Y-63425702D01*
X138619140Y-63284743D01*
X138610319Y-63214296D01*
X138640986Y-63150264D01*
X138701402Y-63112976D01*
X138734689Y-63108500D01*
X140421864Y-63108500D01*
X140438307Y-63109578D01*
X140470000Y-63113750D01*
X140478189Y-63112672D01*
X140509874Y-63108501D01*
X140509884Y-63108500D01*
X140509885Y-63108500D01*
X140616226Y-63094500D01*
X140620664Y-63093916D01*
X140620666Y-63093916D01*
X140628851Y-63092838D01*
X140776876Y-63031524D01*
X140808657Y-63007138D01*
X140872072Y-62958477D01*
X140872075Y-62958474D01*
X140897434Y-62939015D01*
X140903987Y-62933987D01*
X140914113Y-62920791D01*
X140923452Y-62908621D01*
X140934319Y-62896230D01*
X148937445Y-54893104D01*
X148999757Y-54859078D01*
X149059152Y-54860493D01*
X149122693Y-54877519D01*
X149122701Y-54877520D01*
X149128014Y-54878944D01*
X149350000Y-54898365D01*
X149571986Y-54878944D01*
X149753792Y-54830229D01*
X149781917Y-54822693D01*
X149781919Y-54822692D01*
X149787227Y-54821270D01*
X149802447Y-54814173D01*
X149984196Y-54729423D01*
X149984201Y-54729420D01*
X149989183Y-54727097D01*
X150115153Y-54638891D01*
X150167206Y-54602443D01*
X150167208Y-54602441D01*
X150171717Y-54599284D01*
X150329284Y-54441717D01*
X150332916Y-54436531D01*
X150387287Y-54358881D01*
X150457097Y-54259182D01*
X150459420Y-54254200D01*
X150459423Y-54254195D01*
X150505805Y-54154727D01*
X150552722Y-54101442D01*
X150620999Y-54081981D01*
X150688959Y-54102523D01*
X150734195Y-54154727D01*
X150780577Y-54254195D01*
X150780580Y-54254200D01*
X150782903Y-54259182D01*
X150852713Y-54358881D01*
X150907085Y-54436531D01*
X150910716Y-54441717D01*
X151068283Y-54599284D01*
X151072792Y-54602441D01*
X151072794Y-54602443D01*
X151124847Y-54638891D01*
X151250817Y-54727097D01*
X151255799Y-54729420D01*
X151255804Y-54729423D01*
X151437553Y-54814173D01*
X151452773Y-54821270D01*
X151458081Y-54822692D01*
X151458083Y-54822693D01*
X151486208Y-54830229D01*
X151668014Y-54878944D01*
X151890000Y-54898365D01*
X152111986Y-54878944D01*
X152293792Y-54830229D01*
X152321917Y-54822693D01*
X152321919Y-54822692D01*
X152327227Y-54821270D01*
X152342447Y-54814173D01*
X152524196Y-54729423D01*
X152524201Y-54729420D01*
X152529183Y-54727097D01*
X152655153Y-54638891D01*
X152707206Y-54602443D01*
X152707208Y-54602441D01*
X152711717Y-54599284D01*
X152869284Y-54441717D01*
X152872916Y-54436531D01*
X152927287Y-54358881D01*
X152997097Y-54259182D01*
X152999420Y-54254200D01*
X152999423Y-54254195D01*
X153045805Y-54154727D01*
X153092722Y-54101442D01*
X153160999Y-54081981D01*
X153228959Y-54102523D01*
X153274195Y-54154727D01*
X153320577Y-54254195D01*
X153320580Y-54254200D01*
X153322903Y-54259182D01*
X153392713Y-54358881D01*
X153447085Y-54436531D01*
X153450716Y-54441717D01*
X153608283Y-54599284D01*
X153612792Y-54602441D01*
X153612794Y-54602443D01*
X153664847Y-54638891D01*
X153790817Y-54727097D01*
X153795799Y-54729420D01*
X153795804Y-54729423D01*
X153977553Y-54814173D01*
X153992773Y-54821270D01*
X153998081Y-54822692D01*
X153998083Y-54822693D01*
X154026208Y-54830229D01*
X154208014Y-54878944D01*
X154430000Y-54898365D01*
X154651986Y-54878944D01*
X154833792Y-54830229D01*
X154861917Y-54822693D01*
X154861919Y-54822692D01*
X154867227Y-54821270D01*
X154882447Y-54814173D01*
X155064196Y-54729423D01*
X155064201Y-54729420D01*
X155069183Y-54727097D01*
X155195153Y-54638891D01*
X155247206Y-54602443D01*
X155247208Y-54602441D01*
X155251717Y-54599284D01*
X155409284Y-54441717D01*
X155412916Y-54436531D01*
X155467287Y-54358881D01*
X155537097Y-54259182D01*
X155539420Y-54254200D01*
X155539423Y-54254195D01*
X155585805Y-54154727D01*
X155632722Y-54101442D01*
X155700999Y-54081981D01*
X155768959Y-54102523D01*
X155814195Y-54154727D01*
X155860577Y-54254195D01*
X155860580Y-54254200D01*
X155862903Y-54259182D01*
X155932713Y-54358881D01*
X155987085Y-54436531D01*
X155990716Y-54441717D01*
X156148283Y-54599284D01*
X156152792Y-54602441D01*
X156152794Y-54602443D01*
X156204847Y-54638891D01*
X156330817Y-54727097D01*
X156335799Y-54729420D01*
X156335804Y-54729423D01*
X156517553Y-54814173D01*
X156532773Y-54821270D01*
X156538081Y-54822692D01*
X156538083Y-54822693D01*
X156566208Y-54830229D01*
X156748014Y-54878944D01*
X156970000Y-54898365D01*
X157191986Y-54878944D01*
X157373792Y-54830229D01*
X157401917Y-54822693D01*
X157401919Y-54822692D01*
X157407227Y-54821270D01*
X157422447Y-54814173D01*
X157604196Y-54729423D01*
X157604201Y-54729420D01*
X157609183Y-54727097D01*
X157735153Y-54638891D01*
X157787206Y-54602443D01*
X157787208Y-54602441D01*
X157791717Y-54599284D01*
X157949284Y-54441717D01*
X157952916Y-54436531D01*
X158007287Y-54358881D01*
X158077097Y-54259182D01*
X158079420Y-54254200D01*
X158079423Y-54254195D01*
X158125805Y-54154727D01*
X158172722Y-54101442D01*
X158240999Y-54081981D01*
X158308959Y-54102523D01*
X158354195Y-54154727D01*
X158400577Y-54254195D01*
X158400580Y-54254200D01*
X158402903Y-54259182D01*
X158472713Y-54358881D01*
X158527085Y-54436531D01*
X158530716Y-54441717D01*
X158688283Y-54599284D01*
X158692792Y-54602441D01*
X158692794Y-54602443D01*
X158744847Y-54638891D01*
X158870817Y-54727097D01*
X158875799Y-54729420D01*
X158875804Y-54729423D01*
X159057553Y-54814173D01*
X159072773Y-54821270D01*
X159078081Y-54822692D01*
X159078083Y-54822693D01*
X159106208Y-54830229D01*
X159288014Y-54878944D01*
X159510000Y-54898365D01*
X159731986Y-54878944D01*
X159913792Y-54830229D01*
X159941917Y-54822693D01*
X159941919Y-54822692D01*
X159947227Y-54821270D01*
X159962447Y-54814173D01*
X160144196Y-54729423D01*
X160144201Y-54729420D01*
X160149183Y-54727097D01*
X160275153Y-54638891D01*
X160327206Y-54602443D01*
X160327208Y-54602441D01*
X160331717Y-54599284D01*
X160489284Y-54441717D01*
X160492916Y-54436531D01*
X160547287Y-54358881D01*
X160617097Y-54259182D01*
X160619420Y-54254200D01*
X160619423Y-54254195D01*
X160665805Y-54154727D01*
X160712722Y-54101442D01*
X160780999Y-54081981D01*
X160848959Y-54102523D01*
X160894195Y-54154727D01*
X160940577Y-54254195D01*
X160940580Y-54254200D01*
X160942903Y-54259182D01*
X161012713Y-54358881D01*
X161067085Y-54436531D01*
X161070716Y-54441717D01*
X161228283Y-54599284D01*
X161232792Y-54602441D01*
X161232794Y-54602443D01*
X161284847Y-54638891D01*
X161410817Y-54727097D01*
X161415799Y-54729420D01*
X161415804Y-54729423D01*
X161597553Y-54814173D01*
X161612773Y-54821270D01*
X161618081Y-54822692D01*
X161618083Y-54822693D01*
X161646208Y-54830229D01*
X161828014Y-54878944D01*
X162050000Y-54898365D01*
X162271986Y-54878944D01*
X162453792Y-54830229D01*
X162481917Y-54822693D01*
X162481919Y-54822692D01*
X162487227Y-54821270D01*
X162502447Y-54814173D01*
X162684196Y-54729423D01*
X162684201Y-54729420D01*
X162689183Y-54727097D01*
X162815153Y-54638891D01*
X162867206Y-54602443D01*
X162867208Y-54602441D01*
X162871717Y-54599284D01*
X163029284Y-54441717D01*
X163032916Y-54436531D01*
X163087287Y-54358881D01*
X163157097Y-54259182D01*
X163159420Y-54254200D01*
X163159423Y-54254195D01*
X163205805Y-54154727D01*
X163252722Y-54101442D01*
X163320999Y-54081981D01*
X163388959Y-54102523D01*
X163434195Y-54154727D01*
X163480577Y-54254195D01*
X163480580Y-54254200D01*
X163482903Y-54259182D01*
X163552713Y-54358881D01*
X163607085Y-54436531D01*
X163610716Y-54441717D01*
X163768283Y-54599284D01*
X163772792Y-54602441D01*
X163772794Y-54602443D01*
X163824847Y-54638891D01*
X163950817Y-54727097D01*
X163955799Y-54729420D01*
X163955804Y-54729423D01*
X164137553Y-54814173D01*
X164152773Y-54821270D01*
X164158081Y-54822692D01*
X164158083Y-54822693D01*
X164186208Y-54830229D01*
X164368014Y-54878944D01*
X164590000Y-54898365D01*
X164811986Y-54878944D01*
X164993792Y-54830229D01*
X165021917Y-54822693D01*
X165021919Y-54822692D01*
X165027227Y-54821270D01*
X165042447Y-54814173D01*
X165224196Y-54729423D01*
X165224201Y-54729420D01*
X165229183Y-54727097D01*
X165355153Y-54638891D01*
X165407206Y-54602443D01*
X165407208Y-54602441D01*
X165411717Y-54599284D01*
X165569284Y-54441717D01*
X165572916Y-54436531D01*
X165627287Y-54358881D01*
X165697097Y-54259182D01*
X165699420Y-54254200D01*
X165699423Y-54254195D01*
X165745805Y-54154727D01*
X165792722Y-54101442D01*
X165860999Y-54081981D01*
X165928959Y-54102523D01*
X165974195Y-54154727D01*
X166020577Y-54254195D01*
X166020580Y-54254200D01*
X166022903Y-54259182D01*
X166092713Y-54358881D01*
X166147085Y-54436531D01*
X166150716Y-54441717D01*
X166308283Y-54599284D01*
X166312792Y-54602441D01*
X166312794Y-54602443D01*
X166364847Y-54638891D01*
X166490817Y-54727097D01*
X166495799Y-54729420D01*
X166495804Y-54729423D01*
X166677553Y-54814173D01*
X166692773Y-54821270D01*
X166698081Y-54822692D01*
X166698083Y-54822693D01*
X166726208Y-54830229D01*
X166908014Y-54878944D01*
X167130000Y-54898365D01*
X167351986Y-54878944D01*
X167533792Y-54830229D01*
X167561917Y-54822693D01*
X167561919Y-54822692D01*
X167567227Y-54821270D01*
X167582447Y-54814173D01*
X167764196Y-54729423D01*
X167764201Y-54729420D01*
X167769183Y-54727097D01*
X167895153Y-54638891D01*
X167947206Y-54602443D01*
X167947208Y-54602441D01*
X167951717Y-54599284D01*
X168109284Y-54441717D01*
X168112916Y-54436531D01*
X168167287Y-54358881D01*
X168237097Y-54259182D01*
X168239420Y-54254200D01*
X168239423Y-54254195D01*
X168285805Y-54154727D01*
X168332722Y-54101442D01*
X168400999Y-54081981D01*
X168468959Y-54102523D01*
X168514195Y-54154727D01*
X168560577Y-54254195D01*
X168560580Y-54254200D01*
X168562903Y-54259182D01*
X168632713Y-54358881D01*
X168687085Y-54436531D01*
X168690716Y-54441717D01*
X168848283Y-54599284D01*
X168852792Y-54602441D01*
X168852794Y-54602443D01*
X168904847Y-54638891D01*
X169030817Y-54727097D01*
X169035799Y-54729420D01*
X169035804Y-54729423D01*
X169217553Y-54814173D01*
X169232773Y-54821270D01*
X169238081Y-54822692D01*
X169238083Y-54822693D01*
X169266208Y-54830229D01*
X169448014Y-54878944D01*
X169670000Y-54898365D01*
X169891986Y-54878944D01*
X170073792Y-54830229D01*
X170101917Y-54822693D01*
X170101919Y-54822692D01*
X170107227Y-54821270D01*
X170122447Y-54814173D01*
X170304196Y-54729423D01*
X170304201Y-54729420D01*
X170309183Y-54727097D01*
X170435153Y-54638891D01*
X170487206Y-54602443D01*
X170487208Y-54602441D01*
X170491717Y-54599284D01*
X170649284Y-54441717D01*
X170652916Y-54436531D01*
X170707287Y-54358881D01*
X170777097Y-54259182D01*
X170779420Y-54254200D01*
X170779423Y-54254195D01*
X170825805Y-54154727D01*
X170872722Y-54101442D01*
X170940999Y-54081981D01*
X171008959Y-54102523D01*
X171054195Y-54154727D01*
X171100577Y-54254195D01*
X171100580Y-54254200D01*
X171102903Y-54259182D01*
X171172713Y-54358881D01*
X171227085Y-54436531D01*
X171230716Y-54441717D01*
X171388283Y-54599284D01*
X171392792Y-54602441D01*
X171392794Y-54602443D01*
X171444847Y-54638891D01*
X171570817Y-54727097D01*
X171575799Y-54729420D01*
X171575804Y-54729423D01*
X171757553Y-54814173D01*
X171772773Y-54821270D01*
X171778081Y-54822692D01*
X171778083Y-54822693D01*
X171806208Y-54830229D01*
X171988014Y-54878944D01*
X172210000Y-54898365D01*
X172431986Y-54878944D01*
X172613792Y-54830229D01*
X172641917Y-54822693D01*
X172641919Y-54822692D01*
X172647227Y-54821270D01*
X172662447Y-54814173D01*
X172844196Y-54729423D01*
X172844201Y-54729420D01*
X172849183Y-54727097D01*
X172975153Y-54638891D01*
X173027206Y-54602443D01*
X173027208Y-54602441D01*
X173031717Y-54599284D01*
X173189284Y-54441717D01*
X173192916Y-54436531D01*
X173247287Y-54358881D01*
X173317097Y-54259182D01*
X173319420Y-54254200D01*
X173319423Y-54254195D01*
X173408947Y-54062209D01*
X173408948Y-54062208D01*
X173411270Y-54057227D01*
X173468944Y-53841986D01*
X173488365Y-53620000D01*
X173468944Y-53398014D01*
X173411270Y-53182773D01*
X173365805Y-53085273D01*
X173319423Y-52985805D01*
X173319420Y-52985800D01*
X173317097Y-52980818D01*
X173195294Y-52806866D01*
X173192443Y-52802794D01*
X173192441Y-52802791D01*
X173189284Y-52798283D01*
X173031717Y-52640716D01*
X172997424Y-52616703D01*
X172951890Y-52584820D01*
X172849183Y-52512903D01*
X172844201Y-52510580D01*
X172844196Y-52510577D01*
X172744728Y-52464195D01*
X172691443Y-52417278D01*
X172671982Y-52349001D01*
X172692524Y-52281041D01*
X172744728Y-52235805D01*
X172844196Y-52189423D01*
X172844201Y-52189420D01*
X172849183Y-52187097D01*
X173031717Y-52059284D01*
X173189284Y-51901717D01*
X173317097Y-51719182D01*
X173319420Y-51714200D01*
X173319423Y-51714195D01*
X173408947Y-51522209D01*
X173408948Y-51522208D01*
X173411270Y-51517227D01*
X173468944Y-51301986D01*
X173488365Y-51080000D01*
X173468944Y-50858014D01*
X173411270Y-50642773D01*
X173365805Y-50545273D01*
X173319423Y-50445805D01*
X173319420Y-50445800D01*
X173317097Y-50440818D01*
X173189284Y-50258283D01*
X173031717Y-50100716D01*
X172849183Y-49972903D01*
X172844201Y-49970580D01*
X172844196Y-49970577D01*
X172652209Y-49881053D01*
X172652208Y-49881053D01*
X172647227Y-49878730D01*
X172641919Y-49877308D01*
X172641917Y-49877307D01*
X172575535Y-49859520D01*
X172431986Y-49821056D01*
X172210000Y-49801635D01*
X171988014Y-49821056D01*
X171844465Y-49859520D01*
X171778083Y-49877307D01*
X171778081Y-49877308D01*
X171772773Y-49878730D01*
X171767792Y-49881052D01*
X171767791Y-49881053D01*
X171575805Y-49970577D01*
X171575800Y-49970580D01*
X171570818Y-49972903D01*
X171388283Y-50100716D01*
X171230716Y-50258283D01*
X171102903Y-50440818D01*
X171100580Y-50445800D01*
X171100577Y-50445805D01*
X171054195Y-50545273D01*
X171007278Y-50598558D01*
X170939001Y-50618019D01*
X170871041Y-50597477D01*
X170825805Y-50545273D01*
X170779423Y-50445805D01*
X170779420Y-50445800D01*
X170777097Y-50440818D01*
X170649284Y-50258283D01*
X170491717Y-50100716D01*
X170309183Y-49972903D01*
X170304201Y-49970580D01*
X170304196Y-49970577D01*
X170112209Y-49881053D01*
X170112208Y-49881053D01*
X170107227Y-49878730D01*
X170101919Y-49877308D01*
X170101917Y-49877307D01*
X170035535Y-49859520D01*
X169891986Y-49821056D01*
X169670000Y-49801635D01*
X169448014Y-49821056D01*
X169304465Y-49859520D01*
X169238083Y-49877307D01*
X169238081Y-49877308D01*
X169232773Y-49878730D01*
X169227792Y-49881052D01*
X169227791Y-49881053D01*
X169035805Y-49970577D01*
X169035800Y-49970580D01*
X169030818Y-49972903D01*
X168848283Y-50100716D01*
X168690716Y-50258283D01*
X168562903Y-50440818D01*
X168560580Y-50445800D01*
X168560577Y-50445805D01*
X168514195Y-50545273D01*
X168467278Y-50598558D01*
X168399001Y-50618019D01*
X168331041Y-50597477D01*
X168285805Y-50545273D01*
X168239423Y-50445805D01*
X168239420Y-50445800D01*
X168237097Y-50440818D01*
X168109284Y-50258283D01*
X167951717Y-50100716D01*
X167769183Y-49972903D01*
X167764201Y-49970580D01*
X167764196Y-49970577D01*
X167572209Y-49881053D01*
X167572208Y-49881053D01*
X167567227Y-49878730D01*
X167561919Y-49877308D01*
X167561917Y-49877307D01*
X167495535Y-49859520D01*
X167351986Y-49821056D01*
X167130000Y-49801635D01*
X166908014Y-49821056D01*
X166764465Y-49859520D01*
X166698083Y-49877307D01*
X166698081Y-49877308D01*
X166692773Y-49878730D01*
X166687792Y-49881052D01*
X166687791Y-49881053D01*
X166495805Y-49970577D01*
X166495800Y-49970580D01*
X166490818Y-49972903D01*
X166308283Y-50100716D01*
X166150716Y-50258283D01*
X166022903Y-50440818D01*
X166020580Y-50445800D01*
X166020577Y-50445805D01*
X165974195Y-50545273D01*
X165927278Y-50598558D01*
X165859001Y-50618019D01*
X165791041Y-50597477D01*
X165745805Y-50545273D01*
X165699423Y-50445805D01*
X165699420Y-50445800D01*
X165697097Y-50440818D01*
X165569284Y-50258283D01*
X165411717Y-50100716D01*
X165229183Y-49972903D01*
X165224201Y-49970580D01*
X165224196Y-49970577D01*
X165032209Y-49881053D01*
X165032208Y-49881053D01*
X165027227Y-49878730D01*
X165021919Y-49877308D01*
X165021917Y-49877307D01*
X164955535Y-49859520D01*
X164811986Y-49821056D01*
X164590000Y-49801635D01*
X164368014Y-49821056D01*
X164224465Y-49859520D01*
X164158083Y-49877307D01*
X164158081Y-49877308D01*
X164152773Y-49878730D01*
X164147792Y-49881052D01*
X164147791Y-49881053D01*
X163955805Y-49970577D01*
X163955800Y-49970580D01*
X163950818Y-49972903D01*
X163768283Y-50100716D01*
X163610716Y-50258283D01*
X163482903Y-50440818D01*
X163480580Y-50445800D01*
X163480577Y-50445805D01*
X163434195Y-50545273D01*
X163387278Y-50598558D01*
X163319001Y-50618019D01*
X163251041Y-50597477D01*
X163205805Y-50545273D01*
X163159423Y-50445805D01*
X163159420Y-50445800D01*
X163157097Y-50440818D01*
X163029284Y-50258283D01*
X162871717Y-50100716D01*
X162689183Y-49972903D01*
X162684201Y-49970580D01*
X162684196Y-49970577D01*
X162492209Y-49881053D01*
X162492208Y-49881053D01*
X162487227Y-49878730D01*
X162481919Y-49877308D01*
X162481917Y-49877307D01*
X162415535Y-49859520D01*
X162271986Y-49821056D01*
X162050000Y-49801635D01*
X161828014Y-49821056D01*
X161684465Y-49859520D01*
X161618083Y-49877307D01*
X161618081Y-49877308D01*
X161612773Y-49878730D01*
X161607792Y-49881052D01*
X161607791Y-49881053D01*
X161415805Y-49970577D01*
X161415800Y-49970580D01*
X161410818Y-49972903D01*
X161228283Y-50100716D01*
X161070716Y-50258283D01*
X160942903Y-50440818D01*
X160940580Y-50445800D01*
X160940577Y-50445805D01*
X160894195Y-50545273D01*
X160847278Y-50598558D01*
X160779001Y-50618019D01*
X160711041Y-50597477D01*
X160665805Y-50545273D01*
X160619423Y-50445805D01*
X160619420Y-50445800D01*
X160617097Y-50440818D01*
X160489284Y-50258283D01*
X160331717Y-50100716D01*
X160149183Y-49972903D01*
X160144201Y-49970580D01*
X160144196Y-49970577D01*
X159952209Y-49881053D01*
X159952208Y-49881053D01*
X159947227Y-49878730D01*
X159941919Y-49877308D01*
X159941917Y-49877307D01*
X159875535Y-49859520D01*
X159731986Y-49821056D01*
X159510000Y-49801635D01*
X159288014Y-49821056D01*
X159144465Y-49859520D01*
X159078083Y-49877307D01*
X159078081Y-49877308D01*
X159072773Y-49878730D01*
X159067792Y-49881052D01*
X159067791Y-49881053D01*
X158875805Y-49970577D01*
X158875800Y-49970580D01*
X158870818Y-49972903D01*
X158688283Y-50100716D01*
X158530716Y-50258283D01*
X158402903Y-50440818D01*
X158400580Y-50445800D01*
X158400577Y-50445805D01*
X158354195Y-50545273D01*
X158307278Y-50598558D01*
X158239001Y-50618019D01*
X158171041Y-50597477D01*
X158125805Y-50545273D01*
X158079423Y-50445805D01*
X158079420Y-50445800D01*
X158077097Y-50440818D01*
X157949284Y-50258283D01*
X157791717Y-50100716D01*
X157609183Y-49972903D01*
X157604201Y-49970580D01*
X157604196Y-49970577D01*
X157412209Y-49881053D01*
X157412208Y-49881053D01*
X157407227Y-49878730D01*
X157401919Y-49877308D01*
X157401917Y-49877307D01*
X157335535Y-49859520D01*
X157191986Y-49821056D01*
X156970000Y-49801635D01*
X156748014Y-49821056D01*
X156604465Y-49859520D01*
X156538083Y-49877307D01*
X156538081Y-49877308D01*
X156532773Y-49878730D01*
X156527792Y-49881052D01*
X156527791Y-49881053D01*
X156335805Y-49970577D01*
X156335800Y-49970580D01*
X156330818Y-49972903D01*
X156148283Y-50100716D01*
X155990716Y-50258283D01*
X155862903Y-50440818D01*
X155860580Y-50445800D01*
X155860577Y-50445805D01*
X155814195Y-50545273D01*
X155767278Y-50598558D01*
X155699001Y-50618019D01*
X155631041Y-50597477D01*
X155585805Y-50545273D01*
X155539423Y-50445805D01*
X155539420Y-50445800D01*
X155537097Y-50440818D01*
X155409284Y-50258283D01*
X155251717Y-50100716D01*
X155069183Y-49972903D01*
X155064201Y-49970580D01*
X155064196Y-49970577D01*
X154872209Y-49881053D01*
X154872208Y-49881053D01*
X154867227Y-49878730D01*
X154861919Y-49877308D01*
X154861917Y-49877307D01*
X154795535Y-49859520D01*
X154651986Y-49821056D01*
X154430000Y-49801635D01*
X154208014Y-49821056D01*
X154064465Y-49859520D01*
X153998083Y-49877307D01*
X153998081Y-49877308D01*
X153992773Y-49878730D01*
X153987792Y-49881052D01*
X153987791Y-49881053D01*
X153795805Y-49970577D01*
X153795800Y-49970580D01*
X153790818Y-49972903D01*
X153608283Y-50100716D01*
X153450716Y-50258283D01*
X153322903Y-50440818D01*
X153320580Y-50445800D01*
X153320577Y-50445805D01*
X153274195Y-50545273D01*
X153227278Y-50598558D01*
X153159001Y-50618019D01*
X153091041Y-50597477D01*
X153045805Y-50545273D01*
X152999423Y-50445805D01*
X152999420Y-50445800D01*
X152997097Y-50440818D01*
X152869284Y-50258283D01*
X152711717Y-50100716D01*
X152529183Y-49972903D01*
X152524201Y-49970580D01*
X152524196Y-49970577D01*
X152332209Y-49881053D01*
X152332208Y-49881053D01*
X152327227Y-49878730D01*
X152321919Y-49877308D01*
X152321917Y-49877307D01*
X152255535Y-49859520D01*
X152111986Y-49821056D01*
X151890000Y-49801635D01*
X151668014Y-49821056D01*
X151524465Y-49859520D01*
X151458083Y-49877307D01*
X151458081Y-49877308D01*
X151452773Y-49878730D01*
X151447792Y-49881052D01*
X151447791Y-49881053D01*
X151255805Y-49970577D01*
X151255800Y-49970580D01*
X151250818Y-49972903D01*
X151068283Y-50100716D01*
X150910716Y-50258283D01*
X150782903Y-50440818D01*
X150780580Y-50445800D01*
X150780577Y-50445805D01*
X150734195Y-50545273D01*
X150687278Y-50598558D01*
X150619001Y-50618019D01*
X150551041Y-50597477D01*
X150505805Y-50545273D01*
X150459423Y-50445805D01*
X150459420Y-50445800D01*
X150457097Y-50440818D01*
X150329284Y-50258283D01*
X150171717Y-50100716D01*
X149989183Y-49972903D01*
X149984201Y-49970580D01*
X149984196Y-49970577D01*
X149792209Y-49881053D01*
X149792208Y-49881053D01*
X149787227Y-49878730D01*
X149781919Y-49877308D01*
X149781917Y-49877307D01*
X149715535Y-49859520D01*
X149571986Y-49821056D01*
X149350000Y-49801635D01*
X149128014Y-49821056D01*
X148984465Y-49859520D01*
X148918083Y-49877307D01*
X148918081Y-49877308D01*
X148912773Y-49878730D01*
X148907792Y-49881052D01*
X148907791Y-49881053D01*
X148715805Y-49970577D01*
X148715800Y-49970580D01*
X148710818Y-49972903D01*
X148528283Y-50100716D01*
X148370716Y-50258283D01*
X148242903Y-50440818D01*
X148240580Y-50445800D01*
X148240577Y-50445805D01*
X148194195Y-50545273D01*
X148147278Y-50598558D01*
X148079001Y-50618019D01*
X148011041Y-50597477D01*
X147965805Y-50545273D01*
X147919423Y-50445805D01*
X147919420Y-50445800D01*
X147917097Y-50440818D01*
X147789284Y-50258283D01*
X147631717Y-50100716D01*
X147449183Y-49972903D01*
X147444201Y-49970580D01*
X147444196Y-49970577D01*
X147252209Y-49881053D01*
X147252208Y-49881053D01*
X147247227Y-49878730D01*
X147241919Y-49877308D01*
X147241917Y-49877307D01*
X147175535Y-49859520D01*
X147031986Y-49821056D01*
X146810000Y-49801635D01*
X146588014Y-49821056D01*
X146444465Y-49859520D01*
X146378083Y-49877307D01*
X146378081Y-49877308D01*
X146372773Y-49878730D01*
X146367792Y-49881052D01*
X146367791Y-49881053D01*
X146175805Y-49970577D01*
X146175800Y-49970580D01*
X146170818Y-49972903D01*
X145988283Y-50100716D01*
X145830716Y-50258283D01*
X145702903Y-50440818D01*
X145700580Y-50445800D01*
X145700577Y-50445805D01*
X145654195Y-50545273D01*
X145607278Y-50598558D01*
X145539001Y-50618019D01*
X145471041Y-50597477D01*
X145425805Y-50545273D01*
X145379423Y-50445805D01*
X145379420Y-50445800D01*
X145377097Y-50440818D01*
X145249284Y-50258283D01*
X145091717Y-50100716D01*
X144909183Y-49972903D01*
X144904201Y-49970580D01*
X144904196Y-49970577D01*
X144712209Y-49881053D01*
X144712208Y-49881053D01*
X144707227Y-49878730D01*
X144701919Y-49877308D01*
X144701917Y-49877307D01*
X144635535Y-49859520D01*
X144491986Y-49821056D01*
X144270000Y-49801635D01*
X144048014Y-49821056D01*
X143904465Y-49859520D01*
X143838083Y-49877307D01*
X143838081Y-49877308D01*
X143832773Y-49878730D01*
X143827792Y-49881052D01*
X143827791Y-49881053D01*
X143635805Y-49970577D01*
X143635800Y-49970580D01*
X143630818Y-49972903D01*
X143448283Y-50100716D01*
X143290716Y-50258283D01*
X143162903Y-50440818D01*
X143160580Y-50445800D01*
X143160577Y-50445805D01*
X143114195Y-50545273D01*
X143067278Y-50598558D01*
X142999001Y-50618019D01*
X142931041Y-50597477D01*
X142885805Y-50545273D01*
X142839423Y-50445805D01*
X142839420Y-50445800D01*
X142837097Y-50440818D01*
X142709284Y-50258283D01*
X142551717Y-50100716D01*
X142369183Y-49972903D01*
X142364201Y-49970580D01*
X142364196Y-49970577D01*
X142172209Y-49881053D01*
X142172208Y-49881053D01*
X142167227Y-49878730D01*
X142161919Y-49877308D01*
X142161917Y-49877307D01*
X142095535Y-49859520D01*
X141951986Y-49821056D01*
X141730000Y-49801635D01*
X141508014Y-49821056D01*
X141364465Y-49859520D01*
X141298083Y-49877307D01*
X141298081Y-49877308D01*
X141292773Y-49878730D01*
X141287792Y-49881052D01*
X141287791Y-49881053D01*
X141095805Y-49970577D01*
X141095800Y-49970580D01*
X141090818Y-49972903D01*
X140908283Y-50100716D01*
X140750716Y-50258283D01*
X140622903Y-50440818D01*
X140620580Y-50445800D01*
X140620577Y-50445805D01*
X140574195Y-50545273D01*
X140527278Y-50598558D01*
X140459001Y-50618019D01*
X140391041Y-50597477D01*
X140345805Y-50545273D01*
X140299423Y-50445805D01*
X140299420Y-50445800D01*
X140297097Y-50440818D01*
X140169284Y-50258283D01*
X140011717Y-50100716D01*
X139829183Y-49972903D01*
X139824201Y-49970580D01*
X139824196Y-49970577D01*
X139632209Y-49881053D01*
X139632208Y-49881053D01*
X139627227Y-49878730D01*
X139621919Y-49877308D01*
X139621917Y-49877307D01*
X139555535Y-49859520D01*
X139411986Y-49821056D01*
X139190000Y-49801635D01*
X138968014Y-49821056D01*
X138824465Y-49859520D01*
X138758083Y-49877307D01*
X138758081Y-49877308D01*
X138752773Y-49878730D01*
X138747792Y-49881052D01*
X138747791Y-49881053D01*
X138555805Y-49970577D01*
X138555800Y-49970580D01*
X138550818Y-49972903D01*
X138368283Y-50100716D01*
X138210716Y-50258283D01*
X138082903Y-50440818D01*
X138080580Y-50445800D01*
X138080577Y-50445805D01*
X138034195Y-50545273D01*
X137987278Y-50598558D01*
X137919001Y-50618019D01*
X137851041Y-50597477D01*
X137805805Y-50545273D01*
X137759423Y-50445805D01*
X137759420Y-50445800D01*
X137757097Y-50440818D01*
X137629284Y-50258283D01*
X137471717Y-50100716D01*
X137289183Y-49972903D01*
X137284201Y-49970580D01*
X137284196Y-49970577D01*
X137092209Y-49881053D01*
X137092208Y-49881053D01*
X137087227Y-49878730D01*
X137081919Y-49877308D01*
X137081917Y-49877307D01*
X137015535Y-49859520D01*
X136871986Y-49821056D01*
X136650000Y-49801635D01*
X136428014Y-49821056D01*
X136284465Y-49859520D01*
X136218083Y-49877307D01*
X136218081Y-49877308D01*
X136212773Y-49878730D01*
X136207792Y-49881052D01*
X136207791Y-49881053D01*
X136015805Y-49970577D01*
X136015800Y-49970580D01*
X136010818Y-49972903D01*
X135828283Y-50100716D01*
X135670716Y-50258283D01*
X135542903Y-50440818D01*
X135540580Y-50445800D01*
X135540577Y-50445805D01*
X135494195Y-50545273D01*
X135447278Y-50598558D01*
X135379001Y-50618019D01*
X135311041Y-50597477D01*
X135265805Y-50545273D01*
X135219423Y-50445805D01*
X135219420Y-50445800D01*
X135217097Y-50440818D01*
X135089284Y-50258283D01*
X134931717Y-50100716D01*
X134749183Y-49972903D01*
X134744201Y-49970580D01*
X134744196Y-49970577D01*
X134552209Y-49881053D01*
X134552208Y-49881053D01*
X134547227Y-49878730D01*
X134541919Y-49877308D01*
X134541917Y-49877307D01*
X134475535Y-49859520D01*
X134331986Y-49821056D01*
X134110000Y-49801635D01*
X133888014Y-49821056D01*
X133744465Y-49859520D01*
X133678083Y-49877307D01*
X133678081Y-49877308D01*
X133672773Y-49878730D01*
X133667792Y-49881052D01*
X133667791Y-49881053D01*
X133475805Y-49970577D01*
X133475800Y-49970580D01*
X133470818Y-49972903D01*
X133288283Y-50100716D01*
X133130716Y-50258283D01*
X133002903Y-50440818D01*
X133000580Y-50445800D01*
X133000577Y-50445805D01*
X132954195Y-50545273D01*
X132907278Y-50598558D01*
X132839001Y-50618019D01*
X132771041Y-50597477D01*
X132725805Y-50545273D01*
X132679423Y-50445805D01*
X132679420Y-50445800D01*
X132677097Y-50440818D01*
X132549284Y-50258283D01*
X132391717Y-50100716D01*
X132209183Y-49972903D01*
X132204201Y-49970580D01*
X132204196Y-49970577D01*
X132012209Y-49881053D01*
X132012208Y-49881053D01*
X132007227Y-49878730D01*
X132001919Y-49877308D01*
X132001917Y-49877307D01*
X131935535Y-49859520D01*
X131791986Y-49821056D01*
X131570000Y-49801635D01*
X131348014Y-49821056D01*
X131204465Y-49859520D01*
X131138083Y-49877307D01*
X131138081Y-49877308D01*
X131132773Y-49878730D01*
X131127792Y-49881052D01*
X131127791Y-49881053D01*
X130935805Y-49970577D01*
X130935800Y-49970580D01*
X130930818Y-49972903D01*
X130748283Y-50100716D01*
X130590716Y-50258283D01*
X130462903Y-50440818D01*
X130460580Y-50445800D01*
X130460577Y-50445805D01*
X130414195Y-50545273D01*
X130367278Y-50598558D01*
X130299001Y-50618019D01*
X130231041Y-50597477D01*
X130185805Y-50545273D01*
X130139423Y-50445805D01*
X130139420Y-50445800D01*
X130137097Y-50440818D01*
X130009284Y-50258283D01*
X129851717Y-50100716D01*
X129669183Y-49972903D01*
X129664201Y-49970580D01*
X129664196Y-49970577D01*
X129472209Y-49881053D01*
X129472208Y-49881053D01*
X129467227Y-49878730D01*
X129461919Y-49877308D01*
X129461917Y-49877307D01*
X129395535Y-49859520D01*
X129251986Y-49821056D01*
X129030000Y-49801635D01*
X128808014Y-49821056D01*
X128664465Y-49859520D01*
X128598083Y-49877307D01*
X128598081Y-49877308D01*
X128592773Y-49878730D01*
X128587792Y-49881052D01*
X128587791Y-49881053D01*
X128395805Y-49970577D01*
X128395800Y-49970580D01*
X128390818Y-49972903D01*
X128208283Y-50100716D01*
X128050716Y-50258283D01*
X127922903Y-50440818D01*
X127920580Y-50445800D01*
X127920577Y-50445805D01*
X127874195Y-50545273D01*
X127827278Y-50598558D01*
X127759001Y-50618019D01*
X127691041Y-50597477D01*
X127645805Y-50545273D01*
X127599423Y-50445805D01*
X127599420Y-50445800D01*
X127597097Y-50440818D01*
X127469284Y-50258283D01*
X127311717Y-50100716D01*
X127129183Y-49972903D01*
X127124201Y-49970580D01*
X127124196Y-49970577D01*
X126932209Y-49881053D01*
X126932208Y-49881053D01*
X126927227Y-49878730D01*
X126921919Y-49877308D01*
X126921917Y-49877307D01*
X126855535Y-49859520D01*
X126711986Y-49821056D01*
X126490000Y-49801635D01*
X126268014Y-49821056D01*
X126124465Y-49859520D01*
X126058083Y-49877307D01*
X126058081Y-49877308D01*
X126052773Y-49878730D01*
X126047792Y-49881052D01*
X126047791Y-49881053D01*
X125855805Y-49970577D01*
X125855800Y-49970580D01*
X125850818Y-49972903D01*
X125668283Y-50100716D01*
X125510716Y-50258283D01*
X125382903Y-50440818D01*
X125380580Y-50445800D01*
X125380577Y-50445805D01*
X125334195Y-50545273D01*
X125288730Y-50642773D01*
X125231056Y-50858014D01*
X125211635Y-51080000D01*
X125231056Y-51301986D01*
X125288730Y-51517227D01*
X125291052Y-51522208D01*
X125291053Y-51522209D01*
X125380577Y-51714195D01*
X125380580Y-51714200D01*
X125382903Y-51719182D01*
X125510716Y-51901717D01*
X125668283Y-52059284D01*
X125672792Y-52062441D01*
X125672794Y-52062443D01*
X125751119Y-52117287D01*
X125795447Y-52172745D01*
X125802756Y-52243364D01*
X125770725Y-52306724D01*
X125709523Y-52342709D01*
X125683658Y-52345906D01*
X125683680Y-52346316D01*
X125680282Y-52346500D01*
X125676866Y-52346500D01*
X125614684Y-52353255D01*
X125478295Y-52404385D01*
X125361739Y-52491739D01*
X125274385Y-52608295D01*
X125223255Y-52744684D01*
X125216500Y-52806866D01*
X125216500Y-54433134D01*
X125223255Y-54495316D01*
X125274385Y-54631705D01*
X125361739Y-54748261D01*
X125478295Y-54835615D01*
X125614684Y-54886745D01*
X125670560Y-54892815D01*
X125673221Y-54893104D01*
X125676866Y-54893500D01*
X127303134Y-54893500D01*
X127306780Y-54893104D01*
X127309440Y-54892815D01*
X127365316Y-54886745D01*
X127501705Y-54835615D01*
X127618261Y-54748261D01*
X127705615Y-54631705D01*
X127756745Y-54495316D01*
X127763500Y-54433134D01*
X127763500Y-54429717D01*
X127763684Y-54426320D01*
X127764899Y-54426386D01*
X127783502Y-54363031D01*
X127837158Y-54316538D01*
X127907432Y-54306434D01*
X127972012Y-54335928D01*
X127992713Y-54358881D01*
X128047085Y-54436531D01*
X128050716Y-54441717D01*
X128208283Y-54599284D01*
X128212792Y-54602441D01*
X128212794Y-54602443D01*
X128367771Y-54710960D01*
X128412099Y-54766418D01*
X128421500Y-54814173D01*
X128421500Y-55985761D01*
X128401498Y-56053882D01*
X128384595Y-56074856D01*
X126953766Y-57505685D01*
X126941375Y-57516552D01*
X126916013Y-57536013D01*
X126891526Y-57567925D01*
X126891523Y-57567928D01*
X126818476Y-57663124D01*
X126818476Y-57663125D01*
X126812435Y-57677710D01*
X126812434Y-57677711D01*
X126805978Y-57693298D01*
X126757162Y-57811150D01*
X126741500Y-57930115D01*
X126741500Y-57930120D01*
X126736250Y-57970000D01*
X126737328Y-57978188D01*
X126740422Y-58001690D01*
X126741500Y-58018136D01*
X126741500Y-72141864D01*
X126740422Y-72158307D01*
X126736250Y-72190000D01*
X126741500Y-72229880D01*
X126741500Y-72229885D01*
X126752953Y-72316876D01*
X126757162Y-72348851D01*
X126760321Y-72356477D01*
X126760321Y-72356478D01*
X126776777Y-72396206D01*
X126818476Y-72496876D01*
X126823503Y-72503427D01*
X126823504Y-72503429D01*
X126891520Y-72592069D01*
X126891526Y-72592075D01*
X126916013Y-72623987D01*
X126922568Y-72629017D01*
X126941379Y-72643452D01*
X126953770Y-72654319D01*
X128823854Y-74524403D01*
X128857880Y-74586715D01*
X128860759Y-74613498D01*
X128860759Y-77631864D01*
X128859681Y-77648307D01*
X128855509Y-77680000D01*
X128860759Y-77719880D01*
X128860759Y-77719885D01*
X128873868Y-77819457D01*
X128876421Y-77838851D01*
X128937735Y-77986876D01*
X128942762Y-77993427D01*
X128942763Y-77993429D01*
X129010779Y-78082069D01*
X129010785Y-78082075D01*
X129035272Y-78113987D01*
X129041827Y-78119017D01*
X129060638Y-78133452D01*
X129073029Y-78144319D01*
X130933146Y-80004436D01*
X130967172Y-80066748D01*
X130962107Y-80137563D01*
X130937688Y-80177840D01*
X130860960Y-80263056D01*
X130765473Y-80428444D01*
X130706458Y-80610072D01*
X130705768Y-80616633D01*
X130705768Y-80616635D01*
X130696597Y-80703891D01*
X130686496Y-80800000D01*
X130686684Y-80801786D01*
X130667184Y-80868196D01*
X130650281Y-80889170D01*
X129648766Y-81890685D01*
X129636375Y-81901552D01*
X129611013Y-81921013D01*
X129586526Y-81952925D01*
X129586523Y-81952928D01*
X129586517Y-81952936D01*
X129542642Y-82010115D01*
X129513476Y-82048124D01*
X129452162Y-82196149D01*
X129452162Y-82196150D01*
X129436500Y-82315115D01*
X129436500Y-82315120D01*
X129431250Y-82355000D01*
X129432328Y-82363188D01*
X129435422Y-82386690D01*
X129436500Y-82403136D01*
X129436500Y-101208678D01*
X129416498Y-101276799D01*
X129368683Y-101320439D01*
X129318607Y-101346507D01*
X129314474Y-101349610D01*
X129314471Y-101349612D01*
X129231450Y-101411946D01*
X129139965Y-101480635D01*
X128985629Y-101642138D01*
X128878201Y-101799621D01*
X128823293Y-101844621D01*
X128752768Y-101852792D01*
X128689021Y-101821538D01*
X128668324Y-101797054D01*
X128587822Y-101672617D01*
X128587820Y-101672614D01*
X128585014Y-101668277D01*
X128434670Y-101503051D01*
X128430619Y-101499852D01*
X128430615Y-101499848D01*
X128263414Y-101367800D01*
X128263410Y-101367798D01*
X128259359Y-101364598D01*
X128063789Y-101256638D01*
X128058920Y-101254914D01*
X128058916Y-101254912D01*
X127858087Y-101183795D01*
X127858083Y-101183794D01*
X127853212Y-101182069D01*
X127848119Y-101181162D01*
X127848116Y-101181161D01*
X127638373Y-101143800D01*
X127638367Y-101143799D01*
X127633284Y-101142894D01*
X127559452Y-101141992D01*
X127415081Y-101140228D01*
X127415079Y-101140228D01*
X127409911Y-101140165D01*
X127189091Y-101173955D01*
X126976756Y-101243357D01*
X126946443Y-101259137D01*
X126833340Y-101318015D01*
X126778607Y-101346507D01*
X126774474Y-101349610D01*
X126774471Y-101349612D01*
X126691450Y-101411946D01*
X126599965Y-101480635D01*
X126445629Y-101642138D01*
X126338201Y-101799621D01*
X126283293Y-101844621D01*
X126212768Y-101852792D01*
X126149021Y-101821538D01*
X126128324Y-101797054D01*
X126047822Y-101672617D01*
X126047820Y-101672614D01*
X126045014Y-101668277D01*
X125894670Y-101503051D01*
X125890619Y-101499852D01*
X125890615Y-101499848D01*
X125723414Y-101367800D01*
X125723410Y-101367798D01*
X125719359Y-101364598D01*
X125523789Y-101256638D01*
X125518920Y-101254914D01*
X125518916Y-101254912D01*
X125318087Y-101183795D01*
X125318083Y-101183794D01*
X125313212Y-101182069D01*
X125308119Y-101181162D01*
X125308116Y-101181161D01*
X125098373Y-101143800D01*
X125098367Y-101143799D01*
X125093284Y-101142894D01*
X125019452Y-101141992D01*
X124875081Y-101140228D01*
X124875079Y-101140228D01*
X124869911Y-101140165D01*
X124649091Y-101173955D01*
X124436756Y-101243357D01*
X124406443Y-101259137D01*
X124293340Y-101318015D01*
X124238607Y-101346507D01*
X124234474Y-101349610D01*
X124234471Y-101349612D01*
X124151450Y-101411946D01*
X124059965Y-101480635D01*
X124056393Y-101484373D01*
X123978898Y-101565466D01*
X123917374Y-101600895D01*
X123846462Y-101597438D01*
X123788676Y-101556192D01*
X123769823Y-101522644D01*
X123728324Y-101411946D01*
X123719786Y-101396351D01*
X123643285Y-101294276D01*
X123630724Y-101281715D01*
X123528649Y-101205214D01*
X123513054Y-101196676D01*
X123392606Y-101151522D01*
X123377351Y-101147895D01*
X123326486Y-101142369D01*
X123319672Y-101142000D01*
X122697115Y-101142000D01*
X122681876Y-101146475D01*
X122680671Y-101147865D01*
X122679000Y-101155548D01*
X122679000Y-103839884D01*
X122683475Y-103855123D01*
X122684865Y-103856328D01*
X122692548Y-103857999D01*
X123319669Y-103857999D01*
X123326490Y-103857629D01*
X123377352Y-103852105D01*
X123392604Y-103848479D01*
X123513054Y-103803324D01*
X123528649Y-103794786D01*
X123630724Y-103718285D01*
X123643285Y-103705724D01*
X123719786Y-103603649D01*
X123728324Y-103588054D01*
X123769225Y-103478952D01*
X123811867Y-103422188D01*
X123878428Y-103397488D01*
X123947777Y-103412696D01*
X123982444Y-103440684D01*
X124007865Y-103470031D01*
X124007869Y-103470035D01*
X124011250Y-103473938D01*
X124183126Y-103616632D01*
X124376000Y-103729338D01*
X124584692Y-103809030D01*
X124589760Y-103810061D01*
X124589763Y-103810062D01*
X124697017Y-103831883D01*
X124803597Y-103853567D01*
X124808772Y-103853757D01*
X124808774Y-103853757D01*
X125021673Y-103861564D01*
X125021677Y-103861564D01*
X125026837Y-103861753D01*
X125031957Y-103861097D01*
X125031959Y-103861097D01*
X125243288Y-103834025D01*
X125243289Y-103834025D01*
X125248416Y-103833368D01*
X125253366Y-103831883D01*
X125457429Y-103770661D01*
X125457434Y-103770659D01*
X125462384Y-103769174D01*
X125662994Y-103670896D01*
X125844860Y-103541173D01*
X126003096Y-103383489D01*
X126133453Y-103202077D01*
X126134776Y-103203028D01*
X126181645Y-103159857D01*
X126251580Y-103147625D01*
X126317026Y-103175144D01*
X126344875Y-103206994D01*
X126404987Y-103305088D01*
X126551250Y-103473938D01*
X126723126Y-103616632D01*
X126916000Y-103729338D01*
X127124692Y-103809030D01*
X127129760Y-103810061D01*
X127129763Y-103810062D01*
X127237017Y-103831883D01*
X127343597Y-103853567D01*
X127348772Y-103853757D01*
X127348774Y-103853757D01*
X127561673Y-103861564D01*
X127561677Y-103861564D01*
X127566837Y-103861753D01*
X127571957Y-103861097D01*
X127571959Y-103861097D01*
X127783288Y-103834025D01*
X127783289Y-103834025D01*
X127788416Y-103833368D01*
X127793366Y-103831883D01*
X127997429Y-103770661D01*
X127997434Y-103770659D01*
X128002384Y-103769174D01*
X128202994Y-103670896D01*
X128384860Y-103541173D01*
X128543096Y-103383489D01*
X128673453Y-103202077D01*
X128674776Y-103203028D01*
X128721645Y-103159857D01*
X128791580Y-103147625D01*
X128857026Y-103175144D01*
X128884875Y-103206994D01*
X128944987Y-103305088D01*
X129091250Y-103473938D01*
X129263126Y-103616632D01*
X129456000Y-103729338D01*
X129664692Y-103809030D01*
X129669760Y-103810061D01*
X129669763Y-103810062D01*
X129777017Y-103831883D01*
X129883597Y-103853567D01*
X129888772Y-103853757D01*
X129888774Y-103853757D01*
X130101673Y-103861564D01*
X130101677Y-103861564D01*
X130106837Y-103861753D01*
X130111957Y-103861097D01*
X130111959Y-103861097D01*
X130323288Y-103834025D01*
X130323289Y-103834025D01*
X130328416Y-103833368D01*
X130333366Y-103831883D01*
X130537429Y-103770661D01*
X130537434Y-103770659D01*
X130542384Y-103769174D01*
X130742994Y-103670896D01*
X130924860Y-103541173D01*
X131083096Y-103383489D01*
X131213453Y-103202077D01*
X131214776Y-103203028D01*
X131261645Y-103159857D01*
X131331580Y-103147625D01*
X131397026Y-103175144D01*
X131424875Y-103206994D01*
X131484987Y-103305088D01*
X131631250Y-103473938D01*
X131803126Y-103616632D01*
X131996000Y-103729338D01*
X132204692Y-103809030D01*
X132209760Y-103810061D01*
X132209763Y-103810062D01*
X132317017Y-103831883D01*
X132423597Y-103853567D01*
X132428772Y-103853757D01*
X132428774Y-103853757D01*
X132641673Y-103861564D01*
X132641677Y-103861564D01*
X132646837Y-103861753D01*
X132651957Y-103861097D01*
X132651959Y-103861097D01*
X132863288Y-103834025D01*
X132863289Y-103834025D01*
X132868416Y-103833368D01*
X132873366Y-103831883D01*
X133077429Y-103770661D01*
X133077434Y-103770659D01*
X133082384Y-103769174D01*
X133282994Y-103670896D01*
X133464860Y-103541173D01*
X133623096Y-103383489D01*
X133753453Y-103202077D01*
X133754776Y-103203028D01*
X133801645Y-103159857D01*
X133871580Y-103147625D01*
X133937026Y-103175144D01*
X133964875Y-103206994D01*
X134024987Y-103305088D01*
X134171250Y-103473938D01*
X134343126Y-103616632D01*
X134536000Y-103729338D01*
X134744692Y-103809030D01*
X134749760Y-103810061D01*
X134749763Y-103810062D01*
X134857017Y-103831883D01*
X134963597Y-103853567D01*
X134968772Y-103853757D01*
X134968774Y-103853757D01*
X135181673Y-103861564D01*
X135181677Y-103861564D01*
X135186837Y-103861753D01*
X135191957Y-103861097D01*
X135191959Y-103861097D01*
X135403288Y-103834025D01*
X135403289Y-103834025D01*
X135408416Y-103833368D01*
X135413366Y-103831883D01*
X135617429Y-103770661D01*
X135617434Y-103770659D01*
X135622384Y-103769174D01*
X135822994Y-103670896D01*
X136004860Y-103541173D01*
X136163096Y-103383489D01*
X136293453Y-103202077D01*
X136294776Y-103203028D01*
X136341645Y-103159857D01*
X136411580Y-103147625D01*
X136477026Y-103175144D01*
X136504875Y-103206994D01*
X136564987Y-103305088D01*
X136711250Y-103473938D01*
X136883126Y-103616632D01*
X137076000Y-103729338D01*
X137284692Y-103809030D01*
X137289760Y-103810061D01*
X137289763Y-103810062D01*
X137397017Y-103831883D01*
X137503597Y-103853567D01*
X137508772Y-103853757D01*
X137508774Y-103853757D01*
X137721673Y-103861564D01*
X137721677Y-103861564D01*
X137726837Y-103861753D01*
X137731957Y-103861097D01*
X137731959Y-103861097D01*
X137943288Y-103834025D01*
X137943289Y-103834025D01*
X137948416Y-103833368D01*
X137953366Y-103831883D01*
X138157429Y-103770661D01*
X138157434Y-103770659D01*
X138162384Y-103769174D01*
X138362994Y-103670896D01*
X138544860Y-103541173D01*
X138703096Y-103383489D01*
X138833453Y-103202077D01*
X138834776Y-103203028D01*
X138881645Y-103159857D01*
X138951580Y-103147625D01*
X139017026Y-103175144D01*
X139044875Y-103206994D01*
X139104987Y-103305088D01*
X139251250Y-103473938D01*
X139423126Y-103616632D01*
X139616000Y-103729338D01*
X139824692Y-103809030D01*
X139829760Y-103810061D01*
X139829763Y-103810062D01*
X139937017Y-103831883D01*
X140043597Y-103853567D01*
X140048772Y-103853757D01*
X140048774Y-103853757D01*
X140261673Y-103861564D01*
X140261677Y-103861564D01*
X140266837Y-103861753D01*
X140271957Y-103861097D01*
X140271959Y-103861097D01*
X140483288Y-103834025D01*
X140483289Y-103834025D01*
X140488416Y-103833368D01*
X140493366Y-103831883D01*
X140697429Y-103770661D01*
X140697434Y-103770659D01*
X140702384Y-103769174D01*
X140902994Y-103670896D01*
X141084860Y-103541173D01*
X141243096Y-103383489D01*
X141373453Y-103202077D01*
X141374776Y-103203028D01*
X141421645Y-103159857D01*
X141491580Y-103147625D01*
X141557026Y-103175144D01*
X141584875Y-103206994D01*
X141644987Y-103305088D01*
X141791250Y-103473938D01*
X141963126Y-103616632D01*
X142156000Y-103729338D01*
X142364692Y-103809030D01*
X142369760Y-103810061D01*
X142369763Y-103810062D01*
X142477017Y-103831883D01*
X142583597Y-103853567D01*
X142588772Y-103853757D01*
X142588774Y-103853757D01*
X142801673Y-103861564D01*
X142801677Y-103861564D01*
X142806837Y-103861753D01*
X142811957Y-103861097D01*
X142811959Y-103861097D01*
X143023288Y-103834025D01*
X143023289Y-103834025D01*
X143028416Y-103833368D01*
X143033366Y-103831883D01*
X143237429Y-103770661D01*
X143237434Y-103770659D01*
X143242384Y-103769174D01*
X143442994Y-103670896D01*
X143624860Y-103541173D01*
X143783096Y-103383489D01*
X143913453Y-103202077D01*
X143914776Y-103203028D01*
X143961645Y-103159857D01*
X144031580Y-103147625D01*
X144097026Y-103175144D01*
X144124875Y-103206994D01*
X144184987Y-103305088D01*
X144331250Y-103473938D01*
X144503126Y-103616632D01*
X144696000Y-103729338D01*
X144904692Y-103809030D01*
X144909760Y-103810061D01*
X144909763Y-103810062D01*
X145017017Y-103831883D01*
X145123597Y-103853567D01*
X145128772Y-103853757D01*
X145128774Y-103853757D01*
X145341673Y-103861564D01*
X145341677Y-103861564D01*
X145346837Y-103861753D01*
X145351957Y-103861097D01*
X145351959Y-103861097D01*
X145563288Y-103834025D01*
X145563289Y-103834025D01*
X145568416Y-103833368D01*
X145573366Y-103831883D01*
X145777429Y-103770661D01*
X145777434Y-103770659D01*
X145782384Y-103769174D01*
X145982994Y-103670896D01*
X146164860Y-103541173D01*
X146323096Y-103383489D01*
X146453453Y-103202077D01*
X146454776Y-103203028D01*
X146501645Y-103159857D01*
X146571580Y-103147625D01*
X146637026Y-103175144D01*
X146664875Y-103206994D01*
X146724987Y-103305088D01*
X146871250Y-103473938D01*
X147043126Y-103616632D01*
X147236000Y-103729338D01*
X147444692Y-103809030D01*
X147449760Y-103810061D01*
X147449763Y-103810062D01*
X147557017Y-103831883D01*
X147663597Y-103853567D01*
X147668772Y-103853757D01*
X147668774Y-103853757D01*
X147881673Y-103861564D01*
X147881677Y-103861564D01*
X147886837Y-103861753D01*
X147891957Y-103861097D01*
X147891959Y-103861097D01*
X148103288Y-103834025D01*
X148103289Y-103834025D01*
X148108416Y-103833368D01*
X148113366Y-103831883D01*
X148317429Y-103770661D01*
X148317434Y-103770659D01*
X148322384Y-103769174D01*
X148522994Y-103670896D01*
X148704860Y-103541173D01*
X148863096Y-103383489D01*
X148993453Y-103202077D01*
X148994776Y-103203028D01*
X149041645Y-103159857D01*
X149111580Y-103147625D01*
X149177026Y-103175144D01*
X149204875Y-103206994D01*
X149264987Y-103305088D01*
X149411250Y-103473938D01*
X149583126Y-103616632D01*
X149776000Y-103729338D01*
X149984692Y-103809030D01*
X149989760Y-103810061D01*
X149989763Y-103810062D01*
X150097017Y-103831883D01*
X150203597Y-103853567D01*
X150208772Y-103853757D01*
X150208774Y-103853757D01*
X150421673Y-103861564D01*
X150421677Y-103861564D01*
X150426837Y-103861753D01*
X150431957Y-103861097D01*
X150431959Y-103861097D01*
X150643288Y-103834025D01*
X150643289Y-103834025D01*
X150648416Y-103833368D01*
X150653366Y-103831883D01*
X150857429Y-103770661D01*
X150857434Y-103770659D01*
X150862384Y-103769174D01*
X151062994Y-103670896D01*
X151244860Y-103541173D01*
X151403096Y-103383489D01*
X151533453Y-103202077D01*
X151534776Y-103203028D01*
X151581645Y-103159857D01*
X151651580Y-103147625D01*
X151717026Y-103175144D01*
X151744875Y-103206994D01*
X151804987Y-103305088D01*
X151951250Y-103473938D01*
X152123126Y-103616632D01*
X152316000Y-103729338D01*
X152524692Y-103809030D01*
X152529760Y-103810061D01*
X152529763Y-103810062D01*
X152637017Y-103831883D01*
X152743597Y-103853567D01*
X152748772Y-103853757D01*
X152748774Y-103853757D01*
X152961673Y-103861564D01*
X152961677Y-103861564D01*
X152966837Y-103861753D01*
X152971957Y-103861097D01*
X152971959Y-103861097D01*
X153183288Y-103834025D01*
X153183289Y-103834025D01*
X153188416Y-103833368D01*
X153193366Y-103831883D01*
X153397429Y-103770661D01*
X153397434Y-103770659D01*
X153402384Y-103769174D01*
X153602994Y-103670896D01*
X153784860Y-103541173D01*
X153943096Y-103383489D01*
X154073453Y-103202077D01*
X154074776Y-103203028D01*
X154121645Y-103159857D01*
X154191580Y-103147625D01*
X154257026Y-103175144D01*
X154284875Y-103206994D01*
X154344987Y-103305088D01*
X154491250Y-103473938D01*
X154663126Y-103616632D01*
X154856000Y-103729338D01*
X155064692Y-103809030D01*
X155069760Y-103810061D01*
X155069763Y-103810062D01*
X155177017Y-103831883D01*
X155283597Y-103853567D01*
X155288772Y-103853757D01*
X155288774Y-103853757D01*
X155501673Y-103861564D01*
X155501677Y-103861564D01*
X155506837Y-103861753D01*
X155511957Y-103861097D01*
X155511959Y-103861097D01*
X155723288Y-103834025D01*
X155723289Y-103834025D01*
X155728416Y-103833368D01*
X155733366Y-103831883D01*
X155937429Y-103770661D01*
X155937434Y-103770659D01*
X155942384Y-103769174D01*
X156142994Y-103670896D01*
X156324860Y-103541173D01*
X156483096Y-103383489D01*
X156613453Y-103202077D01*
X156614776Y-103203028D01*
X156661645Y-103159857D01*
X156731580Y-103147625D01*
X156797026Y-103175144D01*
X156824875Y-103206994D01*
X156884987Y-103305088D01*
X157031250Y-103473938D01*
X157203126Y-103616632D01*
X157396000Y-103729338D01*
X157604692Y-103809030D01*
X157609760Y-103810061D01*
X157609763Y-103810062D01*
X157717017Y-103831883D01*
X157823597Y-103853567D01*
X157828772Y-103853757D01*
X157828774Y-103853757D01*
X158041673Y-103861564D01*
X158041677Y-103861564D01*
X158046837Y-103861753D01*
X158051957Y-103861097D01*
X158051959Y-103861097D01*
X158263288Y-103834025D01*
X158263289Y-103834025D01*
X158268416Y-103833368D01*
X158273366Y-103831883D01*
X158477429Y-103770661D01*
X158477434Y-103770659D01*
X158482384Y-103769174D01*
X158682994Y-103670896D01*
X158864860Y-103541173D01*
X159023096Y-103383489D01*
X159153453Y-103202077D01*
X159174320Y-103159857D01*
X159250136Y-103006453D01*
X159250137Y-103006451D01*
X159252430Y-103001811D01*
X159317370Y-102788069D01*
X159346529Y-102566590D01*
X159348156Y-102500000D01*
X159329852Y-102277361D01*
X159275431Y-102060702D01*
X159186354Y-101855840D01*
X159065014Y-101668277D01*
X158914670Y-101503051D01*
X158910619Y-101499852D01*
X158910615Y-101499848D01*
X158743414Y-101367800D01*
X158743410Y-101367798D01*
X158739359Y-101364598D01*
X158543789Y-101256638D01*
X158538920Y-101254914D01*
X158538916Y-101254912D01*
X158338087Y-101183795D01*
X158338083Y-101183794D01*
X158333212Y-101182069D01*
X158328119Y-101181162D01*
X158328116Y-101181161D01*
X158118373Y-101143800D01*
X158118367Y-101143799D01*
X158113284Y-101142894D01*
X158039452Y-101141992D01*
X157895081Y-101140228D01*
X157895079Y-101140228D01*
X157889911Y-101140165D01*
X157759530Y-101160116D01*
X157674200Y-101173173D01*
X157674197Y-101173174D01*
X157669091Y-101173955D01*
X157664176Y-101175562D01*
X157664174Y-101175562D01*
X157629890Y-101186768D01*
X157558927Y-101188921D01*
X157501648Y-101156099D01*
X151999315Y-95653766D01*
X151988448Y-95641375D01*
X151974013Y-95622563D01*
X151968987Y-95616013D01*
X151937075Y-95591526D01*
X151937072Y-95591523D01*
X151841876Y-95518476D01*
X151693851Y-95457162D01*
X151685664Y-95456084D01*
X151685663Y-95456084D01*
X151674458Y-95454609D01*
X151643262Y-95450502D01*
X151574885Y-95441500D01*
X151574882Y-95441500D01*
X151574874Y-95441499D01*
X151543189Y-95437328D01*
X151535000Y-95436250D01*
X151503307Y-95440422D01*
X151486864Y-95441500D01*
X142554239Y-95441500D01*
X142486118Y-95421498D01*
X142465144Y-95404595D01*
X139845405Y-92784856D01*
X139811379Y-92722544D01*
X139808500Y-92695761D01*
X139808500Y-89054239D01*
X139828502Y-88986118D01*
X139845405Y-88965144D01*
X142196234Y-86614315D01*
X142208625Y-86603448D01*
X142227437Y-86589013D01*
X142233987Y-86583987D01*
X142258474Y-86552075D01*
X142258477Y-86552072D01*
X142331523Y-86456876D01*
X142331524Y-86456875D01*
X142392838Y-86308850D01*
X142408500Y-86189885D01*
X142408500Y-86189878D01*
X142413750Y-86150000D01*
X142409578Y-86118307D01*
X142408500Y-86101864D01*
X142408500Y-75876695D01*
X143687251Y-75876695D01*
X143687548Y-75881848D01*
X143687548Y-75881851D01*
X143693011Y-75976590D01*
X143700110Y-76099715D01*
X143701247Y-76104761D01*
X143701248Y-76104767D01*
X143711107Y-76148514D01*
X143749222Y-76317639D01*
X143787461Y-76411811D01*
X143827161Y-76509580D01*
X143833266Y-76524616D01*
X143949987Y-76715088D01*
X144096250Y-76883938D01*
X144100230Y-76887242D01*
X144104981Y-76891187D01*
X144144616Y-76950090D01*
X144146113Y-77021071D01*
X144108997Y-77081593D01*
X144068725Y-77106112D01*
X143972751Y-77142091D01*
X143953295Y-77149385D01*
X143836739Y-77236739D01*
X143749385Y-77353295D01*
X143698255Y-77489684D01*
X143691500Y-77551866D01*
X143691500Y-79348134D01*
X143698255Y-79410316D01*
X143749385Y-79546705D01*
X143836739Y-79663261D01*
X143953295Y-79750615D01*
X144089684Y-79801745D01*
X144151866Y-79808500D01*
X145948134Y-79808500D01*
X146010316Y-79801745D01*
X146146705Y-79750615D01*
X146263261Y-79663261D01*
X146350615Y-79546705D01*
X146401745Y-79410316D01*
X146408500Y-79348134D01*
X146408500Y-77551866D01*
X146401745Y-77489684D01*
X146350615Y-77353295D01*
X146263261Y-77236739D01*
X146146705Y-77149385D01*
X146134132Y-77144672D01*
X146028203Y-77104960D01*
X145971439Y-77062318D01*
X145946739Y-76995756D01*
X145961947Y-76926408D01*
X145983493Y-76897727D01*
X146088096Y-76793489D01*
X146147594Y-76710689D01*
X146215435Y-76616277D01*
X146218453Y-76612077D01*
X146306778Y-76433365D01*
X146315136Y-76416453D01*
X146315137Y-76416451D01*
X146317430Y-76411811D01*
X146349900Y-76304940D01*
X146380865Y-76203023D01*
X146380865Y-76203021D01*
X146382370Y-76198069D01*
X146411529Y-75976590D01*
X146411887Y-75961946D01*
X146413074Y-75913365D01*
X146413074Y-75913361D01*
X146413156Y-75910000D01*
X146394852Y-75687361D01*
X146340431Y-75470702D01*
X146251354Y-75265840D01*
X146142725Y-75097925D01*
X146132822Y-75082617D01*
X146132820Y-75082614D01*
X146130014Y-75078277D01*
X145979670Y-74913051D01*
X145975619Y-74909852D01*
X145975615Y-74909848D01*
X145808414Y-74777800D01*
X145808410Y-74777798D01*
X145804359Y-74774598D01*
X145798849Y-74771556D01*
X145712619Y-74723955D01*
X145608789Y-74666638D01*
X145603920Y-74664914D01*
X145603916Y-74664912D01*
X145403087Y-74593795D01*
X145403083Y-74593794D01*
X145398212Y-74592069D01*
X145393119Y-74591162D01*
X145393116Y-74591161D01*
X145183373Y-74553800D01*
X145183367Y-74553799D01*
X145178284Y-74552894D01*
X145104452Y-74551992D01*
X144960081Y-74550228D01*
X144960079Y-74550228D01*
X144954911Y-74550165D01*
X144734091Y-74583955D01*
X144521756Y-74653357D01*
X144491443Y-74669137D01*
X144369246Y-74732749D01*
X144323607Y-74756507D01*
X144319474Y-74759610D01*
X144319471Y-74759612D01*
X144207339Y-74843803D01*
X144144965Y-74890635D01*
X143990629Y-75052138D01*
X143987715Y-75056410D01*
X143987714Y-75056411D01*
X143959398Y-75097921D01*
X143864743Y-75236680D01*
X143842556Y-75284478D01*
X143795868Y-75385060D01*
X143770688Y-75439305D01*
X143710989Y-75654570D01*
X143687251Y-75876695D01*
X142408500Y-75876695D01*
X142408500Y-73898144D01*
X142409578Y-73881698D01*
X142412673Y-73858188D01*
X142413751Y-73850000D01*
X142392838Y-73691149D01*
X142331524Y-73543124D01*
X142258478Y-73447929D01*
X142258474Y-73447925D01*
X142246376Y-73432158D01*
X142239016Y-73422566D01*
X142239013Y-73422563D01*
X142233987Y-73416013D01*
X142227432Y-73410983D01*
X142208621Y-73396548D01*
X142196230Y-73385681D01*
X139564315Y-70753766D01*
X139553448Y-70741375D01*
X139539013Y-70722563D01*
X139533987Y-70716013D01*
X139505899Y-70694460D01*
X139464034Y-70637125D01*
X139459812Y-70566254D01*
X139494576Y-70504351D01*
X139557288Y-70471070D01*
X139582605Y-70468500D01*
X144455761Y-70468500D01*
X144523882Y-70488502D01*
X144544856Y-70505405D01*
X150054595Y-76015144D01*
X150088621Y-76077456D01*
X150091500Y-76104239D01*
X150091500Y-81451864D01*
X150090422Y-81468307D01*
X150086250Y-81500000D01*
X150087328Y-81508189D01*
X150091500Y-81539880D01*
X150091500Y-81539885D01*
X150101725Y-81617547D01*
X150101725Y-81617549D01*
X150105724Y-81647925D01*
X150107162Y-81658851D01*
X150168476Y-81806876D01*
X150173503Y-81813427D01*
X150173504Y-81813429D01*
X150241520Y-81902069D01*
X150241526Y-81902075D01*
X150266013Y-81933987D01*
X150272568Y-81939017D01*
X150291379Y-81953452D01*
X150303770Y-81964319D01*
X169024595Y-100685144D01*
X169058621Y-100747456D01*
X169061500Y-100774239D01*
X169061500Y-110845828D01*
X169041498Y-110913949D01*
X169007772Y-110949040D01*
X168848283Y-111060716D01*
X168690716Y-111218283D01*
X168562903Y-111400818D01*
X168560580Y-111405800D01*
X168560577Y-111405805D01*
X168514195Y-111505273D01*
X168467278Y-111558558D01*
X168399001Y-111578019D01*
X168331041Y-111557477D01*
X168285805Y-111505273D01*
X168239423Y-111405805D01*
X168239420Y-111405800D01*
X168237097Y-111400818D01*
X168109284Y-111218283D01*
X167951717Y-111060716D01*
X167769183Y-110932903D01*
X167764201Y-110930580D01*
X167764196Y-110930577D01*
X167572209Y-110841053D01*
X167572208Y-110841053D01*
X167567227Y-110838730D01*
X167561919Y-110837308D01*
X167561917Y-110837307D01*
X167495535Y-110819520D01*
X167351986Y-110781056D01*
X167130000Y-110761635D01*
X166908014Y-110781056D01*
X166764464Y-110819520D01*
X166698083Y-110837307D01*
X166698081Y-110837308D01*
X166692773Y-110838730D01*
X166687792Y-110841052D01*
X166687791Y-110841053D01*
X166495805Y-110930577D01*
X166495800Y-110930580D01*
X166490818Y-110932903D01*
X166308283Y-111060716D01*
X166150716Y-111218283D01*
X166022903Y-111400818D01*
X166020580Y-111405800D01*
X166020577Y-111405805D01*
X165974195Y-111505273D01*
X165927278Y-111558558D01*
X165859001Y-111578019D01*
X165791041Y-111557477D01*
X165745805Y-111505273D01*
X165699423Y-111405805D01*
X165699420Y-111405800D01*
X165697097Y-111400818D01*
X165569284Y-111218283D01*
X165411717Y-111060716D01*
X165229183Y-110932903D01*
X165224201Y-110930580D01*
X165224196Y-110930577D01*
X165032209Y-110841053D01*
X165032208Y-110841053D01*
X165027227Y-110838730D01*
X165021919Y-110837308D01*
X165021917Y-110837307D01*
X164955535Y-110819520D01*
X164811986Y-110781056D01*
X164590000Y-110761635D01*
X164368014Y-110781056D01*
X164224464Y-110819520D01*
X164158083Y-110837307D01*
X164158081Y-110837308D01*
X164152773Y-110838730D01*
X164147792Y-110841052D01*
X164147791Y-110841053D01*
X163955805Y-110930577D01*
X163955800Y-110930580D01*
X163950818Y-110932903D01*
X163768283Y-111060716D01*
X163610716Y-111218283D01*
X163482903Y-111400818D01*
X163480580Y-111405800D01*
X163480577Y-111405805D01*
X163434195Y-111505273D01*
X163387278Y-111558558D01*
X163319001Y-111578019D01*
X163251041Y-111557477D01*
X163205805Y-111505273D01*
X163159423Y-111405805D01*
X163159420Y-111405800D01*
X163157097Y-111400818D01*
X163029284Y-111218283D01*
X162871717Y-111060716D01*
X162689183Y-110932903D01*
X162684201Y-110930580D01*
X162684196Y-110930577D01*
X162492209Y-110841053D01*
X162492208Y-110841053D01*
X162487227Y-110838730D01*
X162481919Y-110837308D01*
X162481917Y-110837307D01*
X162415535Y-110819520D01*
X162271986Y-110781056D01*
X162050000Y-110761635D01*
X161828014Y-110781056D01*
X161684464Y-110819520D01*
X161618083Y-110837307D01*
X161618081Y-110837308D01*
X161612773Y-110838730D01*
X161607792Y-110841052D01*
X161607791Y-110841053D01*
X161415805Y-110930577D01*
X161415800Y-110930580D01*
X161410818Y-110932903D01*
X161228283Y-111060716D01*
X161070716Y-111218283D01*
X160942903Y-111400818D01*
X160940580Y-111405800D01*
X160940577Y-111405805D01*
X160894195Y-111505273D01*
X160847278Y-111558558D01*
X160779001Y-111578019D01*
X160711041Y-111557477D01*
X160665805Y-111505273D01*
X160619423Y-111405805D01*
X160619420Y-111405800D01*
X160617097Y-111400818D01*
X160489284Y-111218283D01*
X160331717Y-111060716D01*
X160149183Y-110932903D01*
X160144201Y-110930580D01*
X160144196Y-110930577D01*
X159952209Y-110841053D01*
X159952208Y-110841053D01*
X159947227Y-110838730D01*
X159941919Y-110837308D01*
X159941917Y-110837307D01*
X159875535Y-110819520D01*
X159731986Y-110781056D01*
X159510000Y-110761635D01*
X159288014Y-110781056D01*
X159144464Y-110819520D01*
X159078083Y-110837307D01*
X159078081Y-110837308D01*
X159072773Y-110838730D01*
X159067792Y-110841052D01*
X159067791Y-110841053D01*
X158875805Y-110930577D01*
X158875800Y-110930580D01*
X158870818Y-110932903D01*
X158688283Y-111060716D01*
X158530716Y-111218283D01*
X158402903Y-111400818D01*
X158400580Y-111405800D01*
X158400577Y-111405805D01*
X158354195Y-111505273D01*
X158307278Y-111558558D01*
X158239001Y-111578019D01*
X158171041Y-111557477D01*
X158125805Y-111505273D01*
X158079423Y-111405805D01*
X158079420Y-111405800D01*
X158077097Y-111400818D01*
X157949284Y-111218283D01*
X157791717Y-111060716D01*
X157609183Y-110932903D01*
X157604201Y-110930580D01*
X157604196Y-110930577D01*
X157412209Y-110841053D01*
X157412208Y-110841053D01*
X157407227Y-110838730D01*
X157401919Y-110837308D01*
X157401917Y-110837307D01*
X157335535Y-110819520D01*
X157191986Y-110781056D01*
X156970000Y-110761635D01*
X156748014Y-110781056D01*
X156604464Y-110819520D01*
X156538083Y-110837307D01*
X156538081Y-110837308D01*
X156532773Y-110838730D01*
X156527792Y-110841052D01*
X156527791Y-110841053D01*
X156335805Y-110930577D01*
X156335800Y-110930580D01*
X156330818Y-110932903D01*
X156148283Y-111060716D01*
X155990716Y-111218283D01*
X155862903Y-111400818D01*
X155860580Y-111405800D01*
X155860577Y-111405805D01*
X155814195Y-111505273D01*
X155767278Y-111558558D01*
X155699001Y-111578019D01*
X155631041Y-111557477D01*
X155585805Y-111505273D01*
X155539423Y-111405805D01*
X155539420Y-111405800D01*
X155537097Y-111400818D01*
X155409284Y-111218283D01*
X155251717Y-111060716D01*
X155069183Y-110932903D01*
X155064201Y-110930580D01*
X155064196Y-110930577D01*
X154872209Y-110841053D01*
X154872208Y-110841053D01*
X154867227Y-110838730D01*
X154861919Y-110837308D01*
X154861917Y-110837307D01*
X154795535Y-110819520D01*
X154651986Y-110781056D01*
X154430000Y-110761635D01*
X154208014Y-110781056D01*
X154064464Y-110819520D01*
X153998083Y-110837307D01*
X153998081Y-110837308D01*
X153992773Y-110838730D01*
X153987792Y-110841052D01*
X153987791Y-110841053D01*
X153795805Y-110930577D01*
X153795800Y-110930580D01*
X153790818Y-110932903D01*
X153608283Y-111060716D01*
X153450716Y-111218283D01*
X153322903Y-111400818D01*
X153320580Y-111405800D01*
X153320577Y-111405805D01*
X153274195Y-111505273D01*
X153227278Y-111558558D01*
X153159001Y-111578019D01*
X153091041Y-111557477D01*
X153045805Y-111505273D01*
X152999423Y-111405805D01*
X152999420Y-111405800D01*
X152997097Y-111400818D01*
X152869284Y-111218283D01*
X152711717Y-111060716D01*
X152529183Y-110932903D01*
X152524201Y-110930580D01*
X152524196Y-110930577D01*
X152332209Y-110841053D01*
X152332208Y-110841053D01*
X152327227Y-110838730D01*
X152321919Y-110837308D01*
X152321917Y-110837307D01*
X152255535Y-110819520D01*
X152111986Y-110781056D01*
X151890000Y-110761635D01*
X151668014Y-110781056D01*
X151524464Y-110819520D01*
X151458083Y-110837307D01*
X151458081Y-110837308D01*
X151452773Y-110838730D01*
X151447792Y-110841052D01*
X151447791Y-110841053D01*
X151255805Y-110930577D01*
X151255800Y-110930580D01*
X151250818Y-110932903D01*
X151068283Y-111060716D01*
X150910716Y-111218283D01*
X150782903Y-111400818D01*
X150780580Y-111405800D01*
X150780577Y-111405805D01*
X150734195Y-111505273D01*
X150687278Y-111558558D01*
X150619001Y-111578019D01*
X150551041Y-111557477D01*
X150505805Y-111505273D01*
X150459423Y-111405805D01*
X150459420Y-111405800D01*
X150457097Y-111400818D01*
X150329284Y-111218283D01*
X150171717Y-111060716D01*
X149989183Y-110932903D01*
X149984201Y-110930580D01*
X149984196Y-110930577D01*
X149792209Y-110841053D01*
X149792208Y-110841053D01*
X149787227Y-110838730D01*
X149781919Y-110837308D01*
X149781917Y-110837307D01*
X149715535Y-110819520D01*
X149571986Y-110781056D01*
X149350000Y-110761635D01*
X149128014Y-110781056D01*
X148984464Y-110819520D01*
X148918083Y-110837307D01*
X148918081Y-110837308D01*
X148912773Y-110838730D01*
X148907792Y-110841052D01*
X148907791Y-110841053D01*
X148715805Y-110930577D01*
X148715800Y-110930580D01*
X148710818Y-110932903D01*
X148528283Y-111060716D01*
X148370716Y-111218283D01*
X148242903Y-111400818D01*
X148240580Y-111405800D01*
X148240577Y-111405805D01*
X148194195Y-111505273D01*
X148147278Y-111558558D01*
X148079001Y-111578019D01*
X148011041Y-111557477D01*
X147965805Y-111505273D01*
X147919423Y-111405805D01*
X147919420Y-111405800D01*
X147917097Y-111400818D01*
X147789284Y-111218283D01*
X147631717Y-111060716D01*
X147449183Y-110932903D01*
X147444201Y-110930580D01*
X147444196Y-110930577D01*
X147252209Y-110841053D01*
X147252208Y-110841053D01*
X147247227Y-110838730D01*
X147241919Y-110837308D01*
X147241917Y-110837307D01*
X147175535Y-110819520D01*
X147031986Y-110781056D01*
X146810000Y-110761635D01*
X146588014Y-110781056D01*
X146444464Y-110819520D01*
X146378083Y-110837307D01*
X146378081Y-110837308D01*
X146372773Y-110838730D01*
X146367792Y-110841052D01*
X146367791Y-110841053D01*
X146175805Y-110930577D01*
X146175800Y-110930580D01*
X146170818Y-110932903D01*
X145988283Y-111060716D01*
X145830716Y-111218283D01*
X145702903Y-111400818D01*
X145700580Y-111405800D01*
X145700577Y-111405805D01*
X145654195Y-111505273D01*
X145607278Y-111558558D01*
X145539001Y-111578019D01*
X145471041Y-111557477D01*
X145425805Y-111505273D01*
X145379423Y-111405805D01*
X145379420Y-111405800D01*
X145377097Y-111400818D01*
X145249284Y-111218283D01*
X145091717Y-111060716D01*
X144909183Y-110932903D01*
X144904201Y-110930580D01*
X144904196Y-110930577D01*
X144712209Y-110841053D01*
X144712208Y-110841053D01*
X144707227Y-110838730D01*
X144701919Y-110837308D01*
X144701917Y-110837307D01*
X144635535Y-110819520D01*
X144491986Y-110781056D01*
X144270000Y-110761635D01*
X144048014Y-110781056D01*
X143904464Y-110819520D01*
X143838083Y-110837307D01*
X143838081Y-110837308D01*
X143832773Y-110838730D01*
X143827792Y-110841052D01*
X143827791Y-110841053D01*
X143635805Y-110930577D01*
X143635800Y-110930580D01*
X143630818Y-110932903D01*
X143448283Y-111060716D01*
X143290716Y-111218283D01*
X143162903Y-111400818D01*
X143160580Y-111405800D01*
X143160577Y-111405805D01*
X143114195Y-111505273D01*
X143067278Y-111558558D01*
X142999001Y-111578019D01*
X142931041Y-111557477D01*
X142885805Y-111505273D01*
X142839423Y-111405805D01*
X142839420Y-111405800D01*
X142837097Y-111400818D01*
X142709284Y-111218283D01*
X142551717Y-111060716D01*
X142369183Y-110932903D01*
X142364201Y-110930580D01*
X142364196Y-110930577D01*
X142172209Y-110841053D01*
X142172208Y-110841053D01*
X142167227Y-110838730D01*
X142161919Y-110837308D01*
X142161917Y-110837307D01*
X142095535Y-110819520D01*
X141951986Y-110781056D01*
X141730000Y-110761635D01*
X141508014Y-110781056D01*
X141364464Y-110819520D01*
X141298083Y-110837307D01*
X141298081Y-110837308D01*
X141292773Y-110838730D01*
X141287792Y-110841052D01*
X141287791Y-110841053D01*
X141095805Y-110930577D01*
X141095800Y-110930580D01*
X141090818Y-110932903D01*
X140908283Y-111060716D01*
X140750716Y-111218283D01*
X140622903Y-111400818D01*
X140620580Y-111405800D01*
X140620577Y-111405805D01*
X140574195Y-111505273D01*
X140527278Y-111558558D01*
X140459001Y-111578019D01*
X140391041Y-111557477D01*
X140345805Y-111505273D01*
X140299423Y-111405805D01*
X140299420Y-111405800D01*
X140297097Y-111400818D01*
X140169284Y-111218283D01*
X140011717Y-111060716D01*
X139829183Y-110932903D01*
X139824201Y-110930580D01*
X139824196Y-110930577D01*
X139632209Y-110841053D01*
X139632208Y-110841053D01*
X139627227Y-110838730D01*
X139621919Y-110837308D01*
X139621917Y-110837307D01*
X139555535Y-110819520D01*
X139411986Y-110781056D01*
X139190000Y-110761635D01*
X138968014Y-110781056D01*
X138824464Y-110819520D01*
X138758083Y-110837307D01*
X138758081Y-110837308D01*
X138752773Y-110838730D01*
X138747792Y-110841052D01*
X138747791Y-110841053D01*
X138555805Y-110930577D01*
X138555800Y-110930580D01*
X138550818Y-110932903D01*
X138368283Y-111060716D01*
X138210716Y-111218283D01*
X138082903Y-111400818D01*
X138080580Y-111405800D01*
X138080577Y-111405805D01*
X138034195Y-111505273D01*
X137987278Y-111558558D01*
X137919001Y-111578019D01*
X137851041Y-111557477D01*
X137805805Y-111505273D01*
X137759423Y-111405805D01*
X137759420Y-111405800D01*
X137757097Y-111400818D01*
X137629284Y-111218283D01*
X137471717Y-111060716D01*
X137289183Y-110932903D01*
X137284201Y-110930580D01*
X137284196Y-110930577D01*
X137092209Y-110841053D01*
X137092208Y-110841053D01*
X137087227Y-110838730D01*
X137081919Y-110837308D01*
X137081917Y-110837307D01*
X137015535Y-110819520D01*
X136871986Y-110781056D01*
X136650000Y-110761635D01*
X136428014Y-110781056D01*
X136284464Y-110819520D01*
X136218083Y-110837307D01*
X136218081Y-110837308D01*
X136212773Y-110838730D01*
X136207792Y-110841052D01*
X136207791Y-110841053D01*
X136015805Y-110930577D01*
X136015800Y-110930580D01*
X136010818Y-110932903D01*
X135828283Y-111060716D01*
X135670716Y-111218283D01*
X135542903Y-111400818D01*
X135540580Y-111405800D01*
X135540577Y-111405805D01*
X135494195Y-111505273D01*
X135447278Y-111558558D01*
X135379001Y-111578019D01*
X135311041Y-111557477D01*
X135265805Y-111505273D01*
X135219423Y-111405805D01*
X135219420Y-111405800D01*
X135217097Y-111400818D01*
X135089284Y-111218283D01*
X134931717Y-111060716D01*
X134749183Y-110932903D01*
X134744201Y-110930580D01*
X134744196Y-110930577D01*
X134552209Y-110841053D01*
X134552208Y-110841053D01*
X134547227Y-110838730D01*
X134541919Y-110837308D01*
X134541917Y-110837307D01*
X134475535Y-110819520D01*
X134331986Y-110781056D01*
X134110000Y-110761635D01*
X133888014Y-110781056D01*
X133744464Y-110819520D01*
X133678083Y-110837307D01*
X133678081Y-110837308D01*
X133672773Y-110838730D01*
X133667792Y-110841052D01*
X133667791Y-110841053D01*
X133475805Y-110930577D01*
X133475800Y-110930580D01*
X133470818Y-110932903D01*
X133288283Y-111060716D01*
X133130716Y-111218283D01*
X133002903Y-111400818D01*
X133000580Y-111405800D01*
X133000577Y-111405805D01*
X132954195Y-111505273D01*
X132907278Y-111558558D01*
X132839001Y-111578019D01*
X132771041Y-111557477D01*
X132725805Y-111505273D01*
X132679423Y-111405805D01*
X132679420Y-111405800D01*
X132677097Y-111400818D01*
X132549284Y-111218283D01*
X132391717Y-111060716D01*
X132209183Y-110932903D01*
X132204201Y-110930580D01*
X132204196Y-110930577D01*
X132012209Y-110841053D01*
X132012208Y-110841053D01*
X132007227Y-110838730D01*
X132001919Y-110837308D01*
X132001917Y-110837307D01*
X131935535Y-110819520D01*
X131791986Y-110781056D01*
X131570000Y-110761635D01*
X131348014Y-110781056D01*
X131204464Y-110819520D01*
X131138083Y-110837307D01*
X131138081Y-110837308D01*
X131132773Y-110838730D01*
X131127792Y-110841052D01*
X131127791Y-110841053D01*
X130935805Y-110930577D01*
X130935800Y-110930580D01*
X130930818Y-110932903D01*
X130748283Y-111060716D01*
X130590716Y-111218283D01*
X130462903Y-111400818D01*
X130460580Y-111405800D01*
X130460577Y-111405805D01*
X130414195Y-111505273D01*
X130367278Y-111558558D01*
X130299001Y-111578019D01*
X130231041Y-111557477D01*
X130185805Y-111505273D01*
X130139423Y-111405805D01*
X130139420Y-111405800D01*
X130137097Y-111400818D01*
X130009284Y-111218283D01*
X129851717Y-111060716D01*
X129669183Y-110932903D01*
X129664201Y-110930580D01*
X129664196Y-110930577D01*
X129472209Y-110841053D01*
X129472208Y-110841053D01*
X129467227Y-110838730D01*
X129461919Y-110837308D01*
X129461917Y-110837307D01*
X129395535Y-110819520D01*
X129251986Y-110781056D01*
X129030000Y-110761635D01*
X128808014Y-110781056D01*
X128664464Y-110819520D01*
X128598083Y-110837307D01*
X128598081Y-110837308D01*
X128592773Y-110838730D01*
X128587792Y-110841052D01*
X128587791Y-110841053D01*
X128395805Y-110930577D01*
X128395800Y-110930580D01*
X128390818Y-110932903D01*
X128208283Y-111060716D01*
X128050716Y-111218283D01*
X127922903Y-111400818D01*
X127920580Y-111405800D01*
X127920577Y-111405805D01*
X127874195Y-111505273D01*
X127827278Y-111558558D01*
X127759001Y-111578019D01*
X127691041Y-111557477D01*
X127645805Y-111505273D01*
X127599423Y-111405805D01*
X127599420Y-111405800D01*
X127597097Y-111400818D01*
X127469284Y-111218283D01*
X127311717Y-111060716D01*
X127129183Y-110932903D01*
X127124201Y-110930580D01*
X127124196Y-110930577D01*
X126932209Y-110841053D01*
X126932208Y-110841053D01*
X126927227Y-110838730D01*
X126921919Y-110837308D01*
X126921917Y-110837307D01*
X126855535Y-110819520D01*
X126711986Y-110781056D01*
X126490000Y-110761635D01*
X126268014Y-110781056D01*
X126124464Y-110819520D01*
X126058083Y-110837307D01*
X126058081Y-110837308D01*
X126052773Y-110838730D01*
X126047792Y-110841052D01*
X126047791Y-110841053D01*
X125855805Y-110930577D01*
X125855800Y-110930580D01*
X125850818Y-110932903D01*
X125668283Y-111060716D01*
X125510716Y-111218283D01*
X125382903Y-111400818D01*
X125380580Y-111405800D01*
X125380577Y-111405805D01*
X125315369Y-111545645D01*
X125288730Y-111602773D01*
X125231056Y-111818014D01*
X125211635Y-112040000D01*
X125231056Y-112261986D01*
X125288730Y-112477227D01*
X125291052Y-112482208D01*
X125291053Y-112482209D01*
X125380577Y-112674195D01*
X125380580Y-112674200D01*
X125382903Y-112679182D01*
X125510716Y-112861717D01*
X125668283Y-113019284D01*
X125672792Y-113022441D01*
X125672794Y-113022443D01*
X125751119Y-113077287D01*
X125795447Y-113132745D01*
X125802756Y-113203364D01*
X125770725Y-113266724D01*
X125709523Y-113302709D01*
X125683658Y-113305906D01*
X125683680Y-113306316D01*
X125680282Y-113306500D01*
X125676866Y-113306500D01*
X125614684Y-113313255D01*
X125478295Y-113364385D01*
X125361739Y-113451739D01*
X125274385Y-113568295D01*
X125223255Y-113704684D01*
X125216500Y-113766866D01*
X125216500Y-115393134D01*
X125223255Y-115455316D01*
X125274385Y-115591705D01*
X125361739Y-115708261D01*
X125478295Y-115795615D01*
X125614684Y-115846745D01*
X125676866Y-115853500D01*
X127303134Y-115853500D01*
X127365316Y-115846745D01*
X127501705Y-115795615D01*
X127618261Y-115708261D01*
X127705615Y-115591705D01*
X127756745Y-115455316D01*
X127763500Y-115393134D01*
X127763500Y-115389717D01*
X127763684Y-115386320D01*
X127764899Y-115386386D01*
X127783502Y-115323031D01*
X127837158Y-115276538D01*
X127907432Y-115266434D01*
X127972012Y-115295928D01*
X127992713Y-115318881D01*
X128047085Y-115396531D01*
X128050716Y-115401717D01*
X128208283Y-115559284D01*
X128212792Y-115562441D01*
X128212794Y-115562443D01*
X128264847Y-115598891D01*
X128390817Y-115687097D01*
X128395799Y-115689420D01*
X128395804Y-115689423D01*
X128577553Y-115774173D01*
X128592773Y-115781270D01*
X128598081Y-115782692D01*
X128598083Y-115782693D01*
X128626208Y-115790229D01*
X128808014Y-115838944D01*
X129030000Y-115858365D01*
X129251986Y-115838944D01*
X129433792Y-115790229D01*
X129461917Y-115782693D01*
X129461919Y-115782692D01*
X129467227Y-115781270D01*
X129482447Y-115774173D01*
X129664196Y-115689423D01*
X129664201Y-115689420D01*
X129669183Y-115687097D01*
X129795153Y-115598891D01*
X129847206Y-115562443D01*
X129847208Y-115562441D01*
X129851717Y-115559284D01*
X130009284Y-115401717D01*
X130012916Y-115396531D01*
X130067287Y-115318881D01*
X130137097Y-115219182D01*
X130139420Y-115214200D01*
X130139423Y-115214195D01*
X130185805Y-115114727D01*
X130232722Y-115061442D01*
X130300999Y-115041981D01*
X130368959Y-115062523D01*
X130414195Y-115114727D01*
X130460577Y-115214195D01*
X130460580Y-115214200D01*
X130462903Y-115219182D01*
X130532713Y-115318881D01*
X130587085Y-115396531D01*
X130590716Y-115401717D01*
X130748283Y-115559284D01*
X130752792Y-115562441D01*
X130752794Y-115562443D01*
X130804847Y-115598891D01*
X130930817Y-115687097D01*
X130935799Y-115689420D01*
X130935804Y-115689423D01*
X131117553Y-115774173D01*
X131132773Y-115781270D01*
X131138081Y-115782692D01*
X131138083Y-115782693D01*
X131166208Y-115790229D01*
X131348014Y-115838944D01*
X131570000Y-115858365D01*
X131791986Y-115838944D01*
X131973792Y-115790229D01*
X132001917Y-115782693D01*
X132001919Y-115782692D01*
X132007227Y-115781270D01*
X132022447Y-115774173D01*
X132204196Y-115689423D01*
X132204201Y-115689420D01*
X132209183Y-115687097D01*
X132335153Y-115598891D01*
X132387206Y-115562443D01*
X132387208Y-115562441D01*
X132391717Y-115559284D01*
X132549284Y-115401717D01*
X132552916Y-115396531D01*
X132607287Y-115318881D01*
X132677097Y-115219182D01*
X132679420Y-115214200D01*
X132679423Y-115214195D01*
X132725805Y-115114727D01*
X132772722Y-115061442D01*
X132840999Y-115041981D01*
X132908959Y-115062523D01*
X132954195Y-115114727D01*
X133000577Y-115214195D01*
X133000580Y-115214200D01*
X133002903Y-115219182D01*
X133072713Y-115318881D01*
X133127085Y-115396531D01*
X133130716Y-115401717D01*
X133288283Y-115559284D01*
X133292792Y-115562441D01*
X133292794Y-115562443D01*
X133344847Y-115598891D01*
X133470817Y-115687097D01*
X133475799Y-115689420D01*
X133475804Y-115689423D01*
X133657553Y-115774173D01*
X133672773Y-115781270D01*
X133678081Y-115782692D01*
X133678083Y-115782693D01*
X133706208Y-115790229D01*
X133888014Y-115838944D01*
X134110000Y-115858365D01*
X134331986Y-115838944D01*
X134513792Y-115790229D01*
X134541917Y-115782693D01*
X134541919Y-115782692D01*
X134547227Y-115781270D01*
X134562447Y-115774173D01*
X134744196Y-115689423D01*
X134744201Y-115689420D01*
X134749183Y-115687097D01*
X134875153Y-115598891D01*
X134927206Y-115562443D01*
X134927208Y-115562441D01*
X134931717Y-115559284D01*
X135089284Y-115401717D01*
X135092916Y-115396531D01*
X135147287Y-115318881D01*
X135217097Y-115219182D01*
X135219420Y-115214200D01*
X135219423Y-115214195D01*
X135265805Y-115114727D01*
X135312722Y-115061442D01*
X135380999Y-115041981D01*
X135448959Y-115062523D01*
X135494195Y-115114727D01*
X135540577Y-115214195D01*
X135540580Y-115214200D01*
X135542903Y-115219182D01*
X135612713Y-115318881D01*
X135667085Y-115396531D01*
X135670716Y-115401717D01*
X135828283Y-115559284D01*
X135832792Y-115562441D01*
X135832794Y-115562443D01*
X135884847Y-115598891D01*
X136010817Y-115687097D01*
X136015799Y-115689420D01*
X136015804Y-115689423D01*
X136197553Y-115774173D01*
X136212773Y-115781270D01*
X136218081Y-115782692D01*
X136218083Y-115782693D01*
X136246208Y-115790229D01*
X136428014Y-115838944D01*
X136650000Y-115858365D01*
X136871986Y-115838944D01*
X137053792Y-115790229D01*
X137081917Y-115782693D01*
X137081919Y-115782692D01*
X137087227Y-115781270D01*
X137102447Y-115774173D01*
X137284196Y-115689423D01*
X137284201Y-115689420D01*
X137289183Y-115687097D01*
X137415153Y-115598891D01*
X137467206Y-115562443D01*
X137467208Y-115562441D01*
X137471717Y-115559284D01*
X137629284Y-115401717D01*
X137632916Y-115396531D01*
X137687287Y-115318881D01*
X137757097Y-115219182D01*
X137759420Y-115214200D01*
X137759423Y-115214195D01*
X137805805Y-115114727D01*
X137852722Y-115061442D01*
X137920999Y-115041981D01*
X137988959Y-115062523D01*
X138034195Y-115114727D01*
X138080577Y-115214195D01*
X138080580Y-115214200D01*
X138082903Y-115219182D01*
X138152713Y-115318881D01*
X138207085Y-115396531D01*
X138210716Y-115401717D01*
X138368283Y-115559284D01*
X138372792Y-115562441D01*
X138372794Y-115562443D01*
X138424847Y-115598891D01*
X138550817Y-115687097D01*
X138555799Y-115689420D01*
X138555804Y-115689423D01*
X138737553Y-115774173D01*
X138752773Y-115781270D01*
X138758081Y-115782692D01*
X138758083Y-115782693D01*
X138786208Y-115790229D01*
X138968014Y-115838944D01*
X139190000Y-115858365D01*
X139411986Y-115838944D01*
X139593792Y-115790229D01*
X139621917Y-115782693D01*
X139621919Y-115782692D01*
X139627227Y-115781270D01*
X139642447Y-115774173D01*
X139824196Y-115689423D01*
X139824201Y-115689420D01*
X139829183Y-115687097D01*
X139955153Y-115598891D01*
X140007206Y-115562443D01*
X140007208Y-115562441D01*
X140011717Y-115559284D01*
X140169284Y-115401717D01*
X140172916Y-115396531D01*
X140227287Y-115318881D01*
X140297097Y-115219182D01*
X140299420Y-115214200D01*
X140299423Y-115214195D01*
X140345805Y-115114727D01*
X140392722Y-115061442D01*
X140460999Y-115041981D01*
X140528959Y-115062523D01*
X140574195Y-115114727D01*
X140620577Y-115214195D01*
X140620580Y-115214200D01*
X140622903Y-115219182D01*
X140692713Y-115318881D01*
X140747085Y-115396531D01*
X140750716Y-115401717D01*
X140908283Y-115559284D01*
X140912792Y-115562441D01*
X140912794Y-115562443D01*
X140964847Y-115598891D01*
X141090817Y-115687097D01*
X141095799Y-115689420D01*
X141095804Y-115689423D01*
X141277553Y-115774173D01*
X141292773Y-115781270D01*
X141298081Y-115782692D01*
X141298083Y-115782693D01*
X141326208Y-115790229D01*
X141508014Y-115838944D01*
X141730000Y-115858365D01*
X141951986Y-115838944D01*
X142133792Y-115790229D01*
X142161917Y-115782693D01*
X142161919Y-115782692D01*
X142167227Y-115781270D01*
X142182447Y-115774173D01*
X142364196Y-115689423D01*
X142364201Y-115689420D01*
X142369183Y-115687097D01*
X142495153Y-115598891D01*
X142547206Y-115562443D01*
X142547208Y-115562441D01*
X142551717Y-115559284D01*
X142709284Y-115401717D01*
X142712916Y-115396531D01*
X142767287Y-115318881D01*
X142837097Y-115219182D01*
X142839420Y-115214200D01*
X142839423Y-115214195D01*
X142885805Y-115114727D01*
X142932722Y-115061442D01*
X143000999Y-115041981D01*
X143068959Y-115062523D01*
X143114195Y-115114727D01*
X143160577Y-115214195D01*
X143160580Y-115214200D01*
X143162903Y-115219182D01*
X143232713Y-115318881D01*
X143287085Y-115396531D01*
X143290716Y-115401717D01*
X143448283Y-115559284D01*
X143452792Y-115562441D01*
X143452794Y-115562443D01*
X143504847Y-115598891D01*
X143630817Y-115687097D01*
X143635799Y-115689420D01*
X143635804Y-115689423D01*
X143817553Y-115774173D01*
X143832773Y-115781270D01*
X143838081Y-115782692D01*
X143838083Y-115782693D01*
X143866208Y-115790229D01*
X144048014Y-115838944D01*
X144270000Y-115858365D01*
X144491986Y-115838944D01*
X144673792Y-115790229D01*
X144701917Y-115782693D01*
X144701919Y-115782692D01*
X144707227Y-115781270D01*
X144722447Y-115774173D01*
X144904196Y-115689423D01*
X144904201Y-115689420D01*
X144909183Y-115687097D01*
X145035153Y-115598891D01*
X145087206Y-115562443D01*
X145087208Y-115562441D01*
X145091717Y-115559284D01*
X145249284Y-115401717D01*
X145252916Y-115396531D01*
X145307287Y-115318881D01*
X145377097Y-115219182D01*
X145379420Y-115214200D01*
X145379423Y-115214195D01*
X145425805Y-115114727D01*
X145472722Y-115061442D01*
X145540999Y-115041981D01*
X145608959Y-115062523D01*
X145654195Y-115114727D01*
X145700577Y-115214195D01*
X145700580Y-115214200D01*
X145702903Y-115219182D01*
X145772713Y-115318881D01*
X145827085Y-115396531D01*
X145830716Y-115401717D01*
X145988283Y-115559284D01*
X145992792Y-115562441D01*
X145992794Y-115562443D01*
X146044847Y-115598891D01*
X146170817Y-115687097D01*
X146175799Y-115689420D01*
X146175804Y-115689423D01*
X146357553Y-115774173D01*
X146372773Y-115781270D01*
X146378081Y-115782692D01*
X146378083Y-115782693D01*
X146406208Y-115790229D01*
X146588014Y-115838944D01*
X146810000Y-115858365D01*
X147031986Y-115838944D01*
X147213792Y-115790229D01*
X147241917Y-115782693D01*
X147241919Y-115782692D01*
X147247227Y-115781270D01*
X147262447Y-115774173D01*
X147444196Y-115689423D01*
X147444201Y-115689420D01*
X147449183Y-115687097D01*
X147575153Y-115598891D01*
X147627206Y-115562443D01*
X147627208Y-115562441D01*
X147631717Y-115559284D01*
X147789284Y-115401717D01*
X147792916Y-115396531D01*
X147847287Y-115318881D01*
X147917097Y-115219182D01*
X147919420Y-115214200D01*
X147919423Y-115214195D01*
X147965805Y-115114727D01*
X148012722Y-115061442D01*
X148080999Y-115041981D01*
X148148959Y-115062523D01*
X148194195Y-115114727D01*
X148240577Y-115214195D01*
X148240580Y-115214200D01*
X148242903Y-115219182D01*
X148312713Y-115318881D01*
X148367085Y-115396531D01*
X148370716Y-115401717D01*
X148528283Y-115559284D01*
X148532792Y-115562441D01*
X148532794Y-115562443D01*
X148584847Y-115598891D01*
X148710817Y-115687097D01*
X148715799Y-115689420D01*
X148715804Y-115689423D01*
X148897553Y-115774173D01*
X148912773Y-115781270D01*
X148918081Y-115782692D01*
X148918083Y-115782693D01*
X148946208Y-115790229D01*
X149128014Y-115838944D01*
X149350000Y-115858365D01*
X149571986Y-115838944D01*
X149753792Y-115790229D01*
X149781917Y-115782693D01*
X149781919Y-115782692D01*
X149787227Y-115781270D01*
X149802447Y-115774173D01*
X149984196Y-115689423D01*
X149984201Y-115689420D01*
X149989183Y-115687097D01*
X150115153Y-115598891D01*
X150167206Y-115562443D01*
X150167208Y-115562441D01*
X150171717Y-115559284D01*
X150329284Y-115401717D01*
X150332916Y-115396531D01*
X150387287Y-115318881D01*
X150457097Y-115219182D01*
X150459420Y-115214200D01*
X150459423Y-115214195D01*
X150505805Y-115114727D01*
X150552722Y-115061442D01*
X150620999Y-115041981D01*
X150688959Y-115062523D01*
X150734195Y-115114727D01*
X150780577Y-115214195D01*
X150780580Y-115214200D01*
X150782903Y-115219182D01*
X150852713Y-115318881D01*
X150907085Y-115396531D01*
X150910716Y-115401717D01*
X151068283Y-115559284D01*
X151072792Y-115562441D01*
X151072794Y-115562443D01*
X151124847Y-115598891D01*
X151250817Y-115687097D01*
X151255799Y-115689420D01*
X151255804Y-115689423D01*
X151437553Y-115774173D01*
X151452773Y-115781270D01*
X151458081Y-115782692D01*
X151458083Y-115782693D01*
X151486208Y-115790229D01*
X151668014Y-115838944D01*
X151890000Y-115858365D01*
X152111986Y-115838944D01*
X152293792Y-115790229D01*
X152321917Y-115782693D01*
X152321919Y-115782692D01*
X152327227Y-115781270D01*
X152342447Y-115774173D01*
X152524196Y-115689423D01*
X152524201Y-115689420D01*
X152529183Y-115687097D01*
X152655153Y-115598891D01*
X152707206Y-115562443D01*
X152707208Y-115562441D01*
X152711717Y-115559284D01*
X152869284Y-115401717D01*
X152872916Y-115396531D01*
X152927287Y-115318881D01*
X152997097Y-115219182D01*
X152999420Y-115214200D01*
X152999423Y-115214195D01*
X153045805Y-115114727D01*
X153092722Y-115061442D01*
X153160999Y-115041981D01*
X153228959Y-115062523D01*
X153274195Y-115114727D01*
X153320577Y-115214195D01*
X153320580Y-115214200D01*
X153322903Y-115219182D01*
X153392713Y-115318881D01*
X153447085Y-115396531D01*
X153450716Y-115401717D01*
X153608283Y-115559284D01*
X153612792Y-115562441D01*
X153612794Y-115562443D01*
X153664847Y-115598891D01*
X153790817Y-115687097D01*
X153795799Y-115689420D01*
X153795804Y-115689423D01*
X153977553Y-115774173D01*
X153992773Y-115781270D01*
X153998081Y-115782692D01*
X153998083Y-115782693D01*
X154026208Y-115790229D01*
X154208014Y-115838944D01*
X154430000Y-115858365D01*
X154651986Y-115838944D01*
X154833792Y-115790229D01*
X154861917Y-115782693D01*
X154861919Y-115782692D01*
X154867227Y-115781270D01*
X154882447Y-115774173D01*
X155064196Y-115689423D01*
X155064201Y-115689420D01*
X155069183Y-115687097D01*
X155195153Y-115598891D01*
X155247206Y-115562443D01*
X155247208Y-115562441D01*
X155251717Y-115559284D01*
X155409284Y-115401717D01*
X155412916Y-115396531D01*
X155467287Y-115318881D01*
X155537097Y-115219182D01*
X155539420Y-115214200D01*
X155539423Y-115214195D01*
X155585805Y-115114727D01*
X155632722Y-115061442D01*
X155700999Y-115041981D01*
X155768959Y-115062523D01*
X155814195Y-115114727D01*
X155860577Y-115214195D01*
X155860580Y-115214200D01*
X155862903Y-115219182D01*
X155932713Y-115318881D01*
X155987085Y-115396531D01*
X155990716Y-115401717D01*
X156148283Y-115559284D01*
X156152792Y-115562441D01*
X156152794Y-115562443D01*
X156204847Y-115598891D01*
X156330817Y-115687097D01*
X156335799Y-115689420D01*
X156335804Y-115689423D01*
X156517553Y-115774173D01*
X156532773Y-115781270D01*
X156538081Y-115782692D01*
X156538083Y-115782693D01*
X156566208Y-115790229D01*
X156748014Y-115838944D01*
X156970000Y-115858365D01*
X157191986Y-115838944D01*
X157373792Y-115790229D01*
X157401917Y-115782693D01*
X157401919Y-115782692D01*
X157407227Y-115781270D01*
X157422447Y-115774173D01*
X157604196Y-115689423D01*
X157604201Y-115689420D01*
X157609183Y-115687097D01*
X157735153Y-115598891D01*
X157787206Y-115562443D01*
X157787208Y-115562441D01*
X157791717Y-115559284D01*
X157949284Y-115401717D01*
X157952916Y-115396531D01*
X158007287Y-115318881D01*
X158077097Y-115219182D01*
X158079420Y-115214200D01*
X158079423Y-115214195D01*
X158125805Y-115114727D01*
X158172722Y-115061442D01*
X158240999Y-115041981D01*
X158308959Y-115062523D01*
X158354195Y-115114727D01*
X158400577Y-115214195D01*
X158400580Y-115214200D01*
X158402903Y-115219182D01*
X158472713Y-115318881D01*
X158527085Y-115396531D01*
X158530716Y-115401717D01*
X158688283Y-115559284D01*
X158692792Y-115562441D01*
X158692794Y-115562443D01*
X158744847Y-115598891D01*
X158870817Y-115687097D01*
X158875799Y-115689420D01*
X158875804Y-115689423D01*
X159057553Y-115774173D01*
X159072773Y-115781270D01*
X159078081Y-115782692D01*
X159078083Y-115782693D01*
X159106208Y-115790229D01*
X159288014Y-115838944D01*
X159510000Y-115858365D01*
X159731986Y-115838944D01*
X159913792Y-115790229D01*
X159941917Y-115782693D01*
X159941919Y-115782692D01*
X159947227Y-115781270D01*
X159962447Y-115774173D01*
X160144196Y-115689423D01*
X160144201Y-115689420D01*
X160149183Y-115687097D01*
X160275153Y-115598891D01*
X160327206Y-115562443D01*
X160327208Y-115562441D01*
X160331717Y-115559284D01*
X160489284Y-115401717D01*
X160492916Y-115396531D01*
X160547287Y-115318881D01*
X160617097Y-115219182D01*
X160619420Y-115214200D01*
X160619423Y-115214195D01*
X160665805Y-115114727D01*
X160712722Y-115061442D01*
X160780999Y-115041981D01*
X160848959Y-115062523D01*
X160894195Y-115114727D01*
X160940577Y-115214195D01*
X160940580Y-115214200D01*
X160942903Y-115219182D01*
X161012713Y-115318881D01*
X161067085Y-115396531D01*
X161070716Y-115401717D01*
X161228283Y-115559284D01*
X161232792Y-115562441D01*
X161232794Y-115562443D01*
X161284847Y-115598891D01*
X161410817Y-115687097D01*
X161415799Y-115689420D01*
X161415804Y-115689423D01*
X161597553Y-115774173D01*
X161612773Y-115781270D01*
X161618081Y-115782692D01*
X161618083Y-115782693D01*
X161646208Y-115790229D01*
X161828014Y-115838944D01*
X162050000Y-115858365D01*
X162271986Y-115838944D01*
X162453792Y-115790229D01*
X162481917Y-115782693D01*
X162481919Y-115782692D01*
X162487227Y-115781270D01*
X162502447Y-115774173D01*
X162684196Y-115689423D01*
X162684201Y-115689420D01*
X162689183Y-115687097D01*
X162815153Y-115598891D01*
X162867206Y-115562443D01*
X162867208Y-115562441D01*
X162871717Y-115559284D01*
X163029284Y-115401717D01*
X163032916Y-115396531D01*
X163087287Y-115318881D01*
X163157097Y-115219182D01*
X163159420Y-115214200D01*
X163159423Y-115214195D01*
X163205805Y-115114727D01*
X163252722Y-115061442D01*
X163320999Y-115041981D01*
X163388959Y-115062523D01*
X163434195Y-115114727D01*
X163480577Y-115214195D01*
X163480580Y-115214200D01*
X163482903Y-115219182D01*
X163552713Y-115318881D01*
X163607085Y-115396531D01*
X163610716Y-115401717D01*
X163768283Y-115559284D01*
X163772792Y-115562441D01*
X163772794Y-115562443D01*
X163824847Y-115598891D01*
X163950817Y-115687097D01*
X163955799Y-115689420D01*
X163955804Y-115689423D01*
X164137553Y-115774173D01*
X164152773Y-115781270D01*
X164158081Y-115782692D01*
X164158083Y-115782693D01*
X164186208Y-115790229D01*
X164368014Y-115838944D01*
X164590000Y-115858365D01*
X164811986Y-115838944D01*
X164993792Y-115790229D01*
X165021917Y-115782693D01*
X165021919Y-115782692D01*
X165027227Y-115781270D01*
X165042447Y-115774173D01*
X165224196Y-115689423D01*
X165224201Y-115689420D01*
X165229183Y-115687097D01*
X165355153Y-115598891D01*
X165407206Y-115562443D01*
X165407208Y-115562441D01*
X165411717Y-115559284D01*
X165569284Y-115401717D01*
X165572916Y-115396531D01*
X165627287Y-115318881D01*
X165697097Y-115219182D01*
X165699420Y-115214200D01*
X165699423Y-115214195D01*
X165745805Y-115114727D01*
X165792722Y-115061442D01*
X165860999Y-115041981D01*
X165928959Y-115062523D01*
X165974195Y-115114727D01*
X166020577Y-115214195D01*
X166020580Y-115214200D01*
X166022903Y-115219182D01*
X166092713Y-115318881D01*
X166147085Y-115396531D01*
X166150716Y-115401717D01*
X166308283Y-115559284D01*
X166312792Y-115562441D01*
X166312794Y-115562443D01*
X166364847Y-115598891D01*
X166490817Y-115687097D01*
X166495799Y-115689420D01*
X166495804Y-115689423D01*
X166677553Y-115774173D01*
X166692773Y-115781270D01*
X166698081Y-115782692D01*
X166698083Y-115782693D01*
X166726208Y-115790229D01*
X166908014Y-115838944D01*
X167130000Y-115858365D01*
X167351986Y-115838944D01*
X167533792Y-115790229D01*
X167561917Y-115782693D01*
X167561919Y-115782692D01*
X167567227Y-115781270D01*
X167582447Y-115774173D01*
X167764196Y-115689423D01*
X167764201Y-115689420D01*
X167769183Y-115687097D01*
X167895153Y-115598891D01*
X167947206Y-115562443D01*
X167947208Y-115562441D01*
X167951717Y-115559284D01*
X168109284Y-115401717D01*
X168112916Y-115396531D01*
X168167287Y-115318881D01*
X168237097Y-115219182D01*
X168239420Y-115214200D01*
X168239423Y-115214195D01*
X168285805Y-115114727D01*
X168332722Y-115061442D01*
X168400999Y-115041981D01*
X168468959Y-115062523D01*
X168514195Y-115114727D01*
X168560577Y-115214195D01*
X168560580Y-115214200D01*
X168562903Y-115219182D01*
X168632713Y-115318881D01*
X168687085Y-115396531D01*
X168690716Y-115401717D01*
X168848283Y-115559284D01*
X168852792Y-115562441D01*
X168852794Y-115562443D01*
X168904847Y-115598891D01*
X169030817Y-115687097D01*
X169035799Y-115689420D01*
X169035804Y-115689423D01*
X169217553Y-115774173D01*
X169232773Y-115781270D01*
X169238081Y-115782692D01*
X169238083Y-115782693D01*
X169266208Y-115790229D01*
X169448014Y-115838944D01*
X169670000Y-115858365D01*
X169891986Y-115838944D01*
X170073792Y-115790229D01*
X170101917Y-115782693D01*
X170101919Y-115782692D01*
X170107227Y-115781270D01*
X170122447Y-115774173D01*
X170304196Y-115689423D01*
X170304201Y-115689420D01*
X170309183Y-115687097D01*
X170435153Y-115598891D01*
X170487206Y-115562443D01*
X170487208Y-115562441D01*
X170491717Y-115559284D01*
X170649284Y-115401717D01*
X170652916Y-115396531D01*
X170707287Y-115318881D01*
X170777097Y-115219182D01*
X170779420Y-115214200D01*
X170779423Y-115214195D01*
X170825805Y-115114727D01*
X170872722Y-115061442D01*
X170940999Y-115041981D01*
X171008959Y-115062523D01*
X171054195Y-115114727D01*
X171100577Y-115214195D01*
X171100580Y-115214200D01*
X171102903Y-115219182D01*
X171172713Y-115318881D01*
X171227085Y-115396531D01*
X171230716Y-115401717D01*
X171388283Y-115559284D01*
X171392792Y-115562441D01*
X171392794Y-115562443D01*
X171547771Y-115670960D01*
X171592099Y-115726418D01*
X171601500Y-115774173D01*
X171601500Y-116731864D01*
X171600422Y-116748307D01*
X171596250Y-116780000D01*
X171601500Y-116819880D01*
X171601500Y-116819885D01*
X171607825Y-116867928D01*
X171617162Y-116938851D01*
X171678476Y-117086876D01*
X171683503Y-117093427D01*
X171683504Y-117093429D01*
X171751520Y-117182069D01*
X171751526Y-117182075D01*
X171776013Y-117213987D01*
X171782568Y-117219017D01*
X171801379Y-117233452D01*
X171813770Y-117244319D01*
X171925856Y-117356405D01*
X171959882Y-117418717D01*
X171954817Y-117489532D01*
X171912270Y-117546368D01*
X171845750Y-117571179D01*
X171836761Y-117571500D01*
X96299367Y-117571500D01*
X96279982Y-117570000D01*
X96265149Y-117567690D01*
X96265145Y-117567690D01*
X96256276Y-117566309D01*
X96242211Y-117568148D01*
X96215997Y-117568824D01*
X96065672Y-117556993D01*
X96046145Y-117553900D01*
X95961071Y-117533476D01*
X95875995Y-117513051D01*
X95857197Y-117506944D01*
X95695528Y-117439978D01*
X95677923Y-117431008D01*
X95528716Y-117339574D01*
X95512727Y-117327957D01*
X95379665Y-117214311D01*
X95365687Y-117200333D01*
X95350088Y-117182069D01*
X95252043Y-117067273D01*
X95240424Y-117051281D01*
X95166509Y-116930663D01*
X95148992Y-116902077D01*
X95140022Y-116884472D01*
X95073056Y-116722803D01*
X95066948Y-116704003D01*
X95047885Y-116624596D01*
X95042635Y-116602730D01*
X95026100Y-116533855D01*
X95023007Y-116514328D01*
X95012009Y-116374583D01*
X95012994Y-116352258D01*
X95012334Y-116352199D01*
X95012769Y-116347351D01*
X95013576Y-116342552D01*
X95013729Y-116330000D01*
X95009773Y-116302376D01*
X95008500Y-116284514D01*
X95008500Y-106889733D01*
X120667822Y-106889733D01*
X120677625Y-107170458D01*
X120678387Y-107174781D01*
X120678388Y-107174788D01*
X120702164Y-107309624D01*
X120726402Y-107447087D01*
X120813203Y-107714235D01*
X120936340Y-107966702D01*
X120938795Y-107970341D01*
X120938798Y-107970347D01*
X121011890Y-108078710D01*
X121093415Y-108199576D01*
X121281371Y-108408322D01*
X121496550Y-108588879D01*
X121734764Y-108737731D01*
X121991375Y-108851982D01*
X122261390Y-108929407D01*
X122265740Y-108930018D01*
X122265743Y-108930019D01*
X122368690Y-108944487D01*
X122539552Y-108968500D01*
X122750146Y-108968500D01*
X122752332Y-108968347D01*
X122752336Y-108968347D01*
X122955827Y-108954118D01*
X122955832Y-108954117D01*
X122960212Y-108953811D01*
X123234970Y-108895409D01*
X123239099Y-108893906D01*
X123239103Y-108893905D01*
X123494781Y-108800846D01*
X123494785Y-108800844D01*
X123498926Y-108799337D01*
X123746942Y-108667464D01*
X123851896Y-108591211D01*
X123970629Y-108504947D01*
X123970632Y-108504944D01*
X123974192Y-108502358D01*
X124176252Y-108307231D01*
X124349188Y-108085882D01*
X124351384Y-108082078D01*
X124351389Y-108082071D01*
X124487435Y-107846431D01*
X124489636Y-107842619D01*
X124594862Y-107582176D01*
X124628544Y-107447087D01*
X124661753Y-107313893D01*
X124661754Y-107313888D01*
X124662817Y-107309624D01*
X124677952Y-107165627D01*
X124691719Y-107034636D01*
X124691719Y-107034633D01*
X124692178Y-107030267D01*
X124682375Y-106749542D01*
X124658608Y-106614749D01*
X124634360Y-106477236D01*
X124633598Y-106472913D01*
X124546797Y-106205765D01*
X124423660Y-105953298D01*
X124421205Y-105949659D01*
X124421202Y-105949653D01*
X124340935Y-105830653D01*
X124266585Y-105720424D01*
X124078629Y-105511678D01*
X123863450Y-105331121D01*
X123625236Y-105182269D01*
X123445376Y-105102190D01*
X123372639Y-105069805D01*
X123372637Y-105069804D01*
X123368625Y-105068018D01*
X123098610Y-104990593D01*
X123094260Y-104989982D01*
X123094257Y-104989981D01*
X122983447Y-104974408D01*
X122820448Y-104951500D01*
X122609854Y-104951500D01*
X122607668Y-104951653D01*
X122607664Y-104951653D01*
X122404173Y-104965882D01*
X122404168Y-104965883D01*
X122399788Y-104966189D01*
X122125030Y-105024591D01*
X122120901Y-105026094D01*
X122120897Y-105026095D01*
X121865219Y-105119154D01*
X121865215Y-105119156D01*
X121861074Y-105120663D01*
X121613058Y-105252536D01*
X121609499Y-105255122D01*
X121609497Y-105255123D01*
X121504895Y-105331121D01*
X121385808Y-105417642D01*
X121183748Y-105612769D01*
X121010812Y-105834118D01*
X121008616Y-105837922D01*
X121008611Y-105837929D01*
X120907429Y-106013183D01*
X120870364Y-106077381D01*
X120765138Y-106337824D01*
X120764073Y-106342097D01*
X120764072Y-106342099D01*
X120730379Y-106477236D01*
X120697183Y-106610376D01*
X120667822Y-106889733D01*
X95008500Y-106889733D01*
X95008500Y-103394669D01*
X121067001Y-103394669D01*
X121067371Y-103401490D01*
X121072895Y-103452352D01*
X121076521Y-103467604D01*
X121121676Y-103588054D01*
X121130214Y-103603649D01*
X121206715Y-103705724D01*
X121219276Y-103718285D01*
X121321351Y-103794786D01*
X121336946Y-103803324D01*
X121457394Y-103848478D01*
X121472649Y-103852105D01*
X121523514Y-103857631D01*
X121530328Y-103858000D01*
X122152885Y-103858000D01*
X122168124Y-103853525D01*
X122169329Y-103852135D01*
X122171000Y-103844452D01*
X122171000Y-102772115D01*
X122166525Y-102756876D01*
X122165135Y-102755671D01*
X122157452Y-102754000D01*
X121085116Y-102754000D01*
X121069877Y-102758475D01*
X121068672Y-102759865D01*
X121067001Y-102767548D01*
X121067001Y-103394669D01*
X95008500Y-103394669D01*
X95008500Y-102227885D01*
X121067000Y-102227885D01*
X121071475Y-102243124D01*
X121072865Y-102244329D01*
X121080548Y-102246000D01*
X122152885Y-102246000D01*
X122168124Y-102241525D01*
X122169329Y-102240135D01*
X122171000Y-102232452D01*
X122171000Y-101160116D01*
X122166525Y-101144877D01*
X122165135Y-101143672D01*
X122157452Y-101142001D01*
X121530331Y-101142001D01*
X121523510Y-101142371D01*
X121472648Y-101147895D01*
X121457396Y-101151521D01*
X121336946Y-101196676D01*
X121321351Y-101205214D01*
X121219276Y-101281715D01*
X121206715Y-101294276D01*
X121130214Y-101396351D01*
X121121676Y-101411946D01*
X121076522Y-101532394D01*
X121072895Y-101547649D01*
X121067369Y-101598514D01*
X121067000Y-101605328D01*
X121067000Y-102227885D01*
X95008500Y-102227885D01*
X95008500Y-79867966D01*
X102703257Y-79867966D01*
X102733565Y-80002446D01*
X102736645Y-80012275D01*
X102816770Y-80209603D01*
X102821413Y-80218794D01*
X102932694Y-80400388D01*
X102938777Y-80408699D01*
X103078213Y-80569667D01*
X103085580Y-80576883D01*
X103249434Y-80712916D01*
X103257881Y-80718831D01*
X103441756Y-80826279D01*
X103451042Y-80830729D01*
X103650001Y-80906703D01*
X103659899Y-80909579D01*
X103763250Y-80930606D01*
X103777299Y-80929410D01*
X103781000Y-80919065D01*
X103781000Y-80918517D01*
X104289000Y-80918517D01*
X104293064Y-80932359D01*
X104306478Y-80934393D01*
X104313184Y-80933534D01*
X104323262Y-80931392D01*
X104527255Y-80870191D01*
X104536842Y-80866433D01*
X104728095Y-80772739D01*
X104736945Y-80767464D01*
X104910328Y-80643792D01*
X104918193Y-80637145D01*
X105022897Y-80532805D01*
X105085268Y-80498889D01*
X105156075Y-80504077D01*
X105212837Y-80546723D01*
X105229819Y-80577826D01*
X105254204Y-80642872D01*
X105274385Y-80696705D01*
X105361739Y-80813261D01*
X105478295Y-80900615D01*
X105614684Y-80951745D01*
X105676866Y-80958500D01*
X107473134Y-80958500D01*
X107535316Y-80951745D01*
X107671705Y-80900615D01*
X107788261Y-80813261D01*
X107875615Y-80696705D01*
X107926745Y-80560316D01*
X107933500Y-80498134D01*
X107933500Y-78701866D01*
X107926745Y-78639684D01*
X107875615Y-78503295D01*
X107788261Y-78386739D01*
X107671705Y-78299385D01*
X107535316Y-78248255D01*
X107473134Y-78241500D01*
X105676866Y-78241500D01*
X105614684Y-78248255D01*
X105478295Y-78299385D01*
X105361739Y-78386739D01*
X105274385Y-78503295D01*
X105271233Y-78511703D01*
X105271232Y-78511705D01*
X105229722Y-78622433D01*
X105187081Y-78679198D01*
X105120519Y-78703898D01*
X105051170Y-78688691D01*
X105018546Y-78663004D01*
X104967799Y-78607234D01*
X104960273Y-78600215D01*
X104793139Y-78468222D01*
X104784552Y-78462517D01*
X104598117Y-78359599D01*
X104588705Y-78355369D01*
X104387959Y-78284280D01*
X104377988Y-78281646D01*
X104306837Y-78268972D01*
X104293540Y-78270432D01*
X104289000Y-78284989D01*
X104289000Y-80918517D01*
X103781000Y-80918517D01*
X103781000Y-79872115D01*
X103776525Y-79856876D01*
X103775135Y-79855671D01*
X103767452Y-79854000D01*
X102718225Y-79854000D01*
X102704694Y-79857973D01*
X102703257Y-79867966D01*
X95008500Y-79867966D01*
X95008500Y-79334183D01*
X102699389Y-79334183D01*
X102700912Y-79342607D01*
X102713292Y-79346000D01*
X103762885Y-79346000D01*
X103778124Y-79341525D01*
X103779329Y-79340135D01*
X103781000Y-79332452D01*
X103781000Y-78283102D01*
X103777082Y-78269758D01*
X103762806Y-78267771D01*
X103724324Y-78273660D01*
X103714288Y-78276051D01*
X103511868Y-78342212D01*
X103502359Y-78346209D01*
X103313463Y-78444542D01*
X103304738Y-78450036D01*
X103134433Y-78577905D01*
X103126726Y-78584748D01*
X102979590Y-78738717D01*
X102973104Y-78746727D01*
X102853098Y-78922649D01*
X102848000Y-78931623D01*
X102758338Y-79124783D01*
X102754775Y-79134470D01*
X102699389Y-79334183D01*
X95008500Y-79334183D01*
X95008500Y-67813359D01*
X102951386Y-67813359D01*
X102960099Y-67824879D01*
X103048586Y-67889760D01*
X103056505Y-67894708D01*
X103272877Y-68008547D01*
X103281451Y-68012275D01*
X103512282Y-68092885D01*
X103521291Y-68095299D01*
X103761518Y-68140908D01*
X103770775Y-68141962D01*
X104015107Y-68151563D01*
X104024420Y-68151237D01*
X104267478Y-68124618D01*
X104276655Y-68122917D01*
X104513107Y-68060665D01*
X104521926Y-68057628D01*
X104746584Y-67961107D01*
X104754856Y-67956800D01*
X104962777Y-67828135D01*
X104964620Y-67826796D01*
X104972038Y-67815541D01*
X104970760Y-67813359D01*
X108031386Y-67813359D01*
X108040099Y-67824879D01*
X108128586Y-67889760D01*
X108136505Y-67894708D01*
X108352877Y-68008547D01*
X108361451Y-68012275D01*
X108592282Y-68092885D01*
X108601291Y-68095299D01*
X108841518Y-68140908D01*
X108850775Y-68141962D01*
X109095107Y-68151563D01*
X109104420Y-68151237D01*
X109347478Y-68124618D01*
X109356655Y-68122917D01*
X109593107Y-68060665D01*
X109601926Y-68057628D01*
X109826584Y-67961107D01*
X109834856Y-67956800D01*
X110042777Y-67828135D01*
X110044620Y-67826796D01*
X110052038Y-67815541D01*
X110045974Y-67805184D01*
X109052812Y-66812022D01*
X109038868Y-66804408D01*
X109037035Y-66804539D01*
X109030420Y-66808790D01*
X108038044Y-67801166D01*
X108031386Y-67813359D01*
X104970760Y-67813359D01*
X104965974Y-67805184D01*
X103972812Y-66812022D01*
X103958868Y-66804408D01*
X103957035Y-66804539D01*
X103950420Y-66808790D01*
X102958044Y-67801166D01*
X102951386Y-67813359D01*
X95008500Y-67813359D01*
X95008500Y-66399835D01*
X102248022Y-66399835D01*
X102259754Y-66644064D01*
X102260891Y-66653324D01*
X102308593Y-66893143D01*
X102311082Y-66902118D01*
X102393708Y-67132250D01*
X102397505Y-67140778D01*
X102513234Y-67356160D01*
X102518245Y-67364027D01*
X102575173Y-67440263D01*
X102586431Y-67448712D01*
X102598850Y-67441940D01*
X103587978Y-66452812D01*
X103595592Y-66438868D01*
X103595461Y-66437035D01*
X103591210Y-66430420D01*
X102596828Y-65436038D01*
X102583520Y-65428771D01*
X102573481Y-65435893D01*
X102568581Y-65441784D01*
X102563168Y-65449373D01*
X102436322Y-65658409D01*
X102432084Y-65666726D01*
X102337529Y-65892214D01*
X102334572Y-65901052D01*
X102274384Y-66138042D01*
X102272763Y-66147232D01*
X102248267Y-66390510D01*
X102248022Y-66399835D01*
X95008500Y-66399835D01*
X95008500Y-65064917D01*
X102949330Y-65064917D01*
X102953903Y-65074693D01*
X105323732Y-67444522D01*
X105336112Y-67451282D01*
X105344453Y-67445038D01*
X105462700Y-67261202D01*
X105467147Y-67253011D01*
X105567572Y-67030076D01*
X105570767Y-67021298D01*
X105637135Y-66785973D01*
X105638993Y-66776844D01*
X105670044Y-66532770D01*
X105670525Y-66526483D01*
X105672706Y-66443160D01*
X105672555Y-66436851D01*
X105654321Y-66191486D01*
X105652944Y-66182280D01*
X105598979Y-65943786D01*
X105596255Y-65934875D01*
X105507633Y-65706983D01*
X105503619Y-65698567D01*
X105393906Y-65506611D01*
X105377469Y-65437543D01*
X105400982Y-65370553D01*
X105456980Y-65326910D01*
X105527684Y-65320469D01*
X105577802Y-65342474D01*
X105592094Y-65352953D01*
X105596229Y-65355129D01*
X105596233Y-65355131D01*
X105654803Y-65385946D01*
X105816827Y-65471191D01*
X106056568Y-65554912D01*
X106306050Y-65602278D01*
X106426532Y-65607011D01*
X106555125Y-65612064D01*
X106555130Y-65612064D01*
X106559793Y-65612247D01*
X106658774Y-65601407D01*
X106807569Y-65585112D01*
X106807575Y-65585111D01*
X106812222Y-65584602D01*
X106921680Y-65555784D01*
X107053273Y-65521138D01*
X107057793Y-65519948D01*
X107215787Y-65452069D01*
X107286807Y-65421557D01*
X107286810Y-65421555D01*
X107291110Y-65419708D01*
X107437401Y-65329181D01*
X107505851Y-65310344D01*
X107573621Y-65331505D01*
X107619192Y-65385946D01*
X107628095Y-65456382D01*
X107611421Y-65501692D01*
X107516319Y-65658415D01*
X107512084Y-65666726D01*
X107417529Y-65892214D01*
X107414572Y-65901052D01*
X107354384Y-66138042D01*
X107352763Y-66147232D01*
X107328267Y-66390510D01*
X107328022Y-66399835D01*
X107339754Y-66644064D01*
X107340891Y-66653324D01*
X107388593Y-66893143D01*
X107391082Y-66902118D01*
X107473708Y-67132250D01*
X107477505Y-67140778D01*
X107593234Y-67356160D01*
X107598245Y-67364027D01*
X107655173Y-67440263D01*
X107666431Y-67448712D01*
X107678850Y-67441940D01*
X108679658Y-66441132D01*
X109404408Y-66441132D01*
X109404539Y-66442965D01*
X109408790Y-66449580D01*
X110403732Y-67444522D01*
X110416112Y-67451282D01*
X110424453Y-67445038D01*
X110542700Y-67261202D01*
X110547147Y-67253011D01*
X110647572Y-67030076D01*
X110650767Y-67021298D01*
X110717135Y-66785973D01*
X110718993Y-66776844D01*
X110750044Y-66532770D01*
X110750525Y-66526483D01*
X110752706Y-66443160D01*
X110752555Y-66436851D01*
X110734321Y-66191486D01*
X110732944Y-66182280D01*
X110678979Y-65943786D01*
X110676255Y-65934875D01*
X110587633Y-65706983D01*
X110583619Y-65698567D01*
X110462284Y-65486276D01*
X110457074Y-65478553D01*
X110425787Y-65438865D01*
X110413863Y-65430395D01*
X110402328Y-65436882D01*
X109412022Y-66427188D01*
X109404408Y-66441132D01*
X108679658Y-66441132D01*
X110042488Y-65078302D01*
X110048872Y-65066612D01*
X110039460Y-65054502D01*
X109913144Y-64966873D01*
X109905116Y-64962145D01*
X109685810Y-64853995D01*
X109677177Y-64850507D01*
X109444288Y-64775958D01*
X109435238Y-64773785D01*
X109193891Y-64734480D01*
X109184602Y-64733668D01*
X108940114Y-64730467D01*
X108930803Y-64731037D01*
X108688522Y-64764010D01*
X108679403Y-64765948D01*
X108444668Y-64834367D01*
X108435915Y-64837639D01*
X108213869Y-64940004D01*
X108205714Y-64944524D01*
X108103020Y-65011853D01*
X108035085Y-65032476D01*
X107966784Y-65013096D01*
X107919804Y-64959867D01*
X107909059Y-64889688D01*
X107927964Y-64838318D01*
X107974514Y-64765948D01*
X108005669Y-64717512D01*
X108109967Y-64485980D01*
X108178896Y-64241575D01*
X108210943Y-63989667D01*
X108213291Y-63900000D01*
X108194472Y-63646759D01*
X108192342Y-63637342D01*
X108145587Y-63430720D01*
X108138428Y-63399082D01*
X108046391Y-63162409D01*
X108023400Y-63122182D01*
X107934288Y-62966269D01*
X107917851Y-62897201D01*
X107941364Y-62830212D01*
X107997362Y-62786568D01*
X108068066Y-62780128D01*
X108118187Y-62802135D01*
X108128584Y-62809759D01*
X108136505Y-62814708D01*
X108352877Y-62928547D01*
X108361451Y-62932275D01*
X108592282Y-63012885D01*
X108601291Y-63015299D01*
X108841518Y-63060908D01*
X108850775Y-63061962D01*
X109095107Y-63071563D01*
X109104420Y-63071237D01*
X109347478Y-63044618D01*
X109356655Y-63042917D01*
X109593107Y-62980665D01*
X109601926Y-62977628D01*
X109826584Y-62881107D01*
X109834856Y-62876800D01*
X110042777Y-62748135D01*
X110044620Y-62746796D01*
X110052038Y-62735541D01*
X110045974Y-62725184D01*
X108681922Y-61361132D01*
X109404408Y-61361132D01*
X109404539Y-61362965D01*
X109408790Y-61369580D01*
X110403732Y-62364522D01*
X110416112Y-62371282D01*
X110424453Y-62365038D01*
X110542700Y-62181202D01*
X110547147Y-62173011D01*
X110647572Y-61950076D01*
X110650767Y-61941298D01*
X110717135Y-61705973D01*
X110718993Y-61696844D01*
X110750044Y-61452770D01*
X110750525Y-61446483D01*
X110752706Y-61363160D01*
X110752555Y-61356851D01*
X110734321Y-61111486D01*
X110732944Y-61102280D01*
X110678979Y-60863786D01*
X110676255Y-60854875D01*
X110587633Y-60626983D01*
X110583619Y-60618567D01*
X110462284Y-60406276D01*
X110457074Y-60398553D01*
X110425787Y-60358865D01*
X110413863Y-60350395D01*
X110402328Y-60356882D01*
X109412022Y-61347188D01*
X109404408Y-61361132D01*
X108681922Y-61361132D01*
X107676828Y-60356038D01*
X107663520Y-60348771D01*
X107653481Y-60355893D01*
X107648581Y-60361784D01*
X107643168Y-60369373D01*
X107516322Y-60578409D01*
X107512084Y-60586726D01*
X107417529Y-60812214D01*
X107414572Y-60821052D01*
X107354384Y-61058042D01*
X107352763Y-61067232D01*
X107328267Y-61310510D01*
X107328022Y-61319835D01*
X107339754Y-61564064D01*
X107340891Y-61573324D01*
X107388593Y-61813143D01*
X107391082Y-61822118D01*
X107473708Y-62052250D01*
X107477505Y-62060778D01*
X107593234Y-62276160D01*
X107600759Y-62287973D01*
X107599671Y-62288666D01*
X107622385Y-62349781D01*
X107607214Y-62419137D01*
X107556953Y-62469281D01*
X107487562Y-62484292D01*
X107424877Y-62462152D01*
X107373400Y-62426441D01*
X107373388Y-62426434D01*
X107369561Y-62423779D01*
X107365384Y-62421719D01*
X107365377Y-62421715D01*
X107145996Y-62313528D01*
X107145992Y-62313527D01*
X107141810Y-62311464D01*
X106899960Y-62234047D01*
X106895355Y-62233297D01*
X106653935Y-62193980D01*
X106653934Y-62193980D01*
X106649323Y-62193229D01*
X106522364Y-62191567D01*
X106400083Y-62189966D01*
X106400080Y-62189966D01*
X106395406Y-62189905D01*
X106143787Y-62224149D01*
X105899993Y-62295208D01*
X105669380Y-62401522D01*
X105562655Y-62471494D01*
X105494721Y-62492117D01*
X105426421Y-62472737D01*
X105379440Y-62419508D01*
X105368695Y-62349329D01*
X105387600Y-62297960D01*
X105462696Y-62181209D01*
X105467147Y-62173011D01*
X105567572Y-61950076D01*
X105570767Y-61941298D01*
X105637135Y-61705973D01*
X105638993Y-61696844D01*
X105670044Y-61452770D01*
X105670525Y-61446483D01*
X105672706Y-61363160D01*
X105672555Y-61356851D01*
X105654321Y-61111486D01*
X105652944Y-61102280D01*
X105598979Y-60863786D01*
X105596255Y-60854875D01*
X105507633Y-60626983D01*
X105503619Y-60618567D01*
X105382284Y-60406276D01*
X105377074Y-60398553D01*
X105345787Y-60358865D01*
X105333863Y-60350395D01*
X105322328Y-60356882D01*
X102958044Y-62721166D01*
X102951386Y-62733359D01*
X102960099Y-62744879D01*
X103048586Y-62809760D01*
X103056505Y-62814708D01*
X103272877Y-62928547D01*
X103281451Y-62932275D01*
X103512282Y-63012885D01*
X103521291Y-63015299D01*
X103761518Y-63060908D01*
X103770775Y-63061962D01*
X104015107Y-63071563D01*
X104024420Y-63071237D01*
X104267478Y-63044618D01*
X104276655Y-63042917D01*
X104513107Y-62980665D01*
X104521926Y-62977628D01*
X104746584Y-62881107D01*
X104754856Y-62876800D01*
X104897034Y-62788818D01*
X104965486Y-62769980D01*
X105033256Y-62791141D01*
X105078827Y-62845582D01*
X105087731Y-62916018D01*
X105071056Y-62961326D01*
X104973447Y-63122182D01*
X104971638Y-63126496D01*
X104971637Y-63126498D01*
X104905280Y-63284743D01*
X104875246Y-63356365D01*
X104874095Y-63360897D01*
X104874094Y-63360900D01*
X104856362Y-63430720D01*
X104812738Y-63602490D01*
X104787296Y-63855151D01*
X104787520Y-63859817D01*
X104787520Y-63859822D01*
X104789299Y-63896851D01*
X104799480Y-64108798D01*
X104849021Y-64357857D01*
X104850600Y-64362255D01*
X104850602Y-64362262D01*
X104924480Y-64568028D01*
X104934831Y-64596858D01*
X104937048Y-64600984D01*
X105037330Y-64787618D01*
X105055025Y-64820551D01*
X105057821Y-64824296D01*
X105060336Y-64828243D01*
X105059277Y-64828918D01*
X105082033Y-64890144D01*
X105066862Y-64959501D01*
X105016602Y-65009646D01*
X104947211Y-65024658D01*
X104884525Y-65002517D01*
X104833148Y-64966876D01*
X104825115Y-64962144D01*
X104605810Y-64853995D01*
X104597177Y-64850507D01*
X104364288Y-64775958D01*
X104355238Y-64773785D01*
X104113891Y-64734480D01*
X104104602Y-64733668D01*
X103860114Y-64730467D01*
X103850803Y-64731037D01*
X103608522Y-64764010D01*
X103599403Y-64765948D01*
X103364668Y-64834367D01*
X103355915Y-64837639D01*
X103133869Y-64940004D01*
X103125714Y-64944524D01*
X102958468Y-65054175D01*
X102949330Y-65064917D01*
X95008500Y-65064917D01*
X95008500Y-61319835D01*
X102248022Y-61319835D01*
X102259754Y-61564064D01*
X102260891Y-61573324D01*
X102308593Y-61813143D01*
X102311082Y-61822118D01*
X102393708Y-62052250D01*
X102397505Y-62060778D01*
X102513234Y-62276160D01*
X102518245Y-62284027D01*
X102575173Y-62360263D01*
X102586431Y-62368712D01*
X102598850Y-62361940D01*
X103587978Y-61372812D01*
X103595592Y-61358868D01*
X103595461Y-61357035D01*
X103591210Y-61350420D01*
X102596828Y-60356038D01*
X102583520Y-60348771D01*
X102573481Y-60355893D01*
X102568581Y-60361784D01*
X102563168Y-60369373D01*
X102436322Y-60578409D01*
X102432084Y-60586726D01*
X102337529Y-60812214D01*
X102334572Y-60821052D01*
X102274384Y-61058042D01*
X102272763Y-61067232D01*
X102248267Y-61310510D01*
X102248022Y-61319835D01*
X95008500Y-61319835D01*
X95008500Y-59984917D01*
X102949330Y-59984917D01*
X102953903Y-59994693D01*
X103947188Y-60987978D01*
X103961132Y-60995592D01*
X103962965Y-60995461D01*
X103969580Y-60991210D01*
X104962488Y-59998302D01*
X104968872Y-59986612D01*
X104967555Y-59984917D01*
X108029330Y-59984917D01*
X108033903Y-59994693D01*
X109027188Y-60987978D01*
X109041132Y-60995592D01*
X109042965Y-60995461D01*
X109049580Y-60991210D01*
X110042488Y-59998302D01*
X110048872Y-59986612D01*
X110039460Y-59974502D01*
X109913144Y-59886873D01*
X109905116Y-59882145D01*
X109685810Y-59773995D01*
X109677177Y-59770507D01*
X109444288Y-59695958D01*
X109435238Y-59693785D01*
X109193891Y-59654480D01*
X109184602Y-59653668D01*
X108940114Y-59650467D01*
X108930803Y-59651037D01*
X108688522Y-59684010D01*
X108679403Y-59685948D01*
X108444668Y-59754367D01*
X108435915Y-59757639D01*
X108213869Y-59860004D01*
X108205714Y-59864524D01*
X108038468Y-59974175D01*
X108029330Y-59984917D01*
X104967555Y-59984917D01*
X104959460Y-59974502D01*
X104833144Y-59886873D01*
X104825116Y-59882145D01*
X104605810Y-59773995D01*
X104597177Y-59770507D01*
X104364288Y-59695958D01*
X104355238Y-59693785D01*
X104113891Y-59654480D01*
X104104602Y-59653668D01*
X103860114Y-59650467D01*
X103850803Y-59651037D01*
X103608522Y-59684010D01*
X103599403Y-59685948D01*
X103364668Y-59754367D01*
X103355915Y-59757639D01*
X103133869Y-59860004D01*
X103125714Y-59864524D01*
X102958468Y-59974175D01*
X102949330Y-59984917D01*
X95008500Y-59984917D01*
X95008500Y-58629733D01*
X121937822Y-58629733D01*
X121947625Y-58910458D01*
X121948387Y-58914781D01*
X121948388Y-58914788D01*
X121972164Y-59049624D01*
X121996402Y-59187087D01*
X122083203Y-59454235D01*
X122206340Y-59706702D01*
X122208795Y-59710341D01*
X122208798Y-59710347D01*
X122281890Y-59818710D01*
X122363415Y-59939576D01*
X122366360Y-59942847D01*
X122366361Y-59942848D01*
X122404240Y-59984917D01*
X122551371Y-60148322D01*
X122766550Y-60328879D01*
X123004764Y-60477731D01*
X123039681Y-60493277D01*
X123230890Y-60578409D01*
X123261375Y-60591982D01*
X123531390Y-60669407D01*
X123535740Y-60670018D01*
X123535743Y-60670019D01*
X123612740Y-60680840D01*
X123809552Y-60708500D01*
X124020146Y-60708500D01*
X124022332Y-60708347D01*
X124022336Y-60708347D01*
X124225827Y-60694118D01*
X124225832Y-60694117D01*
X124230212Y-60693811D01*
X124504970Y-60635409D01*
X124509099Y-60633906D01*
X124509103Y-60633905D01*
X124764781Y-60540846D01*
X124764785Y-60540844D01*
X124768926Y-60539337D01*
X125016942Y-60407464D01*
X125076178Y-60364427D01*
X125240629Y-60244947D01*
X125240632Y-60244944D01*
X125244192Y-60242358D01*
X125446252Y-60047231D01*
X125619188Y-59825882D01*
X125621384Y-59822078D01*
X125621389Y-59822071D01*
X125757435Y-59586431D01*
X125759636Y-59582619D01*
X125864862Y-59322176D01*
X125898544Y-59187087D01*
X125931753Y-59053893D01*
X125931754Y-59053888D01*
X125932817Y-59049624D01*
X125942022Y-58962049D01*
X125961719Y-58774636D01*
X125961719Y-58774633D01*
X125962178Y-58770267D01*
X125952375Y-58489542D01*
X125928608Y-58354749D01*
X125904360Y-58217236D01*
X125903598Y-58212913D01*
X125816797Y-57945765D01*
X125809167Y-57930120D01*
X125752320Y-57813569D01*
X125693660Y-57693298D01*
X125691205Y-57689659D01*
X125691202Y-57689653D01*
X125610935Y-57570653D01*
X125536585Y-57460424D01*
X125348629Y-57251678D01*
X125133450Y-57071121D01*
X124895236Y-56922269D01*
X124638625Y-56808018D01*
X124368610Y-56730593D01*
X124364260Y-56729982D01*
X124364257Y-56729981D01*
X124261310Y-56715513D01*
X124090448Y-56691500D01*
X123879854Y-56691500D01*
X123877668Y-56691653D01*
X123877664Y-56691653D01*
X123674173Y-56705882D01*
X123674168Y-56705883D01*
X123669788Y-56706189D01*
X123395030Y-56764591D01*
X123390901Y-56766094D01*
X123390897Y-56766095D01*
X123135219Y-56859154D01*
X123135215Y-56859156D01*
X123131074Y-56860663D01*
X122883058Y-56992536D01*
X122879499Y-56995122D01*
X122879497Y-56995123D01*
X122774895Y-57071121D01*
X122655808Y-57157642D01*
X122453748Y-57352769D01*
X122329714Y-57511526D01*
X122285654Y-57567921D01*
X122280812Y-57574118D01*
X122278616Y-57577922D01*
X122278611Y-57577929D01*
X122164794Y-57775067D01*
X122140364Y-57817381D01*
X122035138Y-58077824D01*
X122034073Y-58082097D01*
X122034072Y-58082099D01*
X122000379Y-58217236D01*
X121967183Y-58350376D01*
X121937822Y-58629733D01*
X95008500Y-58629733D01*
X95008500Y-49383250D01*
X95010246Y-49362345D01*
X95012770Y-49347344D01*
X95012770Y-49347341D01*
X95013576Y-49342552D01*
X95013729Y-49330000D01*
X95013039Y-49325180D01*
X95012335Y-49320263D01*
X95011450Y-49292515D01*
X95023007Y-49145672D01*
X95026100Y-49126145D01*
X95066948Y-48955997D01*
X95073058Y-48937192D01*
X95134641Y-48788518D01*
X95140022Y-48775528D01*
X95148992Y-48757923D01*
X95240426Y-48608716D01*
X95252046Y-48592723D01*
X95307615Y-48527661D01*
X95365689Y-48459665D01*
X95379667Y-48445687D01*
X95512727Y-48332043D01*
X95528716Y-48320426D01*
X95677923Y-48228992D01*
X95695528Y-48220022D01*
X95857197Y-48153056D01*
X95875995Y-48146949D01*
X95961071Y-48126524D01*
X96046145Y-48106100D01*
X96065672Y-48103007D01*
X96208987Y-48091728D01*
X96225875Y-48092370D01*
X96225877Y-48092200D01*
X96234853Y-48092310D01*
X96243724Y-48093691D01*
X96252626Y-48092527D01*
X96252628Y-48092527D01*
X96270864Y-48090142D01*
X96275286Y-48089564D01*
X96291621Y-48088500D01*
X173700633Y-48088500D01*
X173720018Y-48090000D01*
G37*
%TD.AperFunction*%
%TA.AperFunction,Conductor*%
G36*
X131293150Y-64778126D02*
G01*
X131327817Y-64806114D01*
X131356250Y-64838938D01*
X131528126Y-64981632D01*
X131532593Y-64984242D01*
X131647215Y-65051222D01*
X131695939Y-65102861D01*
X131708567Y-65143564D01*
X131717162Y-65208851D01*
X131720322Y-65216480D01*
X131721265Y-65218757D01*
X131778476Y-65356876D01*
X131783503Y-65363427D01*
X131783504Y-65363429D01*
X131851520Y-65452069D01*
X131851526Y-65452075D01*
X131876013Y-65483987D01*
X131882568Y-65489017D01*
X131901379Y-65503452D01*
X131913770Y-65514319D01*
X134055685Y-67656234D01*
X134066552Y-67668625D01*
X134086013Y-67693987D01*
X134092563Y-67699013D01*
X134117925Y-67718474D01*
X134117928Y-67718477D01*
X134151378Y-67744144D01*
X134213124Y-67791524D01*
X134361149Y-67852838D01*
X134369336Y-67853916D01*
X134369337Y-67853916D01*
X134380542Y-67855391D01*
X134411738Y-67859498D01*
X134480115Y-67868500D01*
X134480118Y-67868500D01*
X134480126Y-67868501D01*
X134511811Y-67872672D01*
X134520000Y-67873750D01*
X134551693Y-67869578D01*
X134568136Y-67868500D01*
X147335761Y-67868500D01*
X147403882Y-67888502D01*
X147424856Y-67905405D01*
X153414595Y-73895144D01*
X153448621Y-73957456D01*
X153451500Y-73984239D01*
X153451500Y-79851864D01*
X153450422Y-79868307D01*
X153446250Y-79900000D01*
X153451500Y-79939880D01*
X153451500Y-79939885D01*
X153460584Y-80008882D01*
X153467162Y-80058851D01*
X153528476Y-80206876D01*
X153533503Y-80213427D01*
X153533504Y-80213429D01*
X153601520Y-80302069D01*
X153601526Y-80302075D01*
X153626013Y-80333987D01*
X153632568Y-80339017D01*
X153651379Y-80353452D01*
X153663770Y-80364319D01*
X173554595Y-100255144D01*
X173588621Y-100317456D01*
X173591500Y-100344239D01*
X173591500Y-111420927D01*
X173571498Y-111489048D01*
X173517842Y-111535541D01*
X173447568Y-111545645D01*
X173382988Y-111516151D01*
X173351305Y-111474177D01*
X173319423Y-111405805D01*
X173319420Y-111405800D01*
X173317097Y-111400818D01*
X173189284Y-111218283D01*
X173031717Y-111060716D01*
X172872229Y-110949040D01*
X172827901Y-110893582D01*
X172818500Y-110845827D01*
X172818500Y-102228136D01*
X172819578Y-102211690D01*
X172822672Y-102188188D01*
X172823750Y-102180000D01*
X172818500Y-102140122D01*
X172818500Y-102140115D01*
X172802838Y-102021150D01*
X172766921Y-101934438D01*
X172741524Y-101873124D01*
X172731907Y-101860590D01*
X172668483Y-101777936D01*
X172668477Y-101777928D01*
X172668474Y-101777925D01*
X172643987Y-101746013D01*
X172637432Y-101740983D01*
X172618621Y-101726548D01*
X172606230Y-101715681D01*
X152195405Y-81304856D01*
X152161379Y-81242544D01*
X152158500Y-81215761D01*
X152158500Y-75548136D01*
X152159578Y-75531690D01*
X152162672Y-75508188D01*
X152163750Y-75500000D01*
X152158500Y-75460120D01*
X152158500Y-75460115D01*
X152145391Y-75360543D01*
X152142838Y-75341149D01*
X152081524Y-75193124D01*
X152008477Y-75097928D01*
X152008474Y-75097925D01*
X151983987Y-75066013D01*
X151971474Y-75056411D01*
X151958621Y-75046548D01*
X151946230Y-75035681D01*
X145814315Y-68903766D01*
X145803448Y-68891375D01*
X145789013Y-68872563D01*
X145783987Y-68866013D01*
X145752075Y-68841526D01*
X145752072Y-68841523D01*
X145656876Y-68768476D01*
X145508851Y-68707162D01*
X145500664Y-68706084D01*
X145500663Y-68706084D01*
X145489458Y-68704609D01*
X145458262Y-68700502D01*
X145389885Y-68691500D01*
X145389882Y-68691500D01*
X145389874Y-68691499D01*
X145358189Y-68687328D01*
X145350000Y-68686250D01*
X145318307Y-68690422D01*
X145301864Y-68691500D01*
X132464238Y-68691500D01*
X132396117Y-68671498D01*
X132375143Y-68654595D01*
X130415405Y-66694856D01*
X130381379Y-66632544D01*
X130378500Y-66605761D01*
X130378500Y-65349500D01*
X130398502Y-65281379D01*
X130452158Y-65234886D01*
X130504500Y-65223500D01*
X130668134Y-65223500D01*
X130730316Y-65216745D01*
X130866705Y-65165615D01*
X130983261Y-65078261D01*
X131070615Y-64961705D01*
X131110994Y-64853995D01*
X131114598Y-64844382D01*
X131157240Y-64787618D01*
X131223802Y-64762918D01*
X131293150Y-64778126D01*
G37*
%TD.AperFunction*%
%TA.AperFunction,Conductor*%
G36*
X128717012Y-67738015D02*
G01*
X128723595Y-67744144D01*
X131235685Y-70256234D01*
X131246552Y-70268625D01*
X131266013Y-70293987D01*
X131272563Y-70299013D01*
X131297921Y-70318471D01*
X131297937Y-70318485D01*
X131347305Y-70356366D01*
X131393124Y-70391524D01*
X131541149Y-70452838D01*
X131700000Y-70473751D01*
X131731699Y-70469578D01*
X131748144Y-70468500D01*
X134867395Y-70468500D01*
X134935516Y-70488502D01*
X134982009Y-70542158D01*
X134992113Y-70612432D01*
X134962619Y-70677012D01*
X134944106Y-70694457D01*
X134916013Y-70716013D01*
X134910983Y-70722568D01*
X134896548Y-70741379D01*
X134885681Y-70753770D01*
X134384856Y-71254595D01*
X134322544Y-71288621D01*
X134295761Y-71291500D01*
X134254513Y-71291500D01*
X134248061Y-71292872D01*
X134248056Y-71292872D01*
X134179945Y-71307350D01*
X134067712Y-71331206D01*
X134061682Y-71333891D01*
X134061681Y-71333891D01*
X133899278Y-71406197D01*
X133899276Y-71406198D01*
X133893248Y-71408882D01*
X133738747Y-71521134D01*
X133734326Y-71526044D01*
X133734325Y-71526045D01*
X133619905Y-71653122D01*
X133610960Y-71663056D01*
X133515473Y-71828444D01*
X133456458Y-72010072D01*
X133455768Y-72016633D01*
X133455768Y-72016635D01*
X133440878Y-72158310D01*
X133436496Y-72200000D01*
X133437186Y-72206565D01*
X133440188Y-72235123D01*
X133456458Y-72389928D01*
X133515473Y-72571556D01*
X133610960Y-72736944D01*
X133738747Y-72878866D01*
X133893248Y-72991118D01*
X133965066Y-73023093D01*
X134019162Y-73069073D01*
X134039127Y-73125029D01*
X134056458Y-73289928D01*
X134115473Y-73471556D01*
X134210960Y-73636944D01*
X134215378Y-73641851D01*
X134215379Y-73641852D01*
X134300664Y-73736571D01*
X134338747Y-73778866D01*
X134394661Y-73819490D01*
X134443636Y-73855073D01*
X134486990Y-73911296D01*
X134494885Y-73970179D01*
X134491532Y-74002081D01*
X134486496Y-74050000D01*
X134487186Y-74056565D01*
X134497510Y-74154788D01*
X134506458Y-74239928D01*
X134565473Y-74421556D01*
X134568776Y-74427278D01*
X134568777Y-74427279D01*
X134602686Y-74486010D01*
X134660960Y-74586944D01*
X134665378Y-74591851D01*
X134665379Y-74591852D01*
X134732717Y-74666638D01*
X134788747Y-74728866D01*
X134943248Y-74841118D01*
X134949276Y-74843802D01*
X134949278Y-74843803D01*
X135104813Y-74913051D01*
X135117712Y-74918794D01*
X135203101Y-74936944D01*
X135298056Y-74957128D01*
X135298061Y-74957128D01*
X135304513Y-74958500D01*
X135495487Y-74958500D01*
X135501939Y-74957128D01*
X135501944Y-74957128D01*
X135596899Y-74936944D01*
X135682288Y-74918794D01*
X135695187Y-74913051D01*
X135850722Y-74843803D01*
X135850724Y-74843802D01*
X135856752Y-74841118D01*
X136011253Y-74728866D01*
X136067283Y-74666638D01*
X136134621Y-74591852D01*
X136134622Y-74591851D01*
X136139040Y-74586944D01*
X136197314Y-74486010D01*
X136231223Y-74427279D01*
X136231224Y-74427278D01*
X136234527Y-74421556D01*
X136293542Y-74239928D01*
X136302491Y-74154788D01*
X136312814Y-74056565D01*
X136313504Y-74050000D01*
X136313316Y-74048214D01*
X136332816Y-73981804D01*
X136349719Y-73960830D01*
X136915144Y-73395405D01*
X136977456Y-73361379D01*
X137004239Y-73358500D01*
X137612831Y-73358500D01*
X137680952Y-73378502D01*
X137727445Y-73432158D01*
X137737549Y-73502432D01*
X137708055Y-73567012D01*
X137664080Y-73599607D01*
X137649278Y-73606197D01*
X137649276Y-73606198D01*
X137643248Y-73608882D01*
X137637907Y-73612762D01*
X137637906Y-73612763D01*
X137612494Y-73631226D01*
X137488747Y-73721134D01*
X137484326Y-73726044D01*
X137484325Y-73726045D01*
X137372716Y-73850000D01*
X137360960Y-73863056D01*
X137342434Y-73895144D01*
X137275968Y-74010267D01*
X137265473Y-74028444D01*
X137206458Y-74210072D01*
X137186496Y-74400000D01*
X137187186Y-74406565D01*
X137202566Y-74552894D01*
X137206458Y-74589928D01*
X137265473Y-74771556D01*
X137360960Y-74936944D01*
X137365378Y-74941851D01*
X137365379Y-74941852D01*
X137484325Y-75073955D01*
X137488747Y-75078866D01*
X137587843Y-75150864D01*
X137636990Y-75186571D01*
X137643248Y-75191118D01*
X137649274Y-75193801D01*
X137649281Y-75193805D01*
X137816748Y-75268365D01*
X137870844Y-75314345D01*
X137891500Y-75383472D01*
X137891500Y-75554139D01*
X137871498Y-75622260D01*
X137817842Y-75668753D01*
X137747568Y-75678857D01*
X137682988Y-75649363D01*
X137671869Y-75638454D01*
X137611253Y-75571134D01*
X137484855Y-75479300D01*
X137462094Y-75462763D01*
X137462093Y-75462762D01*
X137456752Y-75458882D01*
X137450724Y-75456198D01*
X137450722Y-75456197D01*
X137288319Y-75383891D01*
X137288318Y-75383891D01*
X137282288Y-75381206D01*
X137185077Y-75360543D01*
X137101944Y-75342872D01*
X137101939Y-75342872D01*
X137095487Y-75341500D01*
X136904513Y-75341500D01*
X136898061Y-75342872D01*
X136898056Y-75342872D01*
X136814923Y-75360543D01*
X136717712Y-75381206D01*
X136711682Y-75383891D01*
X136711681Y-75383891D01*
X136549278Y-75456197D01*
X136549276Y-75456198D01*
X136543248Y-75458882D01*
X136537907Y-75462762D01*
X136537906Y-75462763D01*
X136515145Y-75479300D01*
X136388747Y-75571134D01*
X136384329Y-75576041D01*
X136384325Y-75576045D01*
X136275890Y-75696475D01*
X136260960Y-75713056D01*
X136206963Y-75806581D01*
X136190243Y-75835542D01*
X136165473Y-75878444D01*
X136106458Y-76060072D01*
X136105768Y-76066633D01*
X136105768Y-76066635D01*
X136102291Y-76099715D01*
X136086496Y-76250000D01*
X136106458Y-76439928D01*
X136165473Y-76621556D01*
X136260960Y-76786944D01*
X136265378Y-76791851D01*
X136265379Y-76791852D01*
X136354130Y-76890420D01*
X136388747Y-76928866D01*
X136543248Y-77041118D01*
X136549276Y-77043802D01*
X136549278Y-77043803D01*
X136711681Y-77116109D01*
X136717712Y-77118794D01*
X136846802Y-77146233D01*
X136891697Y-77155776D01*
X136954171Y-77189505D01*
X136988492Y-77251654D01*
X136991500Y-77279023D01*
X136991500Y-84495761D01*
X136971498Y-84563882D01*
X136954595Y-84584856D01*
X135203766Y-86335685D01*
X135191375Y-86346552D01*
X135166013Y-86366013D01*
X135141526Y-86397925D01*
X135141523Y-86397928D01*
X135141517Y-86397936D01*
X135134462Y-86407130D01*
X135131658Y-86409178D01*
X135130662Y-86410313D01*
X135130656Y-86410319D01*
X135130419Y-86410082D01*
X135077124Y-86448997D01*
X135006253Y-86453219D01*
X134944350Y-86418455D01*
X134911069Y-86355742D01*
X134908500Y-86330426D01*
X134908500Y-83704239D01*
X134928502Y-83636118D01*
X134945405Y-83615144D01*
X135196234Y-83364315D01*
X135208625Y-83353448D01*
X135227437Y-83339013D01*
X135233987Y-83333987D01*
X135258474Y-83302075D01*
X135258478Y-83302071D01*
X135331524Y-83206876D01*
X135392838Y-83058851D01*
X135397634Y-83022417D01*
X135408500Y-82939885D01*
X135408500Y-82939880D01*
X135413750Y-82900000D01*
X135409578Y-82868307D01*
X135408500Y-82851864D01*
X135408500Y-82098136D01*
X135409578Y-82081690D01*
X135412672Y-82058188D01*
X135413750Y-82050000D01*
X135408500Y-82010120D01*
X135408500Y-82010115D01*
X135394276Y-81902072D01*
X135392838Y-81891149D01*
X135331524Y-81743124D01*
X135258478Y-81647929D01*
X135258474Y-81647925D01*
X135238850Y-81622351D01*
X135213251Y-81556133D01*
X135213140Y-81553465D01*
X135213504Y-81550000D01*
X135202736Y-81447548D01*
X135194232Y-81366635D01*
X135194232Y-81366633D01*
X135193542Y-81360072D01*
X135134527Y-81178444D01*
X135039040Y-81013056D01*
X134989586Y-80958131D01*
X134915675Y-80876045D01*
X134915674Y-80876044D01*
X134911253Y-80871134D01*
X134804310Y-80793435D01*
X134762094Y-80762763D01*
X134762093Y-80762762D01*
X134756752Y-80758882D01*
X134750724Y-80756198D01*
X134750722Y-80756197D01*
X134588319Y-80683891D01*
X134588318Y-80683891D01*
X134582288Y-80681206D01*
X134488888Y-80661353D01*
X134401944Y-80642872D01*
X134401939Y-80642872D01*
X134395487Y-80641500D01*
X134204513Y-80641500D01*
X134198061Y-80642872D01*
X134198056Y-80642872D01*
X134024170Y-80679833D01*
X134024167Y-80679834D01*
X134017712Y-80681206D01*
X134017079Y-80681488D01*
X133948305Y-80683455D01*
X133891237Y-80650688D01*
X132363644Y-79123095D01*
X132329618Y-79060783D01*
X132334683Y-78989968D01*
X132377230Y-78933132D01*
X132443750Y-78908321D01*
X132452739Y-78908000D01*
X133027885Y-78908000D01*
X133043124Y-78903525D01*
X133044329Y-78902135D01*
X133046000Y-78894452D01*
X133046000Y-78889884D01*
X133554000Y-78889884D01*
X133558475Y-78905123D01*
X133559865Y-78906328D01*
X133567548Y-78907999D01*
X134444669Y-78907999D01*
X134451490Y-78907629D01*
X134502352Y-78902105D01*
X134517604Y-78898479D01*
X134638054Y-78853324D01*
X134653649Y-78844786D01*
X134755724Y-78768285D01*
X134768285Y-78755724D01*
X134844786Y-78653649D01*
X134853324Y-78638054D01*
X134898478Y-78517606D01*
X134902105Y-78502351D01*
X134907631Y-78451486D01*
X134908000Y-78444672D01*
X134908000Y-77572115D01*
X134903525Y-77556876D01*
X134902135Y-77555671D01*
X134894452Y-77554000D01*
X134725668Y-77554000D01*
X134714643Y-77557237D01*
X134717881Y-77564328D01*
X134764458Y-77610905D01*
X134798484Y-77673217D01*
X134793419Y-77744032D01*
X134764458Y-77789095D01*
X133789095Y-78764458D01*
X133726783Y-78798484D01*
X133655968Y-78793419D01*
X133610905Y-78764458D01*
X133566812Y-78720365D01*
X133556723Y-78714856D01*
X133554000Y-78722157D01*
X133554000Y-78889884D01*
X133046000Y-78889884D01*
X133046000Y-78725668D01*
X133042763Y-78714643D01*
X133035672Y-78717881D01*
X132989095Y-78764458D01*
X132926783Y-78798484D01*
X132855968Y-78793419D01*
X132810905Y-78764458D01*
X132147579Y-78101132D01*
X132858751Y-78101132D01*
X132858882Y-78102965D01*
X132863133Y-78109580D01*
X132887188Y-78133635D01*
X132901132Y-78141249D01*
X132902965Y-78141118D01*
X132909580Y-78136867D01*
X132933635Y-78112812D01*
X132940013Y-78101132D01*
X133658751Y-78101132D01*
X133658882Y-78102965D01*
X133663133Y-78109580D01*
X133687188Y-78133635D01*
X133701132Y-78141249D01*
X133702965Y-78141118D01*
X133709580Y-78136867D01*
X133733635Y-78112812D01*
X133741249Y-78098868D01*
X133741118Y-78097035D01*
X133736867Y-78090420D01*
X133712812Y-78066365D01*
X133698868Y-78058751D01*
X133697035Y-78058882D01*
X133690420Y-78063133D01*
X133666365Y-78087188D01*
X133658751Y-78101132D01*
X132940013Y-78101132D01*
X132941249Y-78098868D01*
X132941118Y-78097035D01*
X132936867Y-78090420D01*
X132912812Y-78066365D01*
X132898868Y-78058751D01*
X132897035Y-78058882D01*
X132890420Y-78063133D01*
X132866365Y-78087188D01*
X132858751Y-78101132D01*
X132147579Y-78101132D01*
X131835542Y-77789095D01*
X131801516Y-77726783D01*
X131803351Y-77701132D01*
X132458751Y-77701132D01*
X132458882Y-77702965D01*
X132463133Y-77709580D01*
X132487188Y-77733635D01*
X132501132Y-77741249D01*
X132502965Y-77741118D01*
X132509580Y-77736867D01*
X132533635Y-77712812D01*
X132540013Y-77701132D01*
X134058751Y-77701132D01*
X134058882Y-77702965D01*
X134063133Y-77709580D01*
X134087188Y-77733635D01*
X134101132Y-77741249D01*
X134102965Y-77741118D01*
X134109580Y-77736867D01*
X134133635Y-77712812D01*
X134141249Y-77698868D01*
X134141118Y-77697035D01*
X134136867Y-77690420D01*
X134112812Y-77666365D01*
X134098868Y-77658751D01*
X134097035Y-77658882D01*
X134090420Y-77663133D01*
X134066365Y-77687188D01*
X134058751Y-77701132D01*
X132540013Y-77701132D01*
X132541249Y-77698868D01*
X132541118Y-77697035D01*
X132536867Y-77690420D01*
X132512812Y-77666365D01*
X132498868Y-77658751D01*
X132497035Y-77658882D01*
X132490420Y-77663133D01*
X132466365Y-77687188D01*
X132458751Y-77701132D01*
X131803351Y-77701132D01*
X131806581Y-77655968D01*
X131835542Y-77610905D01*
X131879635Y-77566812D01*
X131885144Y-77556723D01*
X131877843Y-77554000D01*
X131710116Y-77554000D01*
X131694877Y-77558475D01*
X131693672Y-77559865D01*
X131692001Y-77567548D01*
X131692001Y-78147262D01*
X131671999Y-78215383D01*
X131618343Y-78261876D01*
X131548069Y-78271980D01*
X131483489Y-78242486D01*
X131476906Y-78236357D01*
X130585405Y-77344856D01*
X130551379Y-77282544D01*
X130548500Y-77255761D01*
X130548500Y-77027885D01*
X131692000Y-77027885D01*
X131696475Y-77043124D01*
X131697865Y-77044329D01*
X131705548Y-77046000D01*
X131874332Y-77046000D01*
X131885357Y-77042763D01*
X131882119Y-77035672D01*
X131835542Y-76989095D01*
X131801516Y-76926783D01*
X131803351Y-76901132D01*
X132458751Y-76901132D01*
X132458882Y-76902965D01*
X132463133Y-76909580D01*
X132487188Y-76933635D01*
X132501132Y-76941249D01*
X132502965Y-76941118D01*
X132509580Y-76936867D01*
X132533635Y-76912812D01*
X132540013Y-76901132D01*
X134058751Y-76901132D01*
X134058882Y-76902965D01*
X134063133Y-76909580D01*
X134087188Y-76933635D01*
X134101132Y-76941249D01*
X134102965Y-76941118D01*
X134109580Y-76936867D01*
X134133635Y-76912812D01*
X134141249Y-76898868D01*
X134141118Y-76897035D01*
X134136867Y-76890420D01*
X134112812Y-76866365D01*
X134098868Y-76858751D01*
X134097035Y-76858882D01*
X134090420Y-76863133D01*
X134066365Y-76887188D01*
X134058751Y-76901132D01*
X132540013Y-76901132D01*
X132541249Y-76898868D01*
X132541118Y-76897035D01*
X132536867Y-76890420D01*
X132512812Y-76866365D01*
X132498868Y-76858751D01*
X132497035Y-76858882D01*
X132490420Y-76863133D01*
X132466365Y-76887188D01*
X132458751Y-76901132D01*
X131803351Y-76901132D01*
X131806581Y-76855968D01*
X131835542Y-76810905D01*
X132145315Y-76501132D01*
X132858751Y-76501132D01*
X132858882Y-76502965D01*
X132863133Y-76509580D01*
X132887188Y-76533635D01*
X132901132Y-76541249D01*
X132902965Y-76541118D01*
X132909580Y-76536867D01*
X132933635Y-76512812D01*
X132940013Y-76501132D01*
X133658751Y-76501132D01*
X133658882Y-76502965D01*
X133663133Y-76509580D01*
X133687188Y-76533635D01*
X133701132Y-76541249D01*
X133702965Y-76541118D01*
X133709580Y-76536867D01*
X133733635Y-76512812D01*
X133741249Y-76498868D01*
X133741118Y-76497035D01*
X133736867Y-76490420D01*
X133712812Y-76466365D01*
X133698868Y-76458751D01*
X133697035Y-76458882D01*
X133690420Y-76463133D01*
X133666365Y-76487188D01*
X133658751Y-76501132D01*
X132940013Y-76501132D01*
X132941249Y-76498868D01*
X132941118Y-76497035D01*
X132936867Y-76490420D01*
X132912812Y-76466365D01*
X132898868Y-76458751D01*
X132897035Y-76458882D01*
X132890420Y-76463133D01*
X132866365Y-76487188D01*
X132858751Y-76501132D01*
X132145315Y-76501132D01*
X132810905Y-75835542D01*
X132873217Y-75801516D01*
X132944032Y-75806581D01*
X132989095Y-75835542D01*
X133033188Y-75879635D01*
X133043277Y-75885144D01*
X133046000Y-75877843D01*
X133046000Y-75874332D01*
X133554000Y-75874332D01*
X133557237Y-75885357D01*
X133564328Y-75882119D01*
X133610905Y-75835542D01*
X133673217Y-75801516D01*
X133744032Y-75806581D01*
X133789095Y-75835542D01*
X134764458Y-76810905D01*
X134798484Y-76873217D01*
X134793419Y-76944032D01*
X134764458Y-76989095D01*
X134720365Y-77033188D01*
X134714856Y-77043277D01*
X134722157Y-77046000D01*
X134889884Y-77046000D01*
X134905123Y-77041525D01*
X134906328Y-77040135D01*
X134907999Y-77032452D01*
X134907999Y-76155331D01*
X134907629Y-76148510D01*
X134902105Y-76097648D01*
X134898479Y-76082396D01*
X134853324Y-75961946D01*
X134844786Y-75946351D01*
X134768285Y-75844276D01*
X134755724Y-75831715D01*
X134653649Y-75755214D01*
X134638054Y-75746676D01*
X134517606Y-75701522D01*
X134502351Y-75697895D01*
X134451486Y-75692369D01*
X134444672Y-75692000D01*
X133572115Y-75692000D01*
X133556876Y-75696475D01*
X133555671Y-75697865D01*
X133554000Y-75705548D01*
X133554000Y-75874332D01*
X133046000Y-75874332D01*
X133046000Y-75710116D01*
X133041525Y-75694877D01*
X133040135Y-75693672D01*
X133032452Y-75692001D01*
X132155331Y-75692001D01*
X132148510Y-75692371D01*
X132097648Y-75697895D01*
X132082396Y-75701521D01*
X131961946Y-75746676D01*
X131946351Y-75755214D01*
X131844276Y-75831715D01*
X131831715Y-75844276D01*
X131755214Y-75946351D01*
X131746676Y-75961946D01*
X131701522Y-76082394D01*
X131697895Y-76097649D01*
X131692369Y-76148514D01*
X131692000Y-76155328D01*
X131692000Y-77027885D01*
X130548500Y-77027885D01*
X130548500Y-74098144D01*
X130549578Y-74081698D01*
X130552673Y-74058188D01*
X130553751Y-74050000D01*
X130532838Y-73891149D01*
X130471524Y-73743124D01*
X130398478Y-73647929D01*
X130398474Y-73647925D01*
X130398471Y-73647921D01*
X130379016Y-73622566D01*
X130379013Y-73622563D01*
X130373987Y-73616013D01*
X130352607Y-73599607D01*
X130348621Y-73596548D01*
X130336230Y-73585681D01*
X128545405Y-71794856D01*
X128511379Y-71732544D01*
X128508500Y-71705761D01*
X128508500Y-67833239D01*
X128528502Y-67765118D01*
X128582158Y-67718625D01*
X128652432Y-67708521D01*
X128717012Y-67738015D01*
G37*
%TD.AperFunction*%
%TD*%
M02*
