%TF.GenerationSoftware,KiCad,Pcbnew,(6.0.4)*%
%TF.CreationDate,2022-11-04T05:35:43-04:00*%
%TF.ProjectId,SI4743 Breakout,53493437-3433-4204-9272-65616b6f7574,rev?*%
%TF.SameCoordinates,Original*%
%TF.FileFunction,Legend,Top*%
%TF.FilePolarity,Positive*%
%FSLAX46Y46*%
G04 Gerber Fmt 4.6, Leading zero omitted, Abs format (unit mm)*
G04 Created by KiCad (PCBNEW (6.0.4)) date 2022-11-04 05:35:43*
%MOMM*%
%LPD*%
G01*
G04 APERTURE LIST*
%ADD10C,0.300000*%
%ADD11C,0.150000*%
%ADD12C,0.120000*%
%ADD13C,0.127000*%
%ADD14C,0.200000*%
%ADD15C,0.010000*%
G04 APERTURE END LIST*
D10*
X155814285Y-66178571D02*
X155314285Y-65464285D01*
X154957142Y-66178571D02*
X154957142Y-64678571D01*
X155528571Y-64678571D01*
X155671428Y-64750000D01*
X155742857Y-64821428D01*
X155814285Y-64964285D01*
X155814285Y-65178571D01*
X155742857Y-65321428D01*
X155671428Y-65392857D01*
X155528571Y-65464285D01*
X154957142Y-65464285D01*
X157100000Y-66178571D02*
X157100000Y-65392857D01*
X157028571Y-65250000D01*
X156885714Y-65178571D01*
X156600000Y-65178571D01*
X156457142Y-65250000D01*
X157100000Y-66107142D02*
X156957142Y-66178571D01*
X156600000Y-66178571D01*
X156457142Y-66107142D01*
X156385714Y-65964285D01*
X156385714Y-65821428D01*
X156457142Y-65678571D01*
X156600000Y-65607142D01*
X156957142Y-65607142D01*
X157100000Y-65535714D01*
X158457142Y-66178571D02*
X158457142Y-64678571D01*
X158457142Y-66107142D02*
X158314285Y-66178571D01*
X158028571Y-66178571D01*
X157885714Y-66107142D01*
X157814285Y-66035714D01*
X157742857Y-65892857D01*
X157742857Y-65464285D01*
X157814285Y-65321428D01*
X157885714Y-65250000D01*
X158028571Y-65178571D01*
X158314285Y-65178571D01*
X158457142Y-65250000D01*
X159171428Y-66178571D02*
X159171428Y-65178571D01*
X159171428Y-64678571D02*
X159100000Y-64750000D01*
X159171428Y-64821428D01*
X159242857Y-64750000D01*
X159171428Y-64678571D01*
X159171428Y-64821428D01*
X160100000Y-66178571D02*
X159957142Y-66107142D01*
X159885714Y-66035714D01*
X159814285Y-65892857D01*
X159814285Y-65464285D01*
X159885714Y-65321428D01*
X159957142Y-65250000D01*
X160100000Y-65178571D01*
X160314285Y-65178571D01*
X160457142Y-65250000D01*
X160528571Y-65321428D01*
X160600000Y-65464285D01*
X160600000Y-65892857D01*
X160528571Y-66035714D01*
X160457142Y-66107142D01*
X160314285Y-66178571D01*
X160100000Y-66178571D01*
X162385714Y-66178571D02*
X162385714Y-64678571D01*
X162742857Y-64678571D01*
X162957142Y-64750000D01*
X163100000Y-64892857D01*
X163171428Y-65035714D01*
X163242857Y-65321428D01*
X163242857Y-65535714D01*
X163171428Y-65821428D01*
X163100000Y-65964285D01*
X162957142Y-66107142D01*
X162742857Y-66178571D01*
X162385714Y-66178571D01*
X164457142Y-66107142D02*
X164314285Y-66178571D01*
X164028571Y-66178571D01*
X163885714Y-66107142D01*
X163814285Y-65964285D01*
X163814285Y-65392857D01*
X163885714Y-65250000D01*
X164028571Y-65178571D01*
X164314285Y-65178571D01*
X164457142Y-65250000D01*
X164528571Y-65392857D01*
X164528571Y-65535714D01*
X163814285Y-65678571D01*
X165028571Y-65178571D02*
X165385714Y-66178571D01*
X165742857Y-65178571D01*
X167957142Y-65392857D02*
X168171428Y-65464285D01*
X168242857Y-65535714D01*
X168314285Y-65678571D01*
X168314285Y-65892857D01*
X168242857Y-66035714D01*
X168171428Y-66107142D01*
X168028571Y-66178571D01*
X167457142Y-66178571D01*
X167457142Y-64678571D01*
X167957142Y-64678571D01*
X168100000Y-64750000D01*
X168171428Y-64821428D01*
X168242857Y-64964285D01*
X168242857Y-65107142D01*
X168171428Y-65250000D01*
X168100000Y-65321428D01*
X167957142Y-65392857D01*
X167457142Y-65392857D01*
X169171428Y-66178571D02*
X169028571Y-66107142D01*
X168957142Y-66035714D01*
X168885714Y-65892857D01*
X168885714Y-65464285D01*
X168957142Y-65321428D01*
X169028571Y-65250000D01*
X169171428Y-65178571D01*
X169385714Y-65178571D01*
X169528571Y-65250000D01*
X169600000Y-65321428D01*
X169671428Y-65464285D01*
X169671428Y-65892857D01*
X169600000Y-66035714D01*
X169528571Y-66107142D01*
X169385714Y-66178571D01*
X169171428Y-66178571D01*
X170957142Y-66178571D02*
X170957142Y-65392857D01*
X170885714Y-65250000D01*
X170742857Y-65178571D01*
X170457142Y-65178571D01*
X170314285Y-65250000D01*
X170957142Y-66107142D02*
X170814285Y-66178571D01*
X170457142Y-66178571D01*
X170314285Y-66107142D01*
X170242857Y-65964285D01*
X170242857Y-65821428D01*
X170314285Y-65678571D01*
X170457142Y-65607142D01*
X170814285Y-65607142D01*
X170957142Y-65535714D01*
X171671428Y-66178571D02*
X171671428Y-65178571D01*
X171671428Y-65464285D02*
X171742857Y-65321428D01*
X171814285Y-65250000D01*
X171957142Y-65178571D01*
X172100000Y-65178571D01*
X173242857Y-66178571D02*
X173242857Y-64678571D01*
X173242857Y-66107142D02*
X173100000Y-66178571D01*
X172814285Y-66178571D01*
X172671428Y-66107142D01*
X172600000Y-66035714D01*
X172528571Y-65892857D01*
X172528571Y-65464285D01*
X172600000Y-65321428D01*
X172671428Y-65250000D01*
X172814285Y-65178571D01*
X173100000Y-65178571D01*
X173242857Y-65250000D01*
X153500000Y-62150000D02*
X154214285Y-62150000D01*
X153357142Y-62578571D02*
X153857142Y-61078571D01*
X154357142Y-62578571D01*
X154857142Y-62578571D02*
X154857142Y-61078571D01*
X155357142Y-62150000D01*
X155857142Y-61078571D01*
X155857142Y-62578571D01*
X157642857Y-61007142D02*
X156357142Y-62935714D01*
X158857142Y-62578571D02*
X158142857Y-62578571D01*
X158142857Y-61078571D01*
X159214285Y-61078571D02*
X159571428Y-62578571D01*
X159857142Y-61507142D01*
X160142857Y-62578571D01*
X160500000Y-61078571D01*
X162142857Y-61007142D02*
X160857142Y-62935714D01*
X162571428Y-62507142D02*
X162785714Y-62578571D01*
X163142857Y-62578571D01*
X163285714Y-62507142D01*
X163357142Y-62435714D01*
X163428571Y-62292857D01*
X163428571Y-62150000D01*
X163357142Y-62007142D01*
X163285714Y-61935714D01*
X163142857Y-61864285D01*
X162857142Y-61792857D01*
X162714285Y-61721428D01*
X162642857Y-61650000D01*
X162571428Y-61507142D01*
X162571428Y-61364285D01*
X162642857Y-61221428D01*
X162714285Y-61150000D01*
X162857142Y-61078571D01*
X163214285Y-61078571D01*
X163428571Y-61150000D01*
X163928571Y-61078571D02*
X164285714Y-62578571D01*
X164571428Y-61507142D01*
X164857142Y-62578571D01*
X165214285Y-61078571D01*
X166857142Y-61007142D02*
X165571428Y-62935714D01*
X167857142Y-61792857D02*
X167357142Y-61792857D01*
X167357142Y-62578571D02*
X167357142Y-61078571D01*
X168071428Y-61078571D01*
X168642857Y-62578571D02*
X168642857Y-61078571D01*
X169142857Y-62150000D01*
X169642857Y-61078571D01*
X169642857Y-62578571D01*
X171428571Y-61007142D02*
X170142857Y-62935714D01*
X171785714Y-61078571D02*
X172142857Y-62578571D01*
X172428571Y-61507142D01*
X172714285Y-62578571D01*
X173071428Y-61078571D01*
X174142857Y-61792857D02*
X174357142Y-61864285D01*
X174428571Y-61935714D01*
X174499999Y-62078571D01*
X174499999Y-62292857D01*
X174428571Y-62435714D01*
X174357142Y-62507142D01*
X174214285Y-62578571D01*
X173642857Y-62578571D01*
X173642857Y-61078571D01*
X174142857Y-61078571D01*
X174285714Y-61150000D01*
X174357142Y-61221428D01*
X174428571Y-61364285D01*
X174428571Y-61507142D01*
X174357142Y-61650000D01*
X174285714Y-61721428D01*
X174142857Y-61792857D01*
X173642857Y-61792857D01*
X148314285Y-79128571D02*
X147814285Y-78414285D01*
X147457142Y-79128571D02*
X147457142Y-77628571D01*
X148028571Y-77628571D01*
X148171428Y-77700000D01*
X148242857Y-77771428D01*
X148314285Y-77914285D01*
X148314285Y-78128571D01*
X148242857Y-78271428D01*
X148171428Y-78342857D01*
X148028571Y-78414285D01*
X147457142Y-78414285D01*
X148214285Y-76478571D02*
X147500000Y-76478571D01*
X147500000Y-74978571D01*
D11*
%TO.C,JP1*%
X104332380Y-75218333D02*
X105046666Y-75218333D01*
X105189523Y-75265952D01*
X105284761Y-75361190D01*
X105332380Y-75504047D01*
X105332380Y-75599285D01*
X105332380Y-74742142D02*
X104332380Y-74742142D01*
X104332380Y-74361190D01*
X104380000Y-74265952D01*
X104427619Y-74218333D01*
X104522857Y-74170714D01*
X104665714Y-74170714D01*
X104760952Y-74218333D01*
X104808571Y-74265952D01*
X104856190Y-74361190D01*
X104856190Y-74742142D01*
X105332380Y-73218333D02*
X105332380Y-73789761D01*
X105332380Y-73504047D02*
X104332380Y-73504047D01*
X104475238Y-73599285D01*
X104570476Y-73694523D01*
X104618095Y-73789761D01*
%TO.C,D1*%
X127811904Y-76252380D02*
X127811904Y-75252380D01*
X128050000Y-75252380D01*
X128192857Y-75300000D01*
X128288095Y-75395238D01*
X128335714Y-75490476D01*
X128383333Y-75680952D01*
X128383333Y-75823809D01*
X128335714Y-76014285D01*
X128288095Y-76109523D01*
X128192857Y-76204761D01*
X128050000Y-76252380D01*
X127811904Y-76252380D01*
X129335714Y-76252380D02*
X128764285Y-76252380D01*
X129050000Y-76252380D02*
X129050000Y-75252380D01*
X128954761Y-75395238D01*
X128859523Y-75490476D01*
X128764285Y-75538095D01*
%TO.C,D2*%
X127811904Y-80952380D02*
X127811904Y-79952380D01*
X128050000Y-79952380D01*
X128192857Y-80000000D01*
X128288095Y-80095238D01*
X128335714Y-80190476D01*
X128383333Y-80380952D01*
X128383333Y-80523809D01*
X128335714Y-80714285D01*
X128288095Y-80809523D01*
X128192857Y-80904761D01*
X128050000Y-80952380D01*
X127811904Y-80952380D01*
X128764285Y-80047619D02*
X128811904Y-80000000D01*
X128907142Y-79952380D01*
X129145238Y-79952380D01*
X129240476Y-80000000D01*
X129288095Y-80047619D01*
X129335714Y-80142857D01*
X129335714Y-80238095D01*
X129288095Y-80380952D01*
X128716666Y-80952380D01*
X129335714Y-80952380D01*
%TO.C,R3*%
X165653333Y-74212380D02*
X165320000Y-73736190D01*
X165081904Y-74212380D02*
X165081904Y-73212380D01*
X165462857Y-73212380D01*
X165558095Y-73260000D01*
X165605714Y-73307619D01*
X165653333Y-73402857D01*
X165653333Y-73545714D01*
X165605714Y-73640952D01*
X165558095Y-73688571D01*
X165462857Y-73736190D01*
X165081904Y-73736190D01*
X165986666Y-73212380D02*
X166605714Y-73212380D01*
X166272380Y-73593333D01*
X166415238Y-73593333D01*
X166510476Y-73640952D01*
X166558095Y-73688571D01*
X166605714Y-73783809D01*
X166605714Y-74021904D01*
X166558095Y-74117142D01*
X166510476Y-74164761D01*
X166415238Y-74212380D01*
X166129523Y-74212380D01*
X166034285Y-74164761D01*
X165986666Y-74117142D01*
%TO.C,C1*%
X162533333Y-78857142D02*
X162485714Y-78904761D01*
X162342857Y-78952380D01*
X162247619Y-78952380D01*
X162104761Y-78904761D01*
X162009523Y-78809523D01*
X161961904Y-78714285D01*
X161914285Y-78523809D01*
X161914285Y-78380952D01*
X161961904Y-78190476D01*
X162009523Y-78095238D01*
X162104761Y-78000000D01*
X162247619Y-77952380D01*
X162342857Y-77952380D01*
X162485714Y-78000000D01*
X162533333Y-78047619D01*
X163485714Y-78952380D02*
X162914285Y-78952380D01*
X163200000Y-78952380D02*
X163200000Y-77952380D01*
X163104761Y-78095238D01*
X163009523Y-78190476D01*
X162914285Y-78238095D01*
%TO.C,J7*%
X92817380Y-114988333D02*
X93531666Y-114988333D01*
X93674523Y-115035952D01*
X93769761Y-115131190D01*
X93817380Y-115274047D01*
X93817380Y-115369285D01*
X92817380Y-114607380D02*
X92817380Y-113940714D01*
X93817380Y-114369285D01*
%TO.C,J2*%
X108357380Y-79933333D02*
X109071666Y-79933333D01*
X109214523Y-79980952D01*
X109309761Y-80076190D01*
X109357380Y-80219047D01*
X109357380Y-80314285D01*
X108452619Y-79504761D02*
X108405000Y-79457142D01*
X108357380Y-79361904D01*
X108357380Y-79123809D01*
X108405000Y-79028571D01*
X108452619Y-78980952D01*
X108547857Y-78933333D01*
X108643095Y-78933333D01*
X108785952Y-78980952D01*
X109357380Y-79552380D01*
X109357380Y-78933333D01*
%TO.C,J1*%
X166082380Y-82413333D02*
X166796666Y-82413333D01*
X166939523Y-82460952D01*
X167034761Y-82556190D01*
X167082380Y-82699047D01*
X167082380Y-82794285D01*
X167082380Y-81413333D02*
X167082380Y-81984761D01*
X167082380Y-81699047D02*
X166082380Y-81699047D01*
X166225238Y-81794285D01*
X166320476Y-81889523D01*
X166368095Y-81984761D01*
%TO.C,U1*%
X153238095Y-85752380D02*
X153238095Y-86561904D01*
X153285714Y-86657142D01*
X153333333Y-86704761D01*
X153428571Y-86752380D01*
X153619047Y-86752380D01*
X153714285Y-86704761D01*
X153761904Y-86657142D01*
X153809523Y-86561904D01*
X153809523Y-85752380D01*
X154809523Y-86752380D02*
X154238095Y-86752380D01*
X154523809Y-86752380D02*
X154523809Y-85752380D01*
X154428571Y-85895238D01*
X154333333Y-85990476D01*
X154238095Y-86038095D01*
%TO.C,C7*%
X139283333Y-81827142D02*
X139235714Y-81874761D01*
X139092857Y-81922380D01*
X138997619Y-81922380D01*
X138854761Y-81874761D01*
X138759523Y-81779523D01*
X138711904Y-81684285D01*
X138664285Y-81493809D01*
X138664285Y-81350952D01*
X138711904Y-81160476D01*
X138759523Y-81065238D01*
X138854761Y-80970000D01*
X138997619Y-80922380D01*
X139092857Y-80922380D01*
X139235714Y-80970000D01*
X139283333Y-81017619D01*
X139616666Y-80922380D02*
X140283333Y-80922380D01*
X139854761Y-81922380D01*
%TO.C,C2*%
X117870833Y-66357142D02*
X117823214Y-66404761D01*
X117680357Y-66452380D01*
X117585119Y-66452380D01*
X117442261Y-66404761D01*
X117347023Y-66309523D01*
X117299404Y-66214285D01*
X117251785Y-66023809D01*
X117251785Y-65880952D01*
X117299404Y-65690476D01*
X117347023Y-65595238D01*
X117442261Y-65500000D01*
X117585119Y-65452380D01*
X117680357Y-65452380D01*
X117823214Y-65500000D01*
X117870833Y-65547619D01*
X118251785Y-65547619D02*
X118299404Y-65500000D01*
X118394642Y-65452380D01*
X118632738Y-65452380D01*
X118727976Y-65500000D01*
X118775595Y-65547619D01*
X118823214Y-65642857D01*
X118823214Y-65738095D01*
X118775595Y-65880952D01*
X118204166Y-66452380D01*
X118823214Y-66452380D01*
%TO.C,J4*%
X118952380Y-102783333D02*
X119666666Y-102783333D01*
X119809523Y-102830952D01*
X119904761Y-102926190D01*
X119952380Y-103069047D01*
X119952380Y-103164285D01*
X119285714Y-101878571D02*
X119952380Y-101878571D01*
X118904761Y-102116666D02*
X119619047Y-102354761D01*
X119619047Y-101735714D01*
%TO.C,J5*%
X126892380Y-62928333D02*
X127606666Y-62928333D01*
X127749523Y-62975952D01*
X127844761Y-63071190D01*
X127892380Y-63214047D01*
X127892380Y-63309285D01*
X126892380Y-61975952D02*
X126892380Y-62452142D01*
X127368571Y-62499761D01*
X127320952Y-62452142D01*
X127273333Y-62356904D01*
X127273333Y-62118809D01*
X127320952Y-62023571D01*
X127368571Y-61975952D01*
X127463809Y-61928333D01*
X127701904Y-61928333D01*
X127797142Y-61975952D01*
X127844761Y-62023571D01*
X127892380Y-62118809D01*
X127892380Y-62356904D01*
X127844761Y-62452142D01*
X127797142Y-62499761D01*
%TO.C,C9*%
X139413333Y-89227142D02*
X139365714Y-89274761D01*
X139222857Y-89322380D01*
X139127619Y-89322380D01*
X138984761Y-89274761D01*
X138889523Y-89179523D01*
X138841904Y-89084285D01*
X138794285Y-88893809D01*
X138794285Y-88750952D01*
X138841904Y-88560476D01*
X138889523Y-88465238D01*
X138984761Y-88370000D01*
X139127619Y-88322380D01*
X139222857Y-88322380D01*
X139365714Y-88370000D01*
X139413333Y-88417619D01*
X139889523Y-89322380D02*
X140080000Y-89322380D01*
X140175238Y-89274761D01*
X140222857Y-89227142D01*
X140318095Y-89084285D01*
X140365714Y-88893809D01*
X140365714Y-88512857D01*
X140318095Y-88417619D01*
X140270476Y-88370000D01*
X140175238Y-88322380D01*
X139984761Y-88322380D01*
X139889523Y-88370000D01*
X139841904Y-88417619D01*
X139794285Y-88512857D01*
X139794285Y-88750952D01*
X139841904Y-88846190D01*
X139889523Y-88893809D01*
X139984761Y-88941428D01*
X140175238Y-88941428D01*
X140270476Y-88893809D01*
X140318095Y-88846190D01*
X140365714Y-88750952D01*
%TO.C,R2*%
X118883333Y-51802380D02*
X118550000Y-51326190D01*
X118311904Y-51802380D02*
X118311904Y-50802380D01*
X118692857Y-50802380D01*
X118788095Y-50850000D01*
X118835714Y-50897619D01*
X118883333Y-50992857D01*
X118883333Y-51135714D01*
X118835714Y-51230952D01*
X118788095Y-51278571D01*
X118692857Y-51326190D01*
X118311904Y-51326190D01*
X119264285Y-50897619D02*
X119311904Y-50850000D01*
X119407142Y-50802380D01*
X119645238Y-50802380D01*
X119740476Y-50850000D01*
X119788095Y-50897619D01*
X119835714Y-50992857D01*
X119835714Y-51088095D01*
X119788095Y-51230952D01*
X119216666Y-51802380D01*
X119835714Y-51802380D01*
%TO.C,L3*%
X117870833Y-71452380D02*
X117394642Y-71452380D01*
X117394642Y-70452380D01*
X118108928Y-70452380D02*
X118727976Y-70452380D01*
X118394642Y-70833333D01*
X118537500Y-70833333D01*
X118632738Y-70880952D01*
X118680357Y-70928571D01*
X118727976Y-71023809D01*
X118727976Y-71261904D01*
X118680357Y-71357142D01*
X118632738Y-71404761D01*
X118537500Y-71452380D01*
X118251785Y-71452380D01*
X118156547Y-71404761D01*
X118108928Y-71357142D01*
%TO.C,L2*%
X117870833Y-69452380D02*
X117394642Y-69452380D01*
X117394642Y-68452380D01*
X118156547Y-68547619D02*
X118204166Y-68500000D01*
X118299404Y-68452380D01*
X118537500Y-68452380D01*
X118632738Y-68500000D01*
X118680357Y-68547619D01*
X118727976Y-68642857D01*
X118727976Y-68738095D01*
X118680357Y-68880952D01*
X118108928Y-69452380D01*
X118727976Y-69452380D01*
%TO.C,C5*%
X121133333Y-78277142D02*
X121085714Y-78324761D01*
X120942857Y-78372380D01*
X120847619Y-78372380D01*
X120704761Y-78324761D01*
X120609523Y-78229523D01*
X120561904Y-78134285D01*
X120514285Y-77943809D01*
X120514285Y-77800952D01*
X120561904Y-77610476D01*
X120609523Y-77515238D01*
X120704761Y-77420000D01*
X120847619Y-77372380D01*
X120942857Y-77372380D01*
X121085714Y-77420000D01*
X121133333Y-77467619D01*
X122038095Y-77372380D02*
X121561904Y-77372380D01*
X121514285Y-77848571D01*
X121561904Y-77800952D01*
X121657142Y-77753333D01*
X121895238Y-77753333D01*
X121990476Y-77800952D01*
X122038095Y-77848571D01*
X122085714Y-77943809D01*
X122085714Y-78181904D01*
X122038095Y-78277142D01*
X121990476Y-78324761D01*
X121895238Y-78372380D01*
X121657142Y-78372380D01*
X121561904Y-78324761D01*
X121514285Y-78277142D01*
%TO.C,U2*%
X132538095Y-73452380D02*
X132538095Y-74261904D01*
X132585714Y-74357142D01*
X132633333Y-74404761D01*
X132728571Y-74452380D01*
X132919047Y-74452380D01*
X133014285Y-74404761D01*
X133061904Y-74357142D01*
X133109523Y-74261904D01*
X133109523Y-73452380D01*
X133538095Y-73547619D02*
X133585714Y-73500000D01*
X133680952Y-73452380D01*
X133919047Y-73452380D01*
X134014285Y-73500000D01*
X134061904Y-73547619D01*
X134109523Y-73642857D01*
X134109523Y-73738095D01*
X134061904Y-73880952D01*
X133490476Y-74452380D01*
X134109523Y-74452380D01*
%TO.C,J3*%
X95852380Y-64333333D02*
X96566666Y-64333333D01*
X96709523Y-64380952D01*
X96804761Y-64476190D01*
X96852380Y-64619047D01*
X96852380Y-64714285D01*
X95852380Y-63952380D02*
X95852380Y-63333333D01*
X96233333Y-63666666D01*
X96233333Y-63523809D01*
X96280952Y-63428571D01*
X96328571Y-63380952D01*
X96423809Y-63333333D01*
X96661904Y-63333333D01*
X96757142Y-63380952D01*
X96804761Y-63428571D01*
X96852380Y-63523809D01*
X96852380Y-63809523D01*
X96804761Y-63904761D01*
X96757142Y-63952380D01*
%TO.C,REF\u002A\u002A*%
X145566666Y-57502380D02*
X145233333Y-57026190D01*
X144995238Y-57502380D02*
X144995238Y-56502380D01*
X145376190Y-56502380D01*
X145471428Y-56550000D01*
X145519047Y-56597619D01*
X145566666Y-56692857D01*
X145566666Y-56835714D01*
X145519047Y-56930952D01*
X145471428Y-56978571D01*
X145376190Y-57026190D01*
X144995238Y-57026190D01*
X145995238Y-56978571D02*
X146328571Y-56978571D01*
X146471428Y-57502380D02*
X145995238Y-57502380D01*
X145995238Y-56502380D01*
X146471428Y-56502380D01*
X147233333Y-56978571D02*
X146900000Y-56978571D01*
X146900000Y-57502380D02*
X146900000Y-56502380D01*
X147376190Y-56502380D01*
X147900000Y-56502380D02*
X147900000Y-56740476D01*
X147661904Y-56645238D02*
X147900000Y-56740476D01*
X148138095Y-56645238D01*
X147757142Y-56930952D02*
X147900000Y-56740476D01*
X148042857Y-56930952D01*
X148661904Y-56502380D02*
X148661904Y-56740476D01*
X148423809Y-56645238D02*
X148661904Y-56740476D01*
X148900000Y-56645238D01*
X148519047Y-56930952D02*
X148661904Y-56740476D01*
X148804761Y-56930952D01*
%TO.C,C6*%
X139283333Y-78227142D02*
X139235714Y-78274761D01*
X139092857Y-78322380D01*
X138997619Y-78322380D01*
X138854761Y-78274761D01*
X138759523Y-78179523D01*
X138711904Y-78084285D01*
X138664285Y-77893809D01*
X138664285Y-77750952D01*
X138711904Y-77560476D01*
X138759523Y-77465238D01*
X138854761Y-77370000D01*
X138997619Y-77322380D01*
X139092857Y-77322380D01*
X139235714Y-77370000D01*
X139283333Y-77417619D01*
X140140476Y-77322380D02*
X139950000Y-77322380D01*
X139854761Y-77370000D01*
X139807142Y-77417619D01*
X139711904Y-77560476D01*
X139664285Y-77750952D01*
X139664285Y-78131904D01*
X139711904Y-78227142D01*
X139759523Y-78274761D01*
X139854761Y-78322380D01*
X140045238Y-78322380D01*
X140140476Y-78274761D01*
X140188095Y-78227142D01*
X140235714Y-78131904D01*
X140235714Y-77893809D01*
X140188095Y-77798571D01*
X140140476Y-77750952D01*
X140045238Y-77703333D01*
X139854761Y-77703333D01*
X139759523Y-77750952D01*
X139711904Y-77798571D01*
X139664285Y-77893809D01*
%TO.C,R1*%
X118983333Y-54662380D02*
X118650000Y-54186190D01*
X118411904Y-54662380D02*
X118411904Y-53662380D01*
X118792857Y-53662380D01*
X118888095Y-53710000D01*
X118935714Y-53757619D01*
X118983333Y-53852857D01*
X118983333Y-53995714D01*
X118935714Y-54090952D01*
X118888095Y-54138571D01*
X118792857Y-54186190D01*
X118411904Y-54186190D01*
X119935714Y-54662380D02*
X119364285Y-54662380D01*
X119650000Y-54662380D02*
X119650000Y-53662380D01*
X119554761Y-53805238D01*
X119459523Y-53900476D01*
X119364285Y-53948095D01*
%TO.C,C3*%
X116433333Y-78277142D02*
X116385714Y-78324761D01*
X116242857Y-78372380D01*
X116147619Y-78372380D01*
X116004761Y-78324761D01*
X115909523Y-78229523D01*
X115861904Y-78134285D01*
X115814285Y-77943809D01*
X115814285Y-77800952D01*
X115861904Y-77610476D01*
X115909523Y-77515238D01*
X116004761Y-77420000D01*
X116147619Y-77372380D01*
X116242857Y-77372380D01*
X116385714Y-77420000D01*
X116433333Y-77467619D01*
X116766666Y-77372380D02*
X117385714Y-77372380D01*
X117052380Y-77753333D01*
X117195238Y-77753333D01*
X117290476Y-77800952D01*
X117338095Y-77848571D01*
X117385714Y-77943809D01*
X117385714Y-78181904D01*
X117338095Y-78277142D01*
X117290476Y-78324761D01*
X117195238Y-78372380D01*
X116909523Y-78372380D01*
X116814285Y-78324761D01*
X116766666Y-78277142D01*
%TO.C,R4*%
X169083333Y-74142380D02*
X168750000Y-73666190D01*
X168511904Y-74142380D02*
X168511904Y-73142380D01*
X168892857Y-73142380D01*
X168988095Y-73190000D01*
X169035714Y-73237619D01*
X169083333Y-73332857D01*
X169083333Y-73475714D01*
X169035714Y-73570952D01*
X168988095Y-73618571D01*
X168892857Y-73666190D01*
X168511904Y-73666190D01*
X169940476Y-73475714D02*
X169940476Y-74142380D01*
X169702380Y-73094761D02*
X169464285Y-73809047D01*
X170083333Y-73809047D01*
%TO.C,C8*%
X152833333Y-89297142D02*
X152785714Y-89344761D01*
X152642857Y-89392380D01*
X152547619Y-89392380D01*
X152404761Y-89344761D01*
X152309523Y-89249523D01*
X152261904Y-89154285D01*
X152214285Y-88963809D01*
X152214285Y-88820952D01*
X152261904Y-88630476D01*
X152309523Y-88535238D01*
X152404761Y-88440000D01*
X152547619Y-88392380D01*
X152642857Y-88392380D01*
X152785714Y-88440000D01*
X152833333Y-88487619D01*
X153404761Y-88820952D02*
X153309523Y-88773333D01*
X153261904Y-88725714D01*
X153214285Y-88630476D01*
X153214285Y-88582857D01*
X153261904Y-88487619D01*
X153309523Y-88440000D01*
X153404761Y-88392380D01*
X153595238Y-88392380D01*
X153690476Y-88440000D01*
X153738095Y-88487619D01*
X153785714Y-88582857D01*
X153785714Y-88630476D01*
X153738095Y-88725714D01*
X153690476Y-88773333D01*
X153595238Y-88820952D01*
X153404761Y-88820952D01*
X153309523Y-88868571D01*
X153261904Y-88916190D01*
X153214285Y-89011428D01*
X153214285Y-89201904D01*
X153261904Y-89297142D01*
X153309523Y-89344761D01*
X153404761Y-89392380D01*
X153595238Y-89392380D01*
X153690476Y-89344761D01*
X153738095Y-89297142D01*
X153785714Y-89201904D01*
X153785714Y-89011428D01*
X153738095Y-88916190D01*
X153690476Y-88868571D01*
X153595238Y-88820952D01*
%TO.C,L4*%
X117870833Y-73452380D02*
X117394642Y-73452380D01*
X117394642Y-72452380D01*
X118632738Y-72785714D02*
X118632738Y-73452380D01*
X118394642Y-72404761D02*
X118156547Y-73119047D01*
X118775595Y-73119047D01*
%TO.C,C4*%
X148937142Y-82966666D02*
X148984761Y-83014285D01*
X149032380Y-83157142D01*
X149032380Y-83252380D01*
X148984761Y-83395238D01*
X148889523Y-83490476D01*
X148794285Y-83538095D01*
X148603809Y-83585714D01*
X148460952Y-83585714D01*
X148270476Y-83538095D01*
X148175238Y-83490476D01*
X148080000Y-83395238D01*
X148032380Y-83252380D01*
X148032380Y-83157142D01*
X148080000Y-83014285D01*
X148127619Y-82966666D01*
X148365714Y-82109523D02*
X149032380Y-82109523D01*
X147984761Y-82347619D02*
X148699047Y-82585714D01*
X148699047Y-81966666D01*
%TO.C,Y1*%
X143973809Y-85656190D02*
X143973809Y-86132380D01*
X143640476Y-85132380D02*
X143973809Y-85656190D01*
X144307142Y-85132380D01*
X145164285Y-86132380D02*
X144592857Y-86132380D01*
X144878571Y-86132380D02*
X144878571Y-85132380D01*
X144783333Y-85275238D01*
X144688095Y-85370476D01*
X144592857Y-85418095D01*
%TO.C,J6*%
X144716666Y-80232380D02*
X144716666Y-80946666D01*
X144669047Y-81089523D01*
X144573809Y-81184761D01*
X144430952Y-81232380D01*
X144335714Y-81232380D01*
X145621428Y-80232380D02*
X145430952Y-80232380D01*
X145335714Y-80280000D01*
X145288095Y-80327619D01*
X145192857Y-80470476D01*
X145145238Y-80660952D01*
X145145238Y-81041904D01*
X145192857Y-81137142D01*
X145240476Y-81184761D01*
X145335714Y-81232380D01*
X145526190Y-81232380D01*
X145621428Y-81184761D01*
X145669047Y-81137142D01*
X145716666Y-81041904D01*
X145716666Y-80803809D01*
X145669047Y-80708571D01*
X145621428Y-80660952D01*
X145526190Y-80613333D01*
X145335714Y-80613333D01*
X145240476Y-80660952D01*
X145192857Y-80708571D01*
X145145238Y-80803809D01*
D12*
%TO.C,JP1*%
X107680000Y-75785000D02*
X105680000Y-75785000D01*
X107680000Y-72985000D02*
X107680000Y-75785000D01*
X105680000Y-72985000D02*
X107680000Y-72985000D01*
X105680000Y-75785000D02*
X105680000Y-72985000D01*
%TO.C,D1*%
X125550000Y-77360000D02*
X124900000Y-77360000D01*
X125550000Y-74240000D02*
X126200000Y-74240000D01*
X125550000Y-74240000D02*
X123875000Y-74240000D01*
X125550000Y-77360000D02*
X126200000Y-77360000D01*
%TO.C,D2*%
X125550000Y-82060000D02*
X126200000Y-82060000D01*
X125550000Y-78940000D02*
X123875000Y-78940000D01*
X125550000Y-78940000D02*
X126200000Y-78940000D01*
X125550000Y-82060000D02*
X124900000Y-82060000D01*
%TO.C,R3*%
X163115000Y-73542936D02*
X163115000Y-73997064D01*
X164585000Y-73542936D02*
X164585000Y-73997064D01*
%TO.C,C1*%
X161235000Y-78761252D02*
X161235000Y-78238748D01*
X159765000Y-78761252D02*
X159765000Y-78238748D01*
D13*
%TO.C,J7*%
X175250000Y-106830000D02*
X175250000Y-116330000D01*
X173750000Y-117830000D02*
X96250000Y-117830000D01*
X175250000Y-69830000D02*
X177250000Y-71830000D01*
X177250000Y-71830000D02*
X177250000Y-104830000D01*
X125220000Y-115810000D02*
X173480000Y-115810000D01*
X125220000Y-110810000D02*
X125220000Y-115810000D01*
X125220000Y-54850000D02*
X173480000Y-54850000D01*
X177250000Y-104830000D02*
X175250000Y-106830000D01*
X173480000Y-49850000D02*
X125220000Y-49850000D01*
X175250000Y-49330000D02*
X175250000Y-69830000D01*
X125220000Y-49850000D02*
X125220000Y-54850000D01*
X173480000Y-110810000D02*
X125220000Y-110810000D01*
X173480000Y-115810000D02*
X173480000Y-110810000D01*
X173480000Y-54850000D02*
X173480000Y-49850000D01*
X94750000Y-116330000D02*
X94750000Y-49330000D01*
X96250000Y-47830000D02*
X173750000Y-47830000D01*
X94750000Y-116330000D02*
G75*
G03*
X96250000Y-117830000I1500001J1D01*
G01*
X175250000Y-49330000D02*
G75*
G03*
X173750000Y-47830000I-1500000J0D01*
G01*
X173750000Y-117830000D02*
G75*
G03*
X175250000Y-116330000I-1J1500001D01*
G01*
X96250000Y-47830000D02*
G75*
G03*
X94750000Y-49330000I0J-1500000D01*
G01*
D14*
X126590000Y-116330000D02*
G75*
G03*
X126590000Y-116330000I-100000J0D01*
G01*
X126590000Y-55370000D02*
G75*
G03*
X126590000Y-55370000I-100000J0D01*
G01*
D12*
%TO.C,J2*%
X107905000Y-78270000D02*
X107905000Y-79600000D01*
X106575000Y-78270000D02*
X107905000Y-78270000D01*
X105305000Y-80930000D02*
X102705000Y-80930000D01*
X105305000Y-78270000D02*
X102705000Y-78270000D01*
X102705000Y-78270000D02*
X102705000Y-80930000D01*
X105305000Y-78270000D02*
X105305000Y-80930000D01*
%TO.C,J1*%
X167780000Y-80430000D02*
X176980000Y-80430000D01*
X167780000Y-89230000D02*
X167780000Y-84830000D01*
X167780000Y-84830000D02*
X167780000Y-80430000D01*
X176980000Y-89230000D02*
X176980000Y-80430000D01*
X167780000Y-89230000D02*
X176980000Y-89230000D01*
%TO.C,U1*%
X152090000Y-85210000D02*
X152090000Y-83950000D01*
X155850000Y-78390000D02*
X152090000Y-78390000D01*
X158100000Y-85210000D02*
X152090000Y-85210000D01*
X152090000Y-78390000D02*
X152090000Y-79650000D01*
%TO.C,C7*%
X139188748Y-82415000D02*
X139711252Y-82415000D01*
X139188748Y-83885000D02*
X139711252Y-83885000D01*
%TO.C,C2*%
X115298752Y-66735000D02*
X114776248Y-66735000D01*
X115298752Y-65265000D02*
X114776248Y-65265000D01*
%TO.C,J4*%
X122425000Y-103830000D02*
X121095000Y-103830000D01*
X123695000Y-103830000D02*
X123695000Y-101170000D01*
X123695000Y-103830000D02*
X159315000Y-103830000D01*
X121095000Y-103830000D02*
X121095000Y-102500000D01*
X159315000Y-103830000D02*
X159315000Y-101170000D01*
X123695000Y-101170000D02*
X159315000Y-101170000D01*
%TO.C,J5*%
X128440000Y-62595000D02*
X128440000Y-59995000D01*
X131040000Y-65195000D02*
X138720000Y-65195000D01*
X131040000Y-62595000D02*
X128440000Y-62595000D01*
X128440000Y-59995000D02*
X138720000Y-59995000D01*
X129770000Y-65195000D02*
X128440000Y-65195000D01*
X131040000Y-65195000D02*
X131040000Y-62595000D01*
X138720000Y-65195000D02*
X138720000Y-59995000D01*
X128440000Y-65195000D02*
X128440000Y-63865000D01*
%TO.C,C9*%
X141065000Y-88688748D02*
X141065000Y-89211252D01*
X142535000Y-88688748D02*
X142535000Y-89211252D01*
%TO.C,R2*%
X121782936Y-50685000D02*
X122237064Y-50685000D01*
X121782936Y-52155000D02*
X122237064Y-52155000D01*
%TO.C,L3*%
X115447742Y-71560000D02*
X114627258Y-71560000D01*
X115447742Y-70440000D02*
X114627258Y-70440000D01*
%TO.C,L2*%
X114627258Y-69560000D02*
X115447742Y-69560000D01*
X114627258Y-68440000D02*
X115447742Y-68440000D01*
%TO.C,C5*%
X121038748Y-80335000D02*
X121561252Y-80335000D01*
X121038748Y-78865000D02*
X121561252Y-78865000D01*
%TO.C,U2*%
X135410000Y-79410000D02*
X135410000Y-78935000D01*
X131665000Y-75190000D02*
X131190000Y-75190000D01*
X131665000Y-79410000D02*
X131190000Y-79410000D01*
X131190000Y-79410000D02*
X131190000Y-78935000D01*
X135410000Y-75190000D02*
X135410000Y-75665000D01*
X134935000Y-79410000D02*
X135410000Y-79410000D01*
X134935000Y-75190000D02*
X135410000Y-75190000D01*
G36*
X130300000Y-76000000D02*
G01*
X130000000Y-76100000D01*
X130000000Y-75900000D01*
X130300000Y-76000000D01*
G37*
X130300000Y-76000000D02*
X130000000Y-76100000D01*
X130000000Y-75900000D01*
X130300000Y-76000000D01*
%TO.C,J3*%
X110310000Y-60090000D02*
X95451000Y-60090000D01*
X95451000Y-60090000D02*
X95451000Y-67710000D01*
X110310000Y-67710000D02*
X95451000Y-67710000D01*
X102690000Y-67710000D02*
X110310000Y-67710000D01*
X110310000Y-67710000D02*
X110310000Y-60090000D01*
X110310000Y-60090000D02*
X102690000Y-60090000D01*
X102690000Y-60090000D02*
X102690000Y-67710000D01*
%TO.C,REF\u002A\u002A*%
G36*
X151400000Y-68050000D02*
G01*
X151387300Y-68062700D01*
X151374600Y-68050000D01*
X151387300Y-68037300D01*
X151400000Y-68050000D01*
G37*
D15*
X151400000Y-68050000D02*
X151387300Y-68062700D01*
X151374600Y-68050000D01*
X151387300Y-68037300D01*
X151400000Y-68050000D01*
D12*
%TO.C,C6*%
X139188748Y-78815000D02*
X139711252Y-78815000D01*
X139188748Y-80285000D02*
X139711252Y-80285000D01*
%TO.C,R1*%
X121832936Y-54945000D02*
X122287064Y-54945000D01*
X121832936Y-53475000D02*
X122287064Y-53475000D01*
%TO.C,C3*%
X116338748Y-80335000D02*
X116861252Y-80335000D01*
X116338748Y-78865000D02*
X116861252Y-78865000D01*
%TO.C,R4*%
X171905000Y-73542936D02*
X171905000Y-73997064D01*
X170435000Y-73542936D02*
X170435000Y-73997064D01*
%TO.C,C8*%
X151465000Y-88678748D02*
X151465000Y-89201252D01*
X149995000Y-88678748D02*
X149995000Y-89201252D01*
%TO.C,L4*%
X115447742Y-72440000D02*
X114627258Y-72440000D01*
X115447742Y-73560000D02*
X114627258Y-73560000D01*
%TO.C,C4*%
X146165000Y-82538748D02*
X146165000Y-83061252D01*
X147635000Y-82538748D02*
X147635000Y-83061252D01*
%TO.C,Y1*%
X144400000Y-88760000D02*
X144400000Y-92560000D01*
X148400000Y-86660000D02*
X148400000Y-87060000D01*
X148400000Y-86660000D02*
X144400000Y-86660000D01*
X144400000Y-94260000D02*
X144400000Y-94660000D01*
X148400000Y-88760000D02*
X148400000Y-92560000D01*
X148400000Y-94260000D02*
X148400000Y-94660000D01*
X144400000Y-86660000D02*
X144400000Y-87060000D01*
X148400000Y-94660000D02*
X148300000Y-94660000D01*
X144400000Y-94660000D02*
X148300000Y-94660000D01*
%TO.C,J6*%
X146380000Y-79780000D02*
X145050000Y-79780000D01*
X143720000Y-77180000D02*
X143720000Y-74580000D01*
X146380000Y-74580000D02*
X143720000Y-74580000D01*
X146380000Y-78450000D02*
X146380000Y-79780000D01*
X146380000Y-77180000D02*
X146380000Y-74580000D01*
X146380000Y-77180000D02*
X143720000Y-77180000D01*
%TD*%
M02*
