%TF.GenerationSoftware,KiCad,Pcbnew,(6.0.4)*%
%TF.CreationDate,2022-11-04T05:35:43-04:00*%
%TF.ProjectId,SI4743 Breakout,53493437-3433-4204-9272-65616b6f7574,rev?*%
%TF.SameCoordinates,Original*%
%TF.FileFunction,Soldermask,Bot*%
%TF.FilePolarity,Negative*%
%FSLAX46Y46*%
G04 Gerber Fmt 4.6, Leading zero omitted, Abs format (unit mm)*
G04 Created by KiCad (PCBNEW (6.0.4)) date 2022-11-04 05:35:43*
%MOMM*%
%LPD*%
G01*
G04 APERTURE LIST*
%ADD10C,3.000000*%
%ADD11R,1.530000X1.530000*%
%ADD12C,1.530000*%
%ADD13R,1.700000X1.700000*%
%ADD14O,1.700000X1.700000*%
%ADD15C,1.200000*%
%ADD16R,2.700000X1.300000*%
%ADD17C,2.400000*%
G04 APERTURE END LIST*
D10*
%TO.C,J7*%
X123950000Y-58700000D03*
X174750000Y-73940000D03*
X122680000Y-106960000D03*
D11*
X126490000Y-114580000D03*
D12*
X126490000Y-112040000D03*
X129030000Y-114580000D03*
X129030000Y-112040000D03*
X131570000Y-114580000D03*
X131570000Y-112040000D03*
X134110000Y-114580000D03*
X134110000Y-112040000D03*
X136650000Y-114580000D03*
X136650000Y-112040000D03*
X139190000Y-114580000D03*
X139190000Y-112040000D03*
X141730000Y-114580000D03*
X141730000Y-112040000D03*
X144270000Y-114580000D03*
X144270000Y-112040000D03*
X146810000Y-114580000D03*
X146810000Y-112040000D03*
X149350000Y-114580000D03*
X149350000Y-112040000D03*
X151890000Y-114580000D03*
X151890000Y-112040000D03*
X154430000Y-114580000D03*
X154430000Y-112040000D03*
X156970000Y-114580000D03*
X156970000Y-112040000D03*
X159510000Y-114580000D03*
X159510000Y-112040000D03*
X162050000Y-114580000D03*
X162050000Y-112040000D03*
X164590000Y-114580000D03*
X164590000Y-112040000D03*
X167130000Y-114580000D03*
X167130000Y-112040000D03*
X169670000Y-114580000D03*
X169670000Y-112040000D03*
X172210000Y-114580000D03*
X172210000Y-112040000D03*
D11*
X126490000Y-53620000D03*
D12*
X126490000Y-51080000D03*
X129030000Y-53620000D03*
X129030000Y-51080000D03*
X131570000Y-53620000D03*
X131570000Y-51080000D03*
X134110000Y-53620000D03*
X134110000Y-51080000D03*
X136650000Y-53620000D03*
X136650000Y-51080000D03*
X139190000Y-53620000D03*
X139190000Y-51080000D03*
X141730000Y-53620000D03*
X141730000Y-51080000D03*
X144270000Y-53620000D03*
X144270000Y-51080000D03*
X146810000Y-53620000D03*
X146810000Y-51080000D03*
X149350000Y-53620000D03*
X149350000Y-51080000D03*
X151890000Y-53620000D03*
X151890000Y-51080000D03*
X154430000Y-53620000D03*
X154430000Y-51080000D03*
X156970000Y-53620000D03*
X156970000Y-51080000D03*
X159510000Y-53620000D03*
X159510000Y-51080000D03*
X162050000Y-53620000D03*
X162050000Y-51080000D03*
X164590000Y-53620000D03*
X164590000Y-51080000D03*
X167130000Y-53620000D03*
X167130000Y-51080000D03*
X169670000Y-53620000D03*
X169670000Y-51080000D03*
X172210000Y-53620000D03*
X172210000Y-51080000D03*
%TD*%
D13*
%TO.C,J2*%
X106575000Y-79600000D03*
D14*
X104035000Y-79600000D03*
%TD*%
D15*
%TO.C,J1*%
X168480000Y-86430000D03*
X169730000Y-85630000D03*
X168480000Y-84830000D03*
X169730000Y-84030000D03*
X168480000Y-83230000D03*
D16*
X173730000Y-88480000D03*
X173730000Y-81180000D03*
%TD*%
D13*
%TO.C,J4*%
X122425000Y-102500000D03*
D14*
X124965000Y-102500000D03*
X127505000Y-102500000D03*
X130045000Y-102500000D03*
X132585000Y-102500000D03*
X135125000Y-102500000D03*
X137665000Y-102500000D03*
X140205000Y-102500000D03*
X142745000Y-102500000D03*
X145285000Y-102500000D03*
X147825000Y-102500000D03*
X150365000Y-102500000D03*
X152905000Y-102500000D03*
X155445000Y-102500000D03*
X157985000Y-102500000D03*
%TD*%
D13*
%TO.C,J5*%
X129770000Y-63865000D03*
D14*
X129770000Y-61325000D03*
X132310000Y-63865000D03*
X132310000Y-61325000D03*
X134850000Y-63865000D03*
X134850000Y-61325000D03*
X137390000Y-63865000D03*
X137390000Y-61325000D03*
%TD*%
D17*
%TO.C,J3*%
X106500000Y-63900000D03*
X103960000Y-66440000D03*
X109040000Y-61360000D03*
X109040000Y-66440000D03*
X103960000Y-61360000D03*
%TD*%
D13*
%TO.C,J6*%
X145050000Y-78450000D03*
D14*
X145050000Y-75910000D03*
%TD*%
M02*
